G04 #@! TF.GenerationSoftware,KiCad,Pcbnew,(6.0.2)*
G04 #@! TF.CreationDate,2022-02-19T19:54:12+00:00*
G04 #@! TF.ProjectId,Gameboy 64KB Cart Discrete Logic Fixed Rev2,47616d65-626f-4792-9036-344b42204361,rev?*
G04 #@! TF.SameCoordinates,Original*
G04 #@! TF.FileFunction,Legend,Top*
G04 #@! TF.FilePolarity,Positive*
%FSLAX46Y46*%
G04 Gerber Fmt 4.6, Leading zero omitted, Abs format (unit mm)*
G04 Created by KiCad (PCBNEW (6.0.2)) date 2022-02-19 19:54:12*
%MOMM*%
%LPD*%
G01*
G04 APERTURE LIST*
%ADD10C,0.150000*%
%ADD11C,0.120000*%
G04 APERTURE END LIST*
D10*
X148187352Y-56043580D02*
X148187352Y-56757866D01*
X148139733Y-56900723D01*
X148044495Y-56995961D01*
X147901638Y-57043580D01*
X147806400Y-57043580D01*
X149139733Y-57043580D02*
X148663542Y-57043580D01*
X148663542Y-56043580D01*
X150044495Y-56948342D02*
X149996876Y-56995961D01*
X149854019Y-57043580D01*
X149758780Y-57043580D01*
X149615923Y-56995961D01*
X149520685Y-56900723D01*
X149473066Y-56805485D01*
X149425447Y-56615009D01*
X149425447Y-56472152D01*
X149473066Y-56281676D01*
X149520685Y-56186438D01*
X149615923Y-56091200D01*
X149758780Y-56043580D01*
X149854019Y-56043580D01*
X149996876Y-56091200D01*
X150044495Y-56138819D01*
X150758780Y-56043580D02*
X150758780Y-56757866D01*
X150711161Y-56900723D01*
X150615923Y-56995961D01*
X150473066Y-57043580D01*
X150377828Y-57043580D01*
X151711161Y-57043580D02*
X151234971Y-57043580D01*
X151234971Y-56043580D01*
X152615923Y-56948342D02*
X152568304Y-56995961D01*
X152425447Y-57043580D01*
X152330209Y-57043580D01*
X152187352Y-56995961D01*
X152092114Y-56900723D01*
X152044495Y-56805485D01*
X151996876Y-56615009D01*
X151996876Y-56472152D01*
X152044495Y-56281676D01*
X152092114Y-56186438D01*
X152187352Y-56091200D01*
X152330209Y-56043580D01*
X152425447Y-56043580D01*
X152568304Y-56091200D01*
X152615923Y-56138819D01*
X153330209Y-56043580D02*
X153330209Y-56757866D01*
X153282590Y-56900723D01*
X153187352Y-56995961D01*
X153044495Y-57043580D01*
X152949257Y-57043580D01*
X154282590Y-57043580D02*
X153806400Y-57043580D01*
X153806400Y-56043580D01*
X155187352Y-56948342D02*
X155139733Y-56995961D01*
X154996876Y-57043580D01*
X154901638Y-57043580D01*
X154758780Y-56995961D01*
X154663542Y-56900723D01*
X154615923Y-56805485D01*
X154568304Y-56615009D01*
X154568304Y-56472152D01*
X154615923Y-56281676D01*
X154663542Y-56186438D01*
X154758780Y-56091200D01*
X154901638Y-56043580D01*
X154996876Y-56043580D01*
X155139733Y-56091200D01*
X155187352Y-56138819D01*
X155901638Y-56043580D02*
X155901638Y-56757866D01*
X155854019Y-56900723D01*
X155758780Y-56995961D01*
X155615923Y-57043580D01*
X155520685Y-57043580D01*
X156854019Y-57043580D02*
X156377828Y-57043580D01*
X156377828Y-56043580D01*
X157758780Y-56948342D02*
X157711161Y-56995961D01*
X157568304Y-57043580D01*
X157473066Y-57043580D01*
X157330209Y-56995961D01*
X157234971Y-56900723D01*
X157187352Y-56805485D01*
X157139733Y-56615009D01*
X157139733Y-56472152D01*
X157187352Y-56281676D01*
X157234971Y-56186438D01*
X157330209Y-56091200D01*
X157473066Y-56043580D01*
X157568304Y-56043580D01*
X157711161Y-56091200D01*
X157758780Y-56138819D01*
D11*
X127000000Y-85315000D02*
X128950000Y-85315000D01*
X127000000Y-94185000D02*
X130450000Y-94185000D01*
X127000000Y-85315000D02*
X125050000Y-85315000D01*
X127000000Y-94185000D02*
X125050000Y-94185000D01*
X151685000Y-78750000D02*
X151685000Y-80700000D01*
X142815000Y-78750000D02*
X142815000Y-76800000D01*
X142815000Y-78750000D02*
X142815000Y-80700000D01*
X151685000Y-78750000D02*
X151685000Y-75300000D01*
X155315000Y-88750000D02*
X155315000Y-86800000D01*
X164185000Y-88750000D02*
X164185000Y-85300000D01*
X155315000Y-88750000D02*
X155315000Y-90700000D01*
X164185000Y-88750000D02*
X164185000Y-90700000D01*
X123940000Y-77000000D02*
X123940000Y-75050000D01*
X134060000Y-77000000D02*
X134060000Y-73550000D01*
X134060000Y-77000000D02*
X134060000Y-78950000D01*
X123940000Y-77000000D02*
X123940000Y-78950000D01*
X164185000Y-77500000D02*
X164185000Y-75550000D01*
X155315000Y-77500000D02*
X155315000Y-80950000D01*
X164185000Y-77500000D02*
X164185000Y-79450000D01*
X155315000Y-77500000D02*
X155315000Y-75550000D01*
X122570000Y-65830000D02*
X163330000Y-65830000D01*
X163330000Y-52910000D02*
X122570000Y-52910000D01*
X163330000Y-65830000D02*
X163330000Y-60370000D01*
X122570000Y-52910000D02*
X122570000Y-65830000D01*
X122510000Y-68320000D02*
X163390000Y-68320000D01*
X122510000Y-50420000D02*
X122510000Y-68320000D01*
X163390000Y-68320000D02*
X163390000Y-50420000D01*
X163390000Y-50420000D02*
X122510000Y-50420000D01*
X163330000Y-58370000D02*
X163330000Y-52910000D01*
X163330000Y-58370000D02*
G75*
G03*
X163330000Y-60370000I0J-1000000D01*
G01*
X166753733Y-55810000D02*
X167046267Y-55810000D01*
X166753733Y-54790000D02*
X167046267Y-54790000D01*
M02*
