G04 #@! TF.GenerationSoftware,KiCad,Pcbnew,(6.0.2)*
G04 #@! TF.CreationDate,2022-02-19T19:54:12+00:00*
G04 #@! TF.ProjectId,Gameboy 64KB Cart Discrete Logic Fixed Rev2,47616d65-626f-4792-9036-344b42204361,rev?*
G04 #@! TF.SameCoordinates,Original*
G04 #@! TF.FileFunction,Copper,L2,Bot*
G04 #@! TF.FilePolarity,Positive*
%FSLAX46Y46*%
G04 Gerber Fmt 4.6, Leading zero omitted, Abs format (unit mm)*
G04 Created by KiCad (PCBNEW (6.0.2)) date 2022-02-19 19:54:12*
%MOMM*%
%LPD*%
G01*
G04 APERTURE LIST*
G04 #@! TA.AperFunction,ComponentPad*
%ADD10R,1.600000X1.600000*%
G04 #@! TD*
G04 #@! TA.AperFunction,ComponentPad*
%ADD11O,1.600000X1.600000*%
G04 #@! TD*
G04 #@! TA.AperFunction,ViaPad*
%ADD12C,0.800000*%
G04 #@! TD*
G04 #@! TA.AperFunction,Conductor*
%ADD13C,0.250000*%
G04 #@! TD*
G04 APERTURE END LIST*
D10*
X162000000Y-51750000D03*
D11*
X159460000Y-51750000D03*
X156920000Y-51750000D03*
X154380000Y-51750000D03*
X151840000Y-51750000D03*
X149300000Y-51750000D03*
X146760000Y-51750000D03*
X144220000Y-51750000D03*
X141680000Y-51750000D03*
X139140000Y-51750000D03*
X136600000Y-51750000D03*
X134060000Y-51750000D03*
X131520000Y-51750000D03*
X128980000Y-51750000D03*
X126440000Y-51750000D03*
X123900000Y-51750000D03*
X123900000Y-66990000D03*
X126440000Y-66990000D03*
X128980000Y-66990000D03*
X131520000Y-66990000D03*
X134060000Y-66990000D03*
X136600000Y-66990000D03*
X139140000Y-66990000D03*
X141680000Y-66990000D03*
X144220000Y-66990000D03*
X146760000Y-66990000D03*
X149300000Y-66990000D03*
X151840000Y-66990000D03*
X154380000Y-66990000D03*
X156920000Y-66990000D03*
X159460000Y-66990000D03*
X162000000Y-66990000D03*
D12*
X130150000Y-83250000D03*
X151500000Y-70700000D03*
X127863600Y-98247200D03*
X130900000Y-83950000D03*
X134050000Y-71500000D03*
X164000000Y-69400000D03*
X132950000Y-81500000D03*
X164000000Y-70500000D03*
X126450000Y-98250000D03*
X162950000Y-69950000D03*
X126450000Y-97000000D03*
X153100000Y-86450000D03*
X127850000Y-97000000D03*
X152300000Y-85600000D03*
X152150000Y-69800000D03*
X133650000Y-82300000D03*
X134050000Y-72550000D03*
X161050000Y-84200000D03*
X161050000Y-83150000D03*
X143637000Y-78105000D03*
X153750000Y-76250000D03*
X155750000Y-77000000D03*
X134500000Y-77500000D03*
X142000000Y-75250000D03*
X165000000Y-99500000D03*
X149758400Y-85090000D03*
X157250000Y-82500000D03*
X157226000Y-89535000D03*
X144526000Y-83250000D03*
X146050000Y-86156800D03*
X158500000Y-73000000D03*
X127000000Y-92500000D03*
X145500000Y-83500000D03*
X125750000Y-81250000D03*
X132250000Y-92000000D03*
X154279600Y-90830400D03*
X128000000Y-77500000D03*
X132299990Y-84950010D03*
X158250000Y-93000000D03*
X143750000Y-87000000D03*
X146685000Y-74295000D03*
X142750000Y-86500000D03*
X145415000Y-74295000D03*
X127698500Y-88455500D03*
X130429000Y-77279500D03*
X156000000Y-82500000D03*
X147000000Y-86750000D03*
X157000000Y-72250000D03*
X151000000Y-72250000D03*
X126047500Y-76708000D03*
X134429500Y-76263500D03*
X128905000Y-72263000D03*
X132842000Y-70612000D03*
X153543000Y-77978000D03*
X157500000Y-77750000D03*
X130750000Y-71000000D03*
X129500000Y-71250000D03*
X127250000Y-71750000D03*
X137000000Y-61250000D03*
X129750000Y-60500000D03*
X138000000Y-59750000D03*
X130750000Y-59500000D03*
X139000000Y-58500000D03*
X131750000Y-58500000D03*
X154750000Y-82500000D03*
X152250000Y-74250000D03*
X156250000Y-65250000D03*
X153750000Y-74000000D03*
X153750000Y-81750000D03*
X161250000Y-70500000D03*
X160655000Y-73152000D03*
X147015200Y-99618800D03*
X137750000Y-98000000D03*
X136750000Y-98000000D03*
X135750000Y-98000000D03*
X134750000Y-98000000D03*
X133750000Y-98000000D03*
X145000000Y-71750000D03*
X140750000Y-98000000D03*
X132750000Y-98000000D03*
X124409200Y-99720400D03*
X122500000Y-94100000D03*
X131750000Y-98000000D03*
X145923000Y-72263000D03*
X141750000Y-98000000D03*
X130750000Y-98000000D03*
X146750000Y-71500000D03*
X139750000Y-98000000D03*
X138750000Y-98000000D03*
X139500000Y-57000000D03*
X132750000Y-57000000D03*
X139750000Y-55500000D03*
X133500000Y-55500000D03*
X151500000Y-100400000D03*
X144000000Y-74250000D03*
X147193000Y-79375000D03*
D13*
X134500000Y-77500000D02*
X134500000Y-77500000D01*
X155750000Y-77000000D02*
X155750000Y-77000000D01*
X134632028Y-94574752D02*
X134799943Y-94406837D01*
X130853609Y-96347981D02*
X131307989Y-96347981D01*
X166000000Y-60000000D02*
X166000000Y-55250000D01*
X165150000Y-55250000D02*
X166000000Y-55250000D01*
X133081218Y-94574752D02*
X134632028Y-94574752D01*
X155149999Y-76649999D02*
X155500000Y-77000000D01*
X134799943Y-77799943D02*
X134500000Y-77500000D01*
X162000000Y-67240000D02*
X162000000Y-64000000D01*
X134799943Y-94406837D02*
X134799943Y-77799943D01*
X154149999Y-76649999D02*
X155149999Y-76649999D01*
X164200000Y-55250000D02*
X165150000Y-55250000D01*
X131307989Y-96347981D02*
X133081218Y-94574752D01*
X164500000Y-61500000D02*
X166000000Y-60000000D01*
X128000000Y-100500000D02*
X129750000Y-98750000D01*
X162000000Y-53050000D02*
X164200000Y-55250000D01*
X155500000Y-77000000D02*
X155750000Y-77000000D01*
X129750000Y-97451590D02*
X130853609Y-96347981D01*
X121500000Y-100500000D02*
X128000000Y-100500000D01*
X162000000Y-52000000D02*
X162000000Y-53050000D01*
X162000000Y-64000000D02*
X164500000Y-61500000D01*
X129750000Y-98750000D02*
X129750000Y-97451590D01*
X153750000Y-76250000D02*
X154149999Y-76649999D01*
X142000000Y-75250000D02*
X142000000Y-75250000D01*
X148811410Y-88715010D02*
X150200009Y-90103609D01*
X141550090Y-75699910D02*
X141550090Y-85927600D01*
X164600001Y-99100001D02*
X165000000Y-99500000D01*
X142000000Y-75250000D02*
X141550090Y-75699910D01*
X143274210Y-88715010D02*
X148811410Y-88715010D01*
X150200010Y-97200010D02*
X152100001Y-99100001D01*
X152100001Y-99100001D02*
X164600001Y-99100001D01*
X150200009Y-90103609D02*
X150200010Y-97200010D01*
X141550088Y-85927602D02*
X141550088Y-86990888D01*
X141550088Y-86990888D02*
X143274210Y-88715010D01*
X141550090Y-85927600D02*
X141550088Y-85927602D01*
X157250000Y-82500000D02*
X157250000Y-82500000D01*
X149758400Y-85090000D02*
X149758400Y-85090000D01*
X150398390Y-84450010D02*
X149758400Y-85090000D01*
X155500000Y-83750000D02*
X156000000Y-83750000D01*
X154799990Y-84450010D02*
X155500000Y-83750000D01*
X156000000Y-83750000D02*
X157250000Y-82500000D01*
X154799990Y-84450010D02*
X150398390Y-84450010D01*
X152639999Y-68311999D02*
X153060400Y-68732400D01*
X151840000Y-66990000D02*
X152639999Y-67789999D01*
X159639000Y-87122000D02*
X159067500Y-87693500D01*
X159067500Y-87693500D02*
X157226000Y-89535000D01*
X159049990Y-69756400D02*
X159049990Y-70659400D01*
X158025990Y-68732400D02*
X159049990Y-69756400D01*
X153060400Y-68732400D02*
X158025990Y-68732400D01*
X152639999Y-67789999D02*
X152639999Y-68311999D01*
X159639000Y-71248410D02*
X159639000Y-87122000D01*
X159049990Y-70659400D02*
X159639000Y-71248410D01*
X144526000Y-83250000D02*
X144526000Y-83815685D01*
X144526000Y-83815685D02*
X145237200Y-84526885D01*
X145237200Y-84526885D02*
X145237200Y-84531200D01*
X145237200Y-84531200D02*
X146050000Y-85344000D01*
X146050000Y-85344000D02*
X146050000Y-86156800D01*
X125750000Y-81250000D02*
X125750000Y-81250000D01*
X127000000Y-92500000D02*
X127000000Y-92500000D01*
X145500000Y-83500000D02*
X146000000Y-83000000D01*
X151250000Y-73686400D02*
X151936400Y-73000000D01*
X151936400Y-73000000D02*
X158500000Y-73000000D01*
X127099980Y-82599980D02*
X127099980Y-87981018D01*
X126600001Y-88480997D02*
X126600001Y-92100001D01*
X151799990Y-82200010D02*
X151799990Y-75049990D01*
X126600001Y-92100001D02*
X127000000Y-92500000D01*
X151000000Y-83000000D02*
X151799990Y-82200010D01*
X151250000Y-74500000D02*
X151250000Y-73686400D01*
X127099980Y-87981018D02*
X126600001Y-88480997D01*
X146000000Y-83000000D02*
X151000000Y-83000000D01*
X151799990Y-75049990D02*
X151250000Y-74500000D01*
X125750000Y-81250000D02*
X127099980Y-82599980D01*
X128000000Y-77500000D02*
X128000000Y-77500000D01*
X131734305Y-84950010D02*
X131721315Y-84963000D01*
X131721315Y-84963000D02*
X130048000Y-84963000D01*
X132250000Y-92000000D02*
X132250000Y-91434315D01*
X132299990Y-84950010D02*
X131734305Y-84950010D01*
X132599934Y-85349934D02*
X132250000Y-85000000D01*
X132599934Y-91084381D02*
X132599934Y-85349934D01*
X128000000Y-82915000D02*
X128000000Y-80084335D01*
X154279600Y-92405200D02*
X154874400Y-93000000D01*
X128000000Y-80084335D02*
X128000000Y-77500000D01*
X154279600Y-90830400D02*
X154279600Y-92405200D01*
X132250000Y-91434315D02*
X132599934Y-91084381D01*
X154874400Y-93000000D02*
X158250000Y-93000000D01*
X130048000Y-84963000D02*
X128000000Y-82915000D01*
X146685000Y-74295000D02*
X146685000Y-74295000D01*
X146685000Y-74295000D02*
X145218990Y-75761010D01*
X143750000Y-86295200D02*
X143750000Y-87000000D01*
X142450110Y-84995310D02*
X143750000Y-86295200D01*
X142450110Y-76753300D02*
X142450110Y-84995310D01*
X143442400Y-75761010D02*
X142450110Y-76753300D01*
X145218990Y-75761010D02*
X143442400Y-75761010D01*
X145415000Y-74295000D02*
X145415000Y-74295000D01*
X142000100Y-78500000D02*
X142000100Y-78499900D01*
X144399000Y-75311000D02*
X145415000Y-74295000D01*
X142000100Y-78500000D02*
X142000100Y-76566900D01*
X142000100Y-85750100D02*
X142000100Y-78500000D01*
X142000100Y-76566900D02*
X143256000Y-75311000D01*
X143256000Y-75311000D02*
X144399000Y-75311000D01*
X142750000Y-86500000D02*
X142000100Y-85750100D01*
X127698500Y-88455500D02*
X127698500Y-88455500D01*
X127274999Y-77151999D02*
X127274999Y-77848001D01*
X128841500Y-77268498D02*
X130354498Y-77268498D01*
X127651999Y-76774999D02*
X128348001Y-76774999D01*
X127698500Y-87228520D02*
X127698500Y-88455500D01*
X127695001Y-76774999D02*
X127651999Y-76774999D01*
X128348001Y-76774999D02*
X128841500Y-77268498D01*
X127274999Y-77848001D02*
X127549990Y-78122992D01*
X127651999Y-76774999D02*
X127274999Y-77151999D01*
X127549990Y-83101400D02*
X127549990Y-87080010D01*
X127549990Y-87080010D02*
X127698500Y-87228520D01*
X127549990Y-78122992D02*
X127549990Y-83101400D01*
X156000000Y-82500000D02*
X156000000Y-82500000D01*
X154500000Y-84000000D02*
X156000000Y-82500000D01*
X149750000Y-84000000D02*
X154500000Y-84000000D01*
X147000000Y-86750000D02*
X147399999Y-86350001D01*
X147399999Y-86350001D02*
X148500000Y-85250000D01*
X148500000Y-85250000D02*
X149750000Y-84000000D01*
X134429500Y-76263500D02*
X134429500Y-76263500D01*
X131254500Y-77031998D02*
X131254500Y-77533500D01*
X131635500Y-77914500D02*
X133026002Y-77914500D01*
X133026002Y-77914500D02*
X134429500Y-76511002D01*
X129027900Y-76818488D02*
X129817010Y-76818488D01*
X127082588Y-76708000D02*
X127465599Y-76324989D01*
X151000000Y-72250000D02*
X157000000Y-72250000D01*
X131254500Y-77533500D02*
X131635500Y-77914500D01*
X129817010Y-76818488D02*
X130080999Y-76554499D01*
X126047500Y-76708000D02*
X127082588Y-76708000D01*
X128763911Y-76554499D02*
X129027900Y-76818488D01*
X134429500Y-76511002D02*
X134429500Y-76263500D01*
X130777001Y-76554499D02*
X131254500Y-77031998D01*
X127465599Y-76324989D02*
X128534401Y-76324989D01*
X130080999Y-76554499D02*
X130777001Y-76554499D01*
X128534401Y-76324989D02*
X128763911Y-76554499D01*
X153543000Y-77978000D02*
X153543000Y-77978000D01*
X132842000Y-70612000D02*
X132842000Y-70612000D01*
X132842000Y-71247000D02*
X132842000Y-70612000D01*
X157500000Y-77750000D02*
X156934315Y-77750000D01*
X131826000Y-72263000D02*
X132842000Y-71247000D01*
X129470685Y-72263000D02*
X131699000Y-72263000D01*
X128905000Y-72263000D02*
X129470685Y-72263000D01*
X156934315Y-77750000D02*
X156706315Y-77978000D01*
X131699000Y-72263000D02*
X131826000Y-72263000D01*
X156706315Y-77978000D02*
X153543000Y-77978000D01*
X130750000Y-71000000D02*
X130750000Y-71000000D01*
X127854999Y-56796371D02*
X127854999Y-68104999D01*
X127854999Y-68104999D02*
X130750000Y-71000000D01*
X131520000Y-53131370D02*
X127854999Y-56796371D01*
X131520000Y-52000000D02*
X131520000Y-53131370D01*
X129500000Y-71250000D02*
X129500000Y-71250000D01*
X128750000Y-70500000D02*
X129500000Y-71250000D01*
X125314999Y-67780001D02*
X128034998Y-70500000D01*
X128034998Y-70500000D02*
X128750000Y-70500000D01*
X128980000Y-52000000D02*
X125314999Y-55665001D01*
X125314999Y-55665001D02*
X125314999Y-67780001D01*
X127250000Y-71750000D02*
X127250000Y-71750000D01*
X124000000Y-63750000D02*
X122250000Y-65500000D01*
X122250000Y-65500000D02*
X122250000Y-68250000D01*
X126440000Y-52000000D02*
X124000000Y-54440000D01*
X124000000Y-54440000D02*
X124000000Y-63750000D01*
X125250000Y-69750000D02*
X127250000Y-71750000D01*
X123750000Y-69750000D02*
X125250000Y-69750000D01*
X122250000Y-68250000D02*
X123750000Y-69750000D01*
X129750000Y-60500000D02*
X136250000Y-60500000D01*
X136250000Y-60500000D02*
X137000000Y-61250000D01*
X137750000Y-59500000D02*
X138000000Y-59750000D01*
X130750000Y-59500000D02*
X137750000Y-59500000D01*
X131750000Y-58500000D02*
X139000000Y-58500000D01*
X152250000Y-74250000D02*
X152250000Y-74250000D01*
X152250000Y-74250000D02*
X152250000Y-74250000D01*
X154750000Y-82500000D02*
X154184315Y-82500000D01*
X152250000Y-82750000D02*
X152250000Y-74250000D01*
X154184315Y-82500000D02*
X153684315Y-83000000D01*
X153684315Y-83000000D02*
X152500000Y-83000000D01*
X152500000Y-83000000D02*
X152250000Y-82750000D01*
X153750000Y-74000000D02*
X153750000Y-74000000D01*
X152700010Y-80700010D02*
X153750000Y-81750000D01*
X152700010Y-75049990D02*
X153750000Y-74000000D01*
X156920000Y-64580000D02*
X156920000Y-51750000D01*
X152700010Y-80700010D02*
X152700010Y-75049990D01*
X156250000Y-65250000D02*
X156920000Y-64580000D01*
X159460000Y-55460000D02*
X159460000Y-51750000D01*
X161250000Y-69934315D02*
X160585001Y-69269316D01*
X161250000Y-70500000D02*
X161250000Y-69934315D01*
X160585001Y-69269316D02*
X160585001Y-56585001D01*
X160585001Y-56585001D02*
X159460000Y-55460000D01*
X160655000Y-73152000D02*
X160655000Y-73152000D01*
X159500000Y-69570000D02*
X159500000Y-70473000D01*
X160528000Y-71501000D02*
X160655000Y-71628000D01*
X159500000Y-70473000D02*
X160528000Y-71501000D01*
X160655000Y-71628000D02*
X160655000Y-73152000D01*
X156920000Y-66990000D02*
X159500000Y-69570000D01*
X147015200Y-99618800D02*
X147015200Y-99618800D01*
X149299990Y-97334010D02*
X149299990Y-90476410D01*
X150714999Y-68172781D02*
X150714999Y-64785001D01*
X154380000Y-61120000D02*
X154380000Y-52000000D01*
X148037751Y-70850029D02*
X150714999Y-68172781D01*
X146880011Y-73119989D02*
X148037751Y-71962249D01*
X150714999Y-64785001D02*
X154380000Y-61120000D01*
X143754860Y-73200010D02*
X143766790Y-73200010D01*
X141304806Y-73900064D02*
X143054806Y-73900064D01*
X143054806Y-73900064D02*
X143754860Y-73200010D01*
X147015200Y-99618800D02*
X149299990Y-97334010D01*
X140650070Y-74554800D02*
X141304806Y-73900064D01*
X142901410Y-89615028D02*
X140650069Y-87363689D01*
X143766790Y-73200010D02*
X143846811Y-73119989D01*
X140650069Y-87363689D02*
X140650070Y-74554800D01*
X148438608Y-89615028D02*
X142901410Y-89615028D01*
X148037751Y-71962249D02*
X148037751Y-70850029D01*
X143846811Y-73119989D02*
X146880011Y-73119989D01*
X149299990Y-90476410D02*
X148438608Y-89615028D01*
X151920000Y-60580000D02*
X148254999Y-64245001D01*
X137750000Y-96590400D02*
X137750000Y-98000000D01*
X151920000Y-52500000D02*
X151920000Y-60580000D01*
X148254999Y-68995001D02*
X147299990Y-69950010D01*
X143822810Y-69950010D02*
X142122801Y-71650019D01*
X138400020Y-73622800D02*
X138400019Y-95940381D01*
X142122801Y-71650019D02*
X140372800Y-71650020D01*
X140372800Y-71650020D02*
X138400020Y-73622800D01*
X148254999Y-64245001D02*
X148254999Y-68995001D01*
X138400019Y-95940381D02*
X137750000Y-96590400D01*
X147299990Y-69950010D02*
X143822810Y-69950010D01*
X149380000Y-52500000D02*
X149380000Y-60370000D01*
X140186400Y-71200010D02*
X137950010Y-73436400D01*
X137950010Y-95729990D02*
X136750000Y-96930000D01*
X145500000Y-69000000D02*
X145000000Y-69500000D01*
X145500000Y-64250000D02*
X145500000Y-69000000D01*
X143636410Y-69500000D02*
X141936400Y-71200010D01*
X136750000Y-96930000D02*
X136750000Y-98000000D01*
X141936400Y-71200010D02*
X140186400Y-71200010D01*
X137950010Y-73436400D02*
X137950010Y-95729990D01*
X149380000Y-60370000D02*
X145500000Y-64250000D01*
X145000000Y-69500000D02*
X143636410Y-69500000D01*
X146840000Y-52500000D02*
X146840000Y-60410000D01*
X135750000Y-97293590D02*
X135750000Y-98000000D01*
X141750000Y-70750000D02*
X140000000Y-70750000D01*
X137500000Y-73250000D02*
X137499999Y-95543591D01*
X137499999Y-95543591D02*
X135750000Y-97293590D01*
X143174999Y-69325001D02*
X141750000Y-70750000D01*
X140000000Y-70750000D02*
X137500000Y-73250000D01*
X143174999Y-64075001D02*
X143174999Y-69325001D01*
X146840000Y-60410000D02*
X143174999Y-64075001D01*
X140250000Y-69863590D02*
X137049991Y-73063599D01*
X135582380Y-96824800D02*
X135128000Y-96824800D01*
X144300000Y-52500000D02*
X144300000Y-60200000D01*
X134750000Y-97202800D02*
X134750000Y-98000000D01*
X140250000Y-67545002D02*
X140250000Y-69863590D01*
X140265001Y-64234999D02*
X140265001Y-67530001D01*
X140265001Y-67530001D02*
X140250000Y-67545002D01*
X137049990Y-95357190D02*
X135582380Y-96824800D01*
X144300000Y-60200000D02*
X140265001Y-64234999D01*
X137049991Y-73063599D02*
X137049990Y-95357190D01*
X135128000Y-96824800D02*
X134750000Y-97202800D01*
X133750000Y-96932800D02*
X133750000Y-98000000D01*
X141760000Y-52500000D02*
X141760000Y-60240000D01*
X136599982Y-70054418D02*
X136599981Y-95170789D01*
X141760000Y-60240000D02*
X138000000Y-64000000D01*
X134308010Y-96374790D02*
X133750000Y-96932800D01*
X138000000Y-68654400D02*
X136599982Y-70054418D01*
X135395980Y-96374790D02*
X134308010Y-96374790D01*
X136599981Y-95170789D02*
X135395980Y-96374790D01*
X138000000Y-64000000D02*
X138000000Y-68654400D01*
X145000000Y-71750000D02*
X145000000Y-71750000D01*
X139750050Y-74182000D02*
X139750050Y-95885660D01*
X145000000Y-71750000D02*
X143932050Y-71750000D01*
X139750050Y-95885660D02*
X140750000Y-96885610D01*
X142682004Y-73000046D02*
X140932004Y-73000046D01*
X143932050Y-71750000D02*
X142682004Y-73000046D01*
X140932004Y-73000046D02*
X139750050Y-74182000D01*
X140750000Y-96885610D02*
X140750000Y-98000000D01*
X139140000Y-52000000D02*
X139140000Y-53390000D01*
X139750000Y-54000000D02*
X140750000Y-54000000D01*
X136149973Y-69649973D02*
X136149972Y-94984388D01*
X135250000Y-68750000D02*
X136149973Y-69649973D01*
X141309990Y-54559990D02*
X141309990Y-60053600D01*
X139140000Y-53390000D02*
X139750000Y-54000000D01*
X132750000Y-96815200D02*
X132750000Y-98000000D01*
X135209580Y-95924780D02*
X133640420Y-95924780D01*
X136149972Y-94984388D02*
X135209580Y-95924780D01*
X140750000Y-54000000D02*
X141309990Y-54559990D01*
X135250000Y-66113590D02*
X135250000Y-68750000D01*
X141309990Y-60053600D02*
X135250000Y-66113590D01*
X133640420Y-95924780D02*
X132750000Y-96815200D01*
X124409200Y-99720400D02*
X124409200Y-96009200D01*
X124409200Y-96009200D02*
X122500000Y-94100000D01*
X128755019Y-64118609D02*
X130386410Y-65750000D01*
X130386410Y-65750000D02*
X132250000Y-65750000D01*
X133454019Y-95474771D02*
X131750000Y-97178790D01*
X135004830Y-95474770D02*
X133454019Y-95474771D01*
X135699963Y-69836374D02*
X135699962Y-94779638D01*
X132250000Y-65750000D02*
X132750000Y-66250000D01*
X135549990Y-54700010D02*
X131224180Y-54700010D01*
X136600000Y-52000000D02*
X136600000Y-53650000D01*
X128755019Y-57169171D02*
X128755019Y-64118609D01*
X132750000Y-66250000D02*
X132750000Y-67726000D01*
X132750000Y-67726000D02*
X133604000Y-68580000D01*
X131750000Y-97434315D02*
X131750000Y-98000000D01*
X131224180Y-54700010D02*
X128755019Y-57169171D01*
X133604000Y-68580000D02*
X134443590Y-68580000D01*
X136600000Y-53650000D02*
X135549990Y-54700010D01*
X131750000Y-97178790D02*
X131750000Y-97434315D01*
X131750000Y-97797905D02*
X131750000Y-98000000D01*
X134443590Y-68580000D02*
X135699963Y-69836374D01*
X135699962Y-94779638D02*
X135004830Y-95474770D01*
X145923000Y-72263000D02*
X145923000Y-72263000D01*
X140200060Y-77250000D02*
X140200060Y-74368400D01*
X140200060Y-80500000D02*
X140200060Y-77250000D01*
X141750000Y-97249200D02*
X140200059Y-95699259D01*
X140200059Y-95699259D02*
X140200059Y-85550451D01*
X143648481Y-72669979D02*
X145516021Y-72669979D01*
X142868405Y-73450055D02*
X143568460Y-72750000D01*
X140200060Y-81372800D02*
X140200060Y-80500000D01*
X140200059Y-85550451D02*
X140200059Y-85368400D01*
X140200060Y-85368400D02*
X140200060Y-81372800D01*
X140200060Y-74368400D02*
X141118404Y-73450056D01*
X141118404Y-73450056D02*
X142868405Y-73450055D01*
X141750000Y-98000000D02*
X141750000Y-97249200D01*
X145516021Y-72669979D02*
X145923000Y-72263000D01*
X143568460Y-72750000D02*
X143648481Y-72669979D01*
X130750000Y-97088000D02*
X130750000Y-98000000D01*
X130530010Y-69030010D02*
X134257190Y-69030010D01*
X131494390Y-96797990D02*
X131040010Y-96797990D01*
X133267618Y-95024762D02*
X131494390Y-96797990D01*
X134818428Y-95024762D02*
X133267618Y-95024762D01*
X134257190Y-69030010D02*
X135249953Y-70022773D01*
X135249953Y-94593237D02*
X134818428Y-95024762D01*
X133500000Y-54250000D02*
X131037780Y-54250000D01*
X135249953Y-70022773D02*
X135249953Y-94593237D01*
X131040010Y-96797990D02*
X130750000Y-97088000D01*
X128305009Y-56982771D02*
X128305009Y-64305009D01*
X130250000Y-68750000D02*
X130530010Y-69030010D01*
X128305009Y-64305009D02*
X130250000Y-66250000D01*
X131037780Y-54250000D02*
X128305009Y-56982771D01*
X130250000Y-66250000D02*
X130250000Y-68750000D01*
X134060000Y-53690000D02*
X133500000Y-54250000D01*
X134060000Y-52000000D02*
X134060000Y-53690000D01*
X146750000Y-71500000D02*
X146750000Y-71500000D01*
X139750000Y-98000000D02*
X139750000Y-96522020D01*
X139750000Y-96522020D02*
X139300041Y-96072061D01*
X139750000Y-97863590D02*
X139750000Y-98000000D01*
X139300041Y-85177653D02*
X139300039Y-85177651D01*
X142495603Y-72550037D02*
X140745602Y-72550038D01*
X144195610Y-70850030D02*
X142495603Y-72550037D01*
X146100030Y-70850030D02*
X144195610Y-70850030D01*
X146750000Y-71500000D02*
X146100030Y-70850030D01*
X139300040Y-73995600D02*
X139300039Y-85177651D01*
X140745602Y-72550038D02*
X139300040Y-73995600D01*
X139300041Y-96072061D02*
X139300041Y-85177653D01*
X140559202Y-72100028D02*
X138850030Y-73809200D01*
X149380000Y-67740000D02*
X149380000Y-68871370D01*
X147851350Y-70400020D02*
X144009210Y-70400020D01*
X138750000Y-96250800D02*
X138750000Y-98000000D01*
X149380000Y-68871370D02*
X147851350Y-70400020D01*
X138850030Y-96150770D02*
X138750000Y-96250800D01*
X144009210Y-70400020D02*
X142309202Y-72100028D01*
X142309202Y-72100028D02*
X140559202Y-72100028D01*
X138850030Y-73809200D02*
X138850030Y-96150770D01*
X132750000Y-57000000D02*
X139500000Y-57000000D01*
X139750000Y-55500000D02*
X133500000Y-55500000D01*
X144000000Y-74250000D02*
X144000000Y-74250000D01*
X147193000Y-79375000D02*
X147193000Y-79375000D01*
X143899926Y-74350074D02*
X144000000Y-74250000D01*
X149750000Y-90290010D02*
X148625010Y-89165020D01*
X151500000Y-99184315D02*
X151500000Y-100400000D01*
X151500000Y-99184315D02*
X149750000Y-97434315D01*
X147410001Y-79157999D02*
X147193000Y-79375000D01*
X148625010Y-89165020D02*
X143087809Y-89165019D01*
X141100080Y-85741200D02*
X141100080Y-74741200D01*
X144786997Y-73850001D02*
X145066999Y-73569999D01*
X141100078Y-87177288D02*
X141100078Y-85741202D01*
X149750000Y-97434315D02*
X149750000Y-90290010D01*
X151500000Y-100400000D02*
X151500000Y-100450000D01*
X141100080Y-74741200D02*
X141491206Y-74350074D01*
X141100078Y-85741202D02*
X141100080Y-85741200D01*
X144399999Y-73850001D02*
X144786997Y-73850001D01*
X147410001Y-73946999D02*
X147410001Y-79157999D01*
X145066999Y-73569999D02*
X147033001Y-73569999D01*
X141491206Y-74350074D02*
X143899926Y-74350074D01*
X147033001Y-73569999D02*
X147410001Y-73946999D01*
X143087809Y-89165019D02*
X141100078Y-87177288D01*
X144000000Y-74250000D02*
X144399999Y-73850001D01*
G04 #@! TA.AperFunction,Conductor*
G36*
X164684121Y-49528002D02*
G01*
X164730614Y-49581658D01*
X164742000Y-49634000D01*
X164742000Y-51446794D01*
X164740254Y-51467698D01*
X164736929Y-51487462D01*
X164736776Y-51500001D01*
X164737465Y-51504808D01*
X164737465Y-51504815D01*
X164739815Y-51521220D01*
X164740609Y-51528102D01*
X164749521Y-51629964D01*
X164750000Y-51640946D01*
X164750000Y-52500000D01*
X165609053Y-52500000D01*
X165620035Y-52500480D01*
X165703768Y-52507806D01*
X165713691Y-52509072D01*
X165732667Y-52512265D01*
X165732672Y-52512265D01*
X165737460Y-52513071D01*
X165743759Y-52513148D01*
X165745140Y-52513165D01*
X165745144Y-52513165D01*
X165749999Y-52513224D01*
X165777587Y-52509273D01*
X165795450Y-52508000D01*
X169616000Y-52508000D01*
X169684121Y-52528002D01*
X169730614Y-52581658D01*
X169742000Y-52634000D01*
X169742000Y-100366000D01*
X169721998Y-100434121D01*
X169668342Y-100480614D01*
X169616000Y-100492000D01*
X169508702Y-100492000D01*
X169507932Y-100491998D01*
X169507078Y-100491993D01*
X169430348Y-100491524D01*
X169421721Y-100493990D01*
X169421719Y-100493990D01*
X169417665Y-100495149D01*
X169383039Y-100500000D01*
X169000000Y-100500000D01*
X169000000Y-100824000D01*
X168979998Y-100892121D01*
X168926342Y-100938614D01*
X168874000Y-100950000D01*
X152448346Y-100950000D01*
X152380225Y-100929998D01*
X152333732Y-100876342D01*
X152323628Y-100806068D01*
X152332642Y-100774820D01*
X152334527Y-100771556D01*
X152351855Y-100718228D01*
X152391502Y-100596206D01*
X152393542Y-100589928D01*
X152398659Y-100541248D01*
X152412814Y-100406565D01*
X152413504Y-100400000D01*
X152409942Y-100366109D01*
X152394232Y-100216635D01*
X152394232Y-100216633D01*
X152393542Y-100210072D01*
X152334527Y-100028444D01*
X152308908Y-99984071D01*
X152273361Y-99922501D01*
X152256623Y-99853505D01*
X152279844Y-99786414D01*
X152335651Y-99742527D01*
X152382480Y-99733501D01*
X164029072Y-99733501D01*
X164097193Y-99753503D01*
X164143686Y-99807159D01*
X164148905Y-99820564D01*
X164165473Y-99871556D01*
X164260960Y-100036944D01*
X164265378Y-100041851D01*
X164265379Y-100041852D01*
X164372347Y-100160652D01*
X164388747Y-100178866D01*
X164543248Y-100291118D01*
X164549276Y-100293802D01*
X164549278Y-100293803D01*
X164711681Y-100366109D01*
X164717712Y-100368794D01*
X164811113Y-100388647D01*
X164898056Y-100407128D01*
X164898061Y-100407128D01*
X164904513Y-100408500D01*
X165095487Y-100408500D01*
X165101939Y-100407128D01*
X165101944Y-100407128D01*
X165188887Y-100388647D01*
X165282288Y-100368794D01*
X165288319Y-100366109D01*
X165450722Y-100293803D01*
X165450724Y-100293802D01*
X165456752Y-100291118D01*
X165611253Y-100178866D01*
X165627653Y-100160652D01*
X165734621Y-100041852D01*
X165734622Y-100041851D01*
X165739040Y-100036944D01*
X165834527Y-99871556D01*
X165893542Y-99689928D01*
X165913504Y-99500000D01*
X165893542Y-99310072D01*
X165834527Y-99128444D01*
X165819368Y-99102187D01*
X165751744Y-98985060D01*
X165739040Y-98963056D01*
X165663006Y-98878611D01*
X165615675Y-98826045D01*
X165615674Y-98826044D01*
X165611253Y-98821134D01*
X165456752Y-98708882D01*
X165450724Y-98706198D01*
X165450722Y-98706197D01*
X165288319Y-98633891D01*
X165288318Y-98633891D01*
X165282288Y-98631206D01*
X165188888Y-98611353D01*
X165101944Y-98592872D01*
X165101939Y-98592872D01*
X165095487Y-98591500D01*
X165022381Y-98591500D01*
X164961670Y-98575909D01*
X164957560Y-98573649D01*
X164941048Y-98562802D01*
X164940584Y-98562442D01*
X164925042Y-98550387D01*
X164917773Y-98547242D01*
X164917769Y-98547239D01*
X164884464Y-98532827D01*
X164873814Y-98527610D01*
X164835061Y-98506306D01*
X164815438Y-98501268D01*
X164796735Y-98494864D01*
X164785421Y-98489968D01*
X164785420Y-98489968D01*
X164778146Y-98486820D01*
X164770323Y-98485581D01*
X164770313Y-98485578D01*
X164734477Y-98479902D01*
X164722857Y-98477496D01*
X164687712Y-98468473D01*
X164687711Y-98468473D01*
X164680031Y-98466501D01*
X164659777Y-98466501D01*
X164640066Y-98464950D01*
X164627887Y-98463021D01*
X164620058Y-98461781D01*
X164612166Y-98462527D01*
X164576040Y-98465942D01*
X164564182Y-98466501D01*
X152414595Y-98466501D01*
X152346474Y-98446499D01*
X152325500Y-98429596D01*
X150870415Y-96974510D01*
X150836389Y-96912198D01*
X150833510Y-96885415D01*
X150833509Y-90830400D01*
X153366096Y-90830400D01*
X153366786Y-90836965D01*
X153377859Y-90942315D01*
X153386058Y-91020328D01*
X153445073Y-91201956D01*
X153448376Y-91207678D01*
X153448377Y-91207679D01*
X153480043Y-91262526D01*
X153540560Y-91367344D01*
X153613737Y-91448615D01*
X153644453Y-91512621D01*
X153646100Y-91532924D01*
X153646100Y-92326433D01*
X153645573Y-92337616D01*
X153643898Y-92345109D01*
X153644147Y-92353035D01*
X153644147Y-92353036D01*
X153646038Y-92413186D01*
X153646100Y-92417145D01*
X153646100Y-92445056D01*
X153646597Y-92448990D01*
X153646597Y-92448991D01*
X153646605Y-92449056D01*
X153647538Y-92460893D01*
X153648927Y-92505089D01*
X153654578Y-92524539D01*
X153658587Y-92543900D01*
X153661126Y-92563997D01*
X153664045Y-92571368D01*
X153664045Y-92571370D01*
X153677404Y-92605112D01*
X153681249Y-92616342D01*
X153693582Y-92658793D01*
X153697615Y-92665612D01*
X153697617Y-92665617D01*
X153703893Y-92676228D01*
X153712588Y-92693976D01*
X153720048Y-92712817D01*
X153724710Y-92719233D01*
X153724710Y-92719234D01*
X153746036Y-92748587D01*
X153752552Y-92758507D01*
X153775058Y-92796562D01*
X153789379Y-92810883D01*
X153802219Y-92825916D01*
X153814128Y-92842307D01*
X153820234Y-92847358D01*
X153848205Y-92870498D01*
X153856984Y-92878488D01*
X154370743Y-93392247D01*
X154378287Y-93400537D01*
X154382400Y-93407018D01*
X154388177Y-93412443D01*
X154432067Y-93453658D01*
X154434909Y-93456413D01*
X154454630Y-93476134D01*
X154457825Y-93478612D01*
X154466847Y-93486318D01*
X154499079Y-93516586D01*
X154506028Y-93520406D01*
X154516832Y-93526346D01*
X154533356Y-93537199D01*
X154549359Y-93549613D01*
X154589943Y-93567176D01*
X154600573Y-93572383D01*
X154639340Y-93593695D01*
X154647017Y-93595666D01*
X154647022Y-93595668D01*
X154658958Y-93598732D01*
X154677666Y-93605137D01*
X154696255Y-93613181D01*
X154704083Y-93614421D01*
X154704090Y-93614423D01*
X154739924Y-93620099D01*
X154751544Y-93622505D01*
X154786689Y-93631528D01*
X154794370Y-93633500D01*
X154814624Y-93633500D01*
X154834334Y-93635051D01*
X154854343Y-93638220D01*
X154862235Y-93637474D01*
X154898361Y-93634059D01*
X154910219Y-93633500D01*
X157541800Y-93633500D01*
X157609921Y-93653502D01*
X157629147Y-93669843D01*
X157629420Y-93669540D01*
X157634332Y-93673963D01*
X157638747Y-93678866D01*
X157660329Y-93694546D01*
X157715636Y-93734729D01*
X157793248Y-93791118D01*
X157799276Y-93793802D01*
X157799278Y-93793803D01*
X157847454Y-93815252D01*
X157967712Y-93868794D01*
X158061113Y-93888647D01*
X158148056Y-93907128D01*
X158148061Y-93907128D01*
X158154513Y-93908500D01*
X158345487Y-93908500D01*
X158351939Y-93907128D01*
X158351944Y-93907128D01*
X158438887Y-93888647D01*
X158532288Y-93868794D01*
X158652546Y-93815252D01*
X158700722Y-93793803D01*
X158700724Y-93793802D01*
X158706752Y-93791118D01*
X158861253Y-93678866D01*
X158897851Y-93638220D01*
X158984621Y-93541852D01*
X158984622Y-93541851D01*
X158989040Y-93536944D01*
X159063197Y-93408500D01*
X159081223Y-93377279D01*
X159081224Y-93377278D01*
X159084527Y-93371556D01*
X159143542Y-93189928D01*
X159163504Y-93000000D01*
X159145609Y-92829736D01*
X159144232Y-92816635D01*
X159144232Y-92816633D01*
X159143542Y-92810072D01*
X159084527Y-92628444D01*
X158989040Y-92463056D01*
X158981751Y-92454960D01*
X158865675Y-92326045D01*
X158865674Y-92326044D01*
X158861253Y-92321134D01*
X158706752Y-92208882D01*
X158700724Y-92206198D01*
X158700722Y-92206197D01*
X158538319Y-92133891D01*
X158538318Y-92133891D01*
X158532288Y-92131206D01*
X158423052Y-92107987D01*
X158351944Y-92092872D01*
X158351939Y-92092872D01*
X158345487Y-92091500D01*
X158154513Y-92091500D01*
X158148061Y-92092872D01*
X158148056Y-92092872D01*
X158076948Y-92107987D01*
X157967712Y-92131206D01*
X157961682Y-92133891D01*
X157961681Y-92133891D01*
X157799278Y-92206197D01*
X157799276Y-92206198D01*
X157793248Y-92208882D01*
X157638747Y-92321134D01*
X157634332Y-92326037D01*
X157629420Y-92330460D01*
X157628295Y-92329211D01*
X157574986Y-92362051D01*
X157541800Y-92366500D01*
X155188995Y-92366500D01*
X155120874Y-92346498D01*
X155099900Y-92329595D01*
X154950005Y-92179700D01*
X154915979Y-92117388D01*
X154913100Y-92090605D01*
X154913100Y-91532924D01*
X154933102Y-91464803D01*
X154945458Y-91448621D01*
X155018640Y-91367344D01*
X155079157Y-91262526D01*
X155110823Y-91207679D01*
X155110824Y-91207678D01*
X155114127Y-91201956D01*
X155173142Y-91020328D01*
X155181342Y-90942315D01*
X155192414Y-90836965D01*
X155193104Y-90830400D01*
X155183478Y-90738815D01*
X155173832Y-90647035D01*
X155173832Y-90647033D01*
X155173142Y-90640472D01*
X155114127Y-90458844D01*
X155018640Y-90293456D01*
X154959892Y-90228209D01*
X154895275Y-90156445D01*
X154895274Y-90156444D01*
X154890853Y-90151534D01*
X154764542Y-90059763D01*
X154741694Y-90043163D01*
X154741693Y-90043162D01*
X154736352Y-90039282D01*
X154730324Y-90036598D01*
X154730322Y-90036597D01*
X154567919Y-89964291D01*
X154567918Y-89964291D01*
X154561888Y-89961606D01*
X154448197Y-89937440D01*
X154381544Y-89923272D01*
X154381539Y-89923272D01*
X154375087Y-89921900D01*
X154184113Y-89921900D01*
X154177661Y-89923272D01*
X154177656Y-89923272D01*
X154111003Y-89937440D01*
X153997312Y-89961606D01*
X153991282Y-89964291D01*
X153991281Y-89964291D01*
X153828878Y-90036597D01*
X153828876Y-90036598D01*
X153822848Y-90039282D01*
X153817507Y-90043162D01*
X153817506Y-90043163D01*
X153794658Y-90059763D01*
X153668347Y-90151534D01*
X153663926Y-90156444D01*
X153663925Y-90156445D01*
X153599309Y-90228209D01*
X153540560Y-90293456D01*
X153445073Y-90458844D01*
X153386058Y-90640472D01*
X153385368Y-90647033D01*
X153385368Y-90647035D01*
X153375722Y-90738815D01*
X153366096Y-90830400D01*
X150833509Y-90830400D01*
X150833509Y-90182377D01*
X150834036Y-90171194D01*
X150835711Y-90163701D01*
X150835351Y-90152230D01*
X150833571Y-90095611D01*
X150833509Y-90091653D01*
X150833509Y-90063753D01*
X150833005Y-90059762D01*
X150832072Y-90047920D01*
X150831430Y-90027472D01*
X150830683Y-90003720D01*
X150825030Y-89984261D01*
X150821021Y-89964902D01*
X150820855Y-89963592D01*
X150818483Y-89944812D01*
X150815567Y-89937446D01*
X150815565Y-89937440D01*
X150802209Y-89903707D01*
X150798364Y-89892477D01*
X150788239Y-89857626D01*
X150788239Y-89857625D01*
X150786028Y-89850016D01*
X150775714Y-89832575D01*
X150767017Y-89814822D01*
X150762481Y-89803367D01*
X150759561Y-89795992D01*
X150733572Y-89760221D01*
X150727056Y-89750301D01*
X150715763Y-89731206D01*
X150704551Y-89712247D01*
X150690230Y-89697926D01*
X150677389Y-89682892D01*
X150670140Y-89672915D01*
X150665481Y-89666502D01*
X150631404Y-89638311D01*
X150622625Y-89630321D01*
X149315062Y-88322757D01*
X149307522Y-88314471D01*
X149303410Y-88307992D01*
X149253758Y-88261366D01*
X149250917Y-88258612D01*
X149231180Y-88238875D01*
X149227983Y-88236395D01*
X149218961Y-88228690D01*
X149192510Y-88203851D01*
X149186731Y-88198424D01*
X149179785Y-88194605D01*
X149179782Y-88194603D01*
X149168976Y-88188662D01*
X149152457Y-88177811D01*
X149151993Y-88177451D01*
X149136451Y-88165396D01*
X149129182Y-88162251D01*
X149129178Y-88162248D01*
X149095873Y-88147836D01*
X149085223Y-88142619D01*
X149046470Y-88121315D01*
X149026847Y-88116277D01*
X149008144Y-88109873D01*
X148996830Y-88104977D01*
X148996829Y-88104977D01*
X148989555Y-88101829D01*
X148981732Y-88100590D01*
X148981722Y-88100587D01*
X148945886Y-88094911D01*
X148934266Y-88092505D01*
X148899121Y-88083482D01*
X148899120Y-88083482D01*
X148891440Y-88081510D01*
X148871186Y-88081510D01*
X148851475Y-88079959D01*
X148839296Y-88078030D01*
X148831467Y-88076790D01*
X148823575Y-88077536D01*
X148787449Y-88080951D01*
X148775591Y-88081510D01*
X144147305Y-88081510D01*
X144079184Y-88061508D01*
X144032691Y-88007852D01*
X144022587Y-87937578D01*
X144052081Y-87872998D01*
X144096056Y-87840403D01*
X144200722Y-87793803D01*
X144200724Y-87793802D01*
X144206752Y-87791118D01*
X144361253Y-87678866D01*
X144415342Y-87618794D01*
X144484621Y-87541852D01*
X144484622Y-87541851D01*
X144489040Y-87536944D01*
X144584527Y-87371556D01*
X144643542Y-87189928D01*
X144646471Y-87162065D01*
X144662814Y-87006565D01*
X144663504Y-87000000D01*
X144657170Y-86939733D01*
X144644232Y-86816635D01*
X144644232Y-86816633D01*
X144643542Y-86810072D01*
X144584527Y-86628444D01*
X144489040Y-86463056D01*
X144416327Y-86382300D01*
X144385609Y-86318293D01*
X144384025Y-86301947D01*
X144383562Y-86287212D01*
X144383500Y-86283255D01*
X144383500Y-86255344D01*
X144382995Y-86251344D01*
X144382062Y-86239501D01*
X144380922Y-86203230D01*
X144380673Y-86195311D01*
X144375021Y-86175857D01*
X144371013Y-86156500D01*
X144369468Y-86144270D01*
X144369468Y-86144269D01*
X144368474Y-86136403D01*
X144365555Y-86129030D01*
X144352196Y-86095288D01*
X144348351Y-86084058D01*
X144338229Y-86049217D01*
X144338229Y-86049216D01*
X144336018Y-86041607D01*
X144331985Y-86034788D01*
X144331983Y-86034783D01*
X144325707Y-86024172D01*
X144317012Y-86006424D01*
X144309552Y-85987583D01*
X144283564Y-85951813D01*
X144277048Y-85941893D01*
X144258580Y-85910665D01*
X144258578Y-85910662D01*
X144254542Y-85903838D01*
X144240221Y-85889517D01*
X144227380Y-85874483D01*
X144220131Y-85864506D01*
X144215472Y-85858093D01*
X144181395Y-85829902D01*
X144172616Y-85821912D01*
X143120515Y-84769810D01*
X143086489Y-84707498D01*
X143083610Y-84680715D01*
X143083610Y-77067895D01*
X143103612Y-76999774D01*
X143120515Y-76978799D01*
X143667901Y-76431414D01*
X143730213Y-76397389D01*
X143756996Y-76394510D01*
X145140223Y-76394510D01*
X145151406Y-76395037D01*
X145158899Y-76396712D01*
X145166825Y-76396463D01*
X145166826Y-76396463D01*
X145226976Y-76394572D01*
X145230935Y-76394510D01*
X145258846Y-76394510D01*
X145262781Y-76394013D01*
X145262846Y-76394005D01*
X145274683Y-76393072D01*
X145306941Y-76392058D01*
X145310960Y-76391932D01*
X145318879Y-76391683D01*
X145338333Y-76386031D01*
X145357690Y-76382023D01*
X145369920Y-76380478D01*
X145369921Y-76380478D01*
X145377787Y-76379484D01*
X145385158Y-76376565D01*
X145385160Y-76376565D01*
X145418902Y-76363206D01*
X145430132Y-76359361D01*
X145464973Y-76349239D01*
X145464974Y-76349239D01*
X145472583Y-76347028D01*
X145479402Y-76342995D01*
X145479407Y-76342993D01*
X145490018Y-76336717D01*
X145507766Y-76328022D01*
X145526607Y-76320562D01*
X145562377Y-76294574D01*
X145572297Y-76288058D01*
X145603525Y-76269590D01*
X145603528Y-76269588D01*
X145610352Y-76265552D01*
X145624673Y-76251231D01*
X145639707Y-76238390D01*
X145649684Y-76231141D01*
X145656097Y-76226482D01*
X145684288Y-76192405D01*
X145692278Y-76183626D01*
X146561406Y-75314498D01*
X146623718Y-75280472D01*
X146694533Y-75285537D01*
X146751369Y-75328084D01*
X146776180Y-75394604D01*
X146776501Y-75403593D01*
X146776501Y-78490436D01*
X146756499Y-78558557D01*
X146724562Y-78592372D01*
X146653688Y-78643865D01*
X146581747Y-78696134D01*
X146453960Y-78838056D01*
X146358473Y-79003444D01*
X146299458Y-79185072D01*
X146279496Y-79375000D01*
X146299458Y-79564928D01*
X146358473Y-79746556D01*
X146453960Y-79911944D01*
X146581747Y-80053866D01*
X146736248Y-80166118D01*
X146742276Y-80168802D01*
X146742278Y-80168803D01*
X146904681Y-80241109D01*
X146910712Y-80243794D01*
X147004113Y-80263647D01*
X147091056Y-80282128D01*
X147091061Y-80282128D01*
X147097513Y-80283500D01*
X147288487Y-80283500D01*
X147294939Y-80282128D01*
X147294944Y-80282128D01*
X147381887Y-80263647D01*
X147475288Y-80243794D01*
X147481319Y-80241109D01*
X147643722Y-80168803D01*
X147643724Y-80168802D01*
X147649752Y-80166118D01*
X147804253Y-80053866D01*
X147932040Y-79911944D01*
X148027527Y-79746556D01*
X148086542Y-79564928D01*
X148106504Y-79375000D01*
X148086542Y-79185072D01*
X148049668Y-79071587D01*
X148043501Y-79032650D01*
X148043501Y-74025767D01*
X148044028Y-74014584D01*
X148045703Y-74007091D01*
X148043563Y-73939000D01*
X148043501Y-73935043D01*
X148043501Y-73907143D01*
X148042997Y-73903152D01*
X148042064Y-73891310D01*
X148041357Y-73868794D01*
X148040675Y-73847110D01*
X148035022Y-73827651D01*
X148031013Y-73808292D01*
X148029768Y-73798438D01*
X148028475Y-73788202D01*
X148025559Y-73780836D01*
X148025557Y-73780830D01*
X148012201Y-73747097D01*
X148008356Y-73735867D01*
X147998231Y-73701016D01*
X147998231Y-73701015D01*
X147996020Y-73693406D01*
X147989715Y-73682745D01*
X147985706Y-73675965D01*
X147977009Y-73658212D01*
X147972473Y-73646757D01*
X147969553Y-73639382D01*
X147943564Y-73603611D01*
X147937048Y-73593691D01*
X147919219Y-73563544D01*
X147914543Y-73555637D01*
X147908939Y-73550032D01*
X147900221Y-73541314D01*
X147887380Y-73526280D01*
X147880132Y-73516304D01*
X147880131Y-73516303D01*
X147875473Y-73509892D01*
X147841402Y-73481706D01*
X147832623Y-73473717D01*
X147716500Y-73357594D01*
X147682474Y-73295282D01*
X147687539Y-73224467D01*
X147716500Y-73179404D01*
X148429998Y-72465906D01*
X148438288Y-72458362D01*
X148444769Y-72454249D01*
X148491410Y-72404581D01*
X148494164Y-72401740D01*
X148513886Y-72382018D01*
X148516363Y-72378825D01*
X148524068Y-72369804D01*
X148548910Y-72343349D01*
X148554337Y-72337570D01*
X148558158Y-72330620D01*
X148564097Y-72319817D01*
X148574953Y-72303290D01*
X148582508Y-72293551D01*
X148582509Y-72293549D01*
X148587365Y-72287289D01*
X148604925Y-72246709D01*
X148610142Y-72236061D01*
X148627626Y-72204258D01*
X148627627Y-72204256D01*
X148631446Y-72197309D01*
X148636484Y-72177686D01*
X148642888Y-72158983D01*
X148647784Y-72147669D01*
X148647784Y-72147668D01*
X148650932Y-72140394D01*
X148652171Y-72132571D01*
X148652174Y-72132561D01*
X148657850Y-72096725D01*
X148660256Y-72085105D01*
X148669279Y-72049960D01*
X148669279Y-72049959D01*
X148671251Y-72042279D01*
X148671251Y-72022025D01*
X148672802Y-72002314D01*
X148674731Y-71990135D01*
X148675971Y-71982306D01*
X148671810Y-71938287D01*
X148671251Y-71926430D01*
X148671251Y-71164623D01*
X148691253Y-71096502D01*
X148708156Y-71075528D01*
X151107246Y-68676438D01*
X151115536Y-68668894D01*
X151122017Y-68664781D01*
X151168658Y-68615113D01*
X151171412Y-68612272D01*
X151191133Y-68592551D01*
X151193611Y-68589356D01*
X151201317Y-68580334D01*
X151207194Y-68574076D01*
X151231585Y-68548102D01*
X151241345Y-68530349D01*
X151252198Y-68513826D01*
X151259752Y-68504087D01*
X151264612Y-68497822D01*
X151282175Y-68457238D01*
X151287382Y-68446608D01*
X151308694Y-68407841D01*
X151310665Y-68400164D01*
X151310667Y-68400159D01*
X151313731Y-68388223D01*
X151320137Y-68369511D01*
X151320212Y-68369339D01*
X151324863Y-68358592D01*
X151325034Y-68358197D01*
X151325035Y-68358193D01*
X151328180Y-68350926D01*
X151329419Y-68343100D01*
X151331451Y-68336107D01*
X151369663Y-68276271D01*
X151434159Y-68246593D01*
X151485057Y-68249552D01*
X151611913Y-68283543D01*
X151840000Y-68303498D01*
X151845475Y-68303019D01*
X151845477Y-68303019D01*
X151874023Y-68300522D01*
X151943628Y-68314512D01*
X151994620Y-68363912D01*
X152009122Y-68405388D01*
X152009326Y-68411888D01*
X152014269Y-68428900D01*
X152014977Y-68431338D01*
X152018986Y-68450699D01*
X152021525Y-68470796D01*
X152024444Y-68478167D01*
X152024444Y-68478169D01*
X152037803Y-68511911D01*
X152041648Y-68523141D01*
X152046881Y-68541153D01*
X152053981Y-68565592D01*
X152058014Y-68572411D01*
X152058016Y-68572416D01*
X152064292Y-68583027D01*
X152072987Y-68600775D01*
X152080447Y-68619616D01*
X152085109Y-68626032D01*
X152085109Y-68626033D01*
X152106435Y-68655386D01*
X152112951Y-68665306D01*
X152135457Y-68703361D01*
X152141063Y-68708968D01*
X152149779Y-68717684D01*
X152162620Y-68732718D01*
X152169445Y-68742111D01*
X152174527Y-68749106D01*
X152180634Y-68754158D01*
X152208592Y-68777287D01*
X152217373Y-68785277D01*
X152556754Y-69124659D01*
X152564287Y-69132937D01*
X152568400Y-69139418D01*
X152574179Y-69144845D01*
X152574181Y-69144847D01*
X152618035Y-69186027D01*
X152620879Y-69188783D01*
X152640630Y-69208535D01*
X152643827Y-69211015D01*
X152652847Y-69218718D01*
X152685079Y-69248986D01*
X152692025Y-69252805D01*
X152692028Y-69252807D01*
X152702834Y-69258748D01*
X152719353Y-69269599D01*
X152735359Y-69282014D01*
X152742628Y-69285159D01*
X152742632Y-69285162D01*
X152775937Y-69299574D01*
X152786587Y-69304791D01*
X152825340Y-69326095D01*
X152833015Y-69328066D01*
X152833016Y-69328066D01*
X152844962Y-69331133D01*
X152863667Y-69337537D01*
X152882255Y-69345581D01*
X152890078Y-69346820D01*
X152890088Y-69346823D01*
X152925924Y-69352499D01*
X152937544Y-69354905D01*
X152972689Y-69363928D01*
X152980370Y-69365900D01*
X153000624Y-69365900D01*
X153020334Y-69367451D01*
X153040343Y-69370620D01*
X153048235Y-69369874D01*
X153084361Y-69366459D01*
X153096219Y-69365900D01*
X157711396Y-69365900D01*
X157779517Y-69385902D01*
X157800491Y-69402805D01*
X158379585Y-69981899D01*
X158413611Y-70044211D01*
X158416490Y-70070994D01*
X158416490Y-70580633D01*
X158415963Y-70591816D01*
X158414288Y-70599309D01*
X158414537Y-70607235D01*
X158414537Y-70607236D01*
X158416428Y-70667386D01*
X158416490Y-70671345D01*
X158416490Y-70699256D01*
X158416987Y-70703190D01*
X158416987Y-70703191D01*
X158416995Y-70703256D01*
X158417928Y-70715093D01*
X158419317Y-70759289D01*
X158424968Y-70778739D01*
X158428977Y-70798100D01*
X158430490Y-70810072D01*
X158431516Y-70818197D01*
X158434435Y-70825568D01*
X158434435Y-70825570D01*
X158447794Y-70859312D01*
X158451639Y-70870542D01*
X158463972Y-70912993D01*
X158468005Y-70919812D01*
X158468007Y-70919817D01*
X158474283Y-70930428D01*
X158482978Y-70948176D01*
X158490438Y-70967017D01*
X158495100Y-70973433D01*
X158495100Y-70973434D01*
X158516426Y-71002787D01*
X158522942Y-71012707D01*
X158540179Y-71041852D01*
X158545448Y-71050762D01*
X158559769Y-71065083D01*
X158572609Y-71080116D01*
X158584518Y-71096507D01*
X158616403Y-71122884D01*
X158618583Y-71124688D01*
X158627364Y-71132678D01*
X158968596Y-71473911D01*
X159002621Y-71536223D01*
X159005500Y-71563006D01*
X159005500Y-72036563D01*
X158985498Y-72104684D01*
X158931842Y-72151177D01*
X158861568Y-72161281D01*
X158828251Y-72151670D01*
X158788319Y-72133891D01*
X158788318Y-72133891D01*
X158782288Y-72131206D01*
X158688888Y-72111353D01*
X158601944Y-72092872D01*
X158601939Y-72092872D01*
X158595487Y-72091500D01*
X158404513Y-72091500D01*
X158398061Y-72092872D01*
X158398056Y-72092872D01*
X158311112Y-72111353D01*
X158217712Y-72131206D01*
X158211685Y-72133889D01*
X158211677Y-72133892D01*
X158073606Y-72195365D01*
X158003239Y-72204799D01*
X157938942Y-72174692D01*
X157901129Y-72114603D01*
X157897048Y-72093429D01*
X157894232Y-72066635D01*
X157894232Y-72066633D01*
X157893542Y-72060072D01*
X157834527Y-71878444D01*
X157739040Y-71713056D01*
X157733378Y-71706767D01*
X157615675Y-71576045D01*
X157615674Y-71576044D01*
X157611253Y-71571134D01*
X157470958Y-71469203D01*
X157462094Y-71462763D01*
X157462093Y-71462762D01*
X157456752Y-71458882D01*
X157450724Y-71456198D01*
X157450722Y-71456197D01*
X157288319Y-71383891D01*
X157288318Y-71383891D01*
X157282288Y-71381206D01*
X157188888Y-71361353D01*
X157101944Y-71342872D01*
X157101939Y-71342872D01*
X157095487Y-71341500D01*
X156904513Y-71341500D01*
X156898061Y-71342872D01*
X156898056Y-71342872D01*
X156811112Y-71361353D01*
X156717712Y-71381206D01*
X156711682Y-71383891D01*
X156711681Y-71383891D01*
X156549278Y-71456197D01*
X156549276Y-71456198D01*
X156543248Y-71458882D01*
X156537907Y-71462762D01*
X156537906Y-71462763D01*
X156529042Y-71469203D01*
X156388747Y-71571134D01*
X156384332Y-71576037D01*
X156379420Y-71580460D01*
X156378295Y-71579211D01*
X156324986Y-71612051D01*
X156291800Y-71616500D01*
X151708200Y-71616500D01*
X151640079Y-71596498D01*
X151620853Y-71580157D01*
X151620580Y-71580460D01*
X151615668Y-71576037D01*
X151611253Y-71571134D01*
X151470958Y-71469203D01*
X151462094Y-71462763D01*
X151462093Y-71462762D01*
X151456752Y-71458882D01*
X151450724Y-71456198D01*
X151450722Y-71456197D01*
X151288319Y-71383891D01*
X151288318Y-71383891D01*
X151282288Y-71381206D01*
X151188888Y-71361353D01*
X151101944Y-71342872D01*
X151101939Y-71342872D01*
X151095487Y-71341500D01*
X150904513Y-71341500D01*
X150898061Y-71342872D01*
X150898056Y-71342872D01*
X150811112Y-71361353D01*
X150717712Y-71381206D01*
X150711682Y-71383891D01*
X150711681Y-71383891D01*
X150549278Y-71456197D01*
X150549276Y-71456198D01*
X150543248Y-71458882D01*
X150537907Y-71462762D01*
X150537906Y-71462763D01*
X150529042Y-71469203D01*
X150388747Y-71571134D01*
X150384326Y-71576044D01*
X150384325Y-71576045D01*
X150266623Y-71706767D01*
X150260960Y-71713056D01*
X150165473Y-71878444D01*
X150106458Y-72060072D01*
X150105768Y-72066633D01*
X150105768Y-72066635D01*
X150096831Y-72151670D01*
X150086496Y-72250000D01*
X150106458Y-72439928D01*
X150165473Y-72621556D01*
X150168776Y-72627278D01*
X150168777Y-72627279D01*
X150186803Y-72658500D01*
X150260960Y-72786944D01*
X150265378Y-72791851D01*
X150265379Y-72791852D01*
X150359660Y-72896562D01*
X150388747Y-72928866D01*
X150543248Y-73041118D01*
X150549276Y-73043802D01*
X150549278Y-73043803D01*
X150694144Y-73108301D01*
X150748240Y-73154281D01*
X150768889Y-73222208D01*
X150749537Y-73290516D01*
X150743224Y-73298689D01*
X150743499Y-73298889D01*
X150738841Y-73305300D01*
X150733414Y-73311079D01*
X150729595Y-73318025D01*
X150729593Y-73318028D01*
X150723652Y-73328834D01*
X150712801Y-73345353D01*
X150700386Y-73361359D01*
X150697241Y-73368628D01*
X150697238Y-73368632D01*
X150682826Y-73401937D01*
X150677609Y-73412587D01*
X150656305Y-73451340D01*
X150654334Y-73459015D01*
X150654334Y-73459016D01*
X150651267Y-73470962D01*
X150644863Y-73489666D01*
X150636819Y-73508255D01*
X150635580Y-73516078D01*
X150635577Y-73516088D01*
X150629901Y-73551924D01*
X150627495Y-73563544D01*
X150616500Y-73606370D01*
X150616500Y-73626624D01*
X150614949Y-73646334D01*
X150611780Y-73666343D01*
X150612526Y-73674235D01*
X150615941Y-73710361D01*
X150616500Y-73722219D01*
X150616500Y-74421233D01*
X150615973Y-74432416D01*
X150614298Y-74439909D01*
X150614547Y-74447835D01*
X150614547Y-74447836D01*
X150616438Y-74507986D01*
X150616500Y-74511945D01*
X150616500Y-74539856D01*
X150616997Y-74543790D01*
X150616997Y-74543791D01*
X150617005Y-74543856D01*
X150617938Y-74555693D01*
X150619327Y-74599889D01*
X150624978Y-74619339D01*
X150628987Y-74638700D01*
X150631526Y-74658797D01*
X150634445Y-74666168D01*
X150634445Y-74666170D01*
X150647804Y-74699912D01*
X150651649Y-74711142D01*
X150663982Y-74753593D01*
X150668015Y-74760412D01*
X150668017Y-74760417D01*
X150674293Y-74771028D01*
X150682988Y-74788776D01*
X150690448Y-74807617D01*
X150695110Y-74814033D01*
X150695110Y-74814034D01*
X150716436Y-74843387D01*
X150722952Y-74853307D01*
X150732923Y-74870166D01*
X150745458Y-74891362D01*
X150759779Y-74905683D01*
X150772619Y-74920716D01*
X150784528Y-74937107D01*
X150818605Y-74965298D01*
X150827384Y-74973288D01*
X151129585Y-75275489D01*
X151163611Y-75337801D01*
X151166490Y-75364584D01*
X151166490Y-81885415D01*
X151146488Y-81953536D01*
X151129585Y-81974511D01*
X150774499Y-82329596D01*
X150712187Y-82363621D01*
X150685404Y-82366500D01*
X146078768Y-82366500D01*
X146067585Y-82365973D01*
X146060092Y-82364298D01*
X146052166Y-82364547D01*
X146052165Y-82364547D01*
X145992002Y-82366438D01*
X145988044Y-82366500D01*
X145960144Y-82366500D01*
X145956154Y-82367004D01*
X145944320Y-82367936D01*
X145900111Y-82369326D01*
X145892497Y-82371538D01*
X145892492Y-82371539D01*
X145880659Y-82374977D01*
X145861296Y-82378988D01*
X145841203Y-82381526D01*
X145833836Y-82384443D01*
X145833831Y-82384444D01*
X145800092Y-82397802D01*
X145788865Y-82401646D01*
X145746407Y-82413982D01*
X145739581Y-82418019D01*
X145728972Y-82424293D01*
X145711224Y-82432988D01*
X145692383Y-82440448D01*
X145685967Y-82445110D01*
X145685966Y-82445110D01*
X145656613Y-82466436D01*
X145646693Y-82472952D01*
X145615465Y-82491420D01*
X145615462Y-82491422D01*
X145608638Y-82495458D01*
X145594317Y-82509779D01*
X145579284Y-82522619D01*
X145562893Y-82534528D01*
X145557840Y-82540636D01*
X145557838Y-82540638D01*
X145553557Y-82545813D01*
X145494725Y-82585553D01*
X145456471Y-82591500D01*
X145404513Y-82591500D01*
X145398061Y-82592872D01*
X145398056Y-82592872D01*
X145266734Y-82620786D01*
X145195943Y-82615384D01*
X145146903Y-82581851D01*
X145137253Y-82571134D01*
X144982752Y-82458882D01*
X144976724Y-82456198D01*
X144976722Y-82456197D01*
X144814319Y-82383891D01*
X144814318Y-82383891D01*
X144808288Y-82381206D01*
X144714888Y-82361353D01*
X144627944Y-82342872D01*
X144627939Y-82342872D01*
X144621487Y-82341500D01*
X144430513Y-82341500D01*
X144424061Y-82342872D01*
X144424056Y-82342872D01*
X144337112Y-82361353D01*
X144243712Y-82381206D01*
X144237682Y-82383891D01*
X144237681Y-82383891D01*
X144075278Y-82456197D01*
X144075276Y-82456198D01*
X144069248Y-82458882D01*
X143914747Y-82571134D01*
X143910329Y-82576041D01*
X143910325Y-82576045D01*
X143807785Y-82689928D01*
X143786960Y-82713056D01*
X143691473Y-82878444D01*
X143632458Y-83060072D01*
X143631768Y-83066633D01*
X143631768Y-83066635D01*
X143619972Y-83178866D01*
X143612496Y-83250000D01*
X143613186Y-83256565D01*
X143629011Y-83407128D01*
X143632458Y-83439928D01*
X143691473Y-83621556D01*
X143786960Y-83786944D01*
X143872469Y-83881911D01*
X143899827Y-83931063D01*
X143900977Y-83935021D01*
X143904987Y-83954385D01*
X143907526Y-83974482D01*
X143910445Y-83981853D01*
X143910445Y-83981855D01*
X143923804Y-84015597D01*
X143927649Y-84026827D01*
X143939982Y-84069278D01*
X143944015Y-84076097D01*
X143944017Y-84076102D01*
X143950293Y-84086713D01*
X143958988Y-84104461D01*
X143966448Y-84123302D01*
X143971110Y-84129718D01*
X143971110Y-84129719D01*
X143992436Y-84159072D01*
X143998952Y-84168992D01*
X144007086Y-84182745D01*
X144021458Y-84207047D01*
X144035779Y-84221368D01*
X144048619Y-84236401D01*
X144060528Y-84252792D01*
X144088648Y-84276055D01*
X144094605Y-84280983D01*
X144103384Y-84288973D01*
X144717736Y-84903325D01*
X144728200Y-84915193D01*
X144728621Y-84915736D01*
X144732658Y-84922562D01*
X144746979Y-84936883D01*
X144759819Y-84951916D01*
X144771728Y-84968307D01*
X144777833Y-84973358D01*
X144777838Y-84973363D01*
X144805798Y-84996494D01*
X144814576Y-85004481D01*
X145083461Y-85273365D01*
X145286148Y-85476052D01*
X145320173Y-85538365D01*
X145315109Y-85609180D01*
X145306172Y-85628148D01*
X145227764Y-85763955D01*
X145215473Y-85785244D01*
X145156458Y-85966872D01*
X145155768Y-85973433D01*
X145155768Y-85973435D01*
X145149320Y-86034783D01*
X145136496Y-86156800D01*
X145137186Y-86163365D01*
X145149996Y-86285242D01*
X145156458Y-86346728D01*
X145215473Y-86528356D01*
X145310960Y-86693744D01*
X145315378Y-86698651D01*
X145315379Y-86698652D01*
X145347273Y-86734074D01*
X145438747Y-86835666D01*
X145500219Y-86880328D01*
X145573218Y-86933365D01*
X145593248Y-86947918D01*
X145599276Y-86950602D01*
X145599278Y-86950603D01*
X145724972Y-87006565D01*
X145767712Y-87025594D01*
X145861112Y-87045447D01*
X145948056Y-87063928D01*
X145948061Y-87063928D01*
X145954513Y-87065300D01*
X146060248Y-87065300D01*
X146128369Y-87085302D01*
X146169366Y-87128299D01*
X146260960Y-87286944D01*
X146265378Y-87291851D01*
X146265379Y-87291852D01*
X146289584Y-87318734D01*
X146388747Y-87428866D01*
X146543248Y-87541118D01*
X146549276Y-87543802D01*
X146549278Y-87543803D01*
X146693969Y-87608223D01*
X146717712Y-87618794D01*
X146811113Y-87638647D01*
X146898056Y-87657128D01*
X146898061Y-87657128D01*
X146904513Y-87658500D01*
X147095487Y-87658500D01*
X147101939Y-87657128D01*
X147101944Y-87657128D01*
X147188888Y-87638647D01*
X147282288Y-87618794D01*
X147306031Y-87608223D01*
X147450722Y-87543803D01*
X147450724Y-87543802D01*
X147456752Y-87541118D01*
X147611253Y-87428866D01*
X147710416Y-87318734D01*
X147734621Y-87291852D01*
X147734622Y-87291851D01*
X147739040Y-87286944D01*
X147830442Y-87128631D01*
X147831223Y-87127279D01*
X147831224Y-87127278D01*
X147834527Y-87121556D01*
X147893542Y-86939928D01*
X147910907Y-86774706D01*
X147937920Y-86709050D01*
X147947122Y-86698782D01*
X148925284Y-85720620D01*
X148987596Y-85686594D01*
X149058411Y-85691659D01*
X149108012Y-85725403D01*
X149147147Y-85768866D01*
X149217549Y-85820016D01*
X149292516Y-85874483D01*
X149301648Y-85881118D01*
X149307676Y-85883802D01*
X149307678Y-85883803D01*
X149449640Y-85947008D01*
X149476112Y-85958794D01*
X149569512Y-85978647D01*
X149656456Y-85997128D01*
X149656461Y-85997128D01*
X149662913Y-85998500D01*
X149853887Y-85998500D01*
X149860339Y-85997128D01*
X149860344Y-85997128D01*
X149947287Y-85978647D01*
X150040688Y-85958794D01*
X150067160Y-85947008D01*
X150209122Y-85883803D01*
X150209124Y-85883802D01*
X150215152Y-85881118D01*
X150224285Y-85874483D01*
X150299251Y-85820016D01*
X150369653Y-85768866D01*
X150392211Y-85743813D01*
X150493021Y-85631852D01*
X150493022Y-85631851D01*
X150497440Y-85626944D01*
X150574124Y-85494123D01*
X150589623Y-85467279D01*
X150589624Y-85467278D01*
X150592927Y-85461556D01*
X150651942Y-85279928D01*
X150660727Y-85196339D01*
X150687740Y-85130683D01*
X150745961Y-85090053D01*
X150786037Y-85083510D01*
X154721223Y-85083510D01*
X154732406Y-85084037D01*
X154739899Y-85085712D01*
X154747825Y-85085463D01*
X154747826Y-85085463D01*
X154807976Y-85083572D01*
X154811935Y-85083510D01*
X154839846Y-85083510D01*
X154843781Y-85083013D01*
X154843846Y-85083005D01*
X154855683Y-85082072D01*
X154887941Y-85081058D01*
X154891960Y-85080932D01*
X154899879Y-85080683D01*
X154919333Y-85075031D01*
X154938690Y-85071023D01*
X154950920Y-85069478D01*
X154950921Y-85069478D01*
X154958787Y-85068484D01*
X154966158Y-85065565D01*
X154966160Y-85065565D01*
X154999902Y-85052206D01*
X155011132Y-85048361D01*
X155045973Y-85038239D01*
X155045974Y-85038239D01*
X155053583Y-85036028D01*
X155060402Y-85031995D01*
X155060407Y-85031993D01*
X155071018Y-85025717D01*
X155088766Y-85017022D01*
X155107607Y-85009562D01*
X155119925Y-85000613D01*
X155143377Y-84983574D01*
X155153297Y-84977058D01*
X155184525Y-84958590D01*
X155184528Y-84958588D01*
X155191352Y-84954552D01*
X155205673Y-84940231D01*
X155220707Y-84927390D01*
X155230684Y-84920141D01*
X155237097Y-84915482D01*
X155265288Y-84881405D01*
X155273278Y-84872626D01*
X155725499Y-84420405D01*
X155787811Y-84386379D01*
X155814594Y-84383500D01*
X155921233Y-84383500D01*
X155932416Y-84384027D01*
X155939909Y-84385702D01*
X155947835Y-84385453D01*
X155947836Y-84385453D01*
X156007986Y-84383562D01*
X156011945Y-84383500D01*
X156039856Y-84383500D01*
X156043791Y-84383003D01*
X156043856Y-84382995D01*
X156055693Y-84382062D01*
X156087951Y-84381048D01*
X156091970Y-84380922D01*
X156099889Y-84380673D01*
X156119343Y-84375021D01*
X156138700Y-84371013D01*
X156150930Y-84369468D01*
X156150931Y-84369468D01*
X156158797Y-84368474D01*
X156166168Y-84365555D01*
X156166170Y-84365555D01*
X156199912Y-84352196D01*
X156211142Y-84348351D01*
X156245983Y-84338229D01*
X156245984Y-84338229D01*
X156253593Y-84336018D01*
X156260412Y-84331985D01*
X156260417Y-84331983D01*
X156271028Y-84325707D01*
X156288776Y-84317012D01*
X156307617Y-84309552D01*
X156322714Y-84298584D01*
X156343387Y-84283564D01*
X156353307Y-84277048D01*
X156384535Y-84258580D01*
X156384538Y-84258578D01*
X156391362Y-84254542D01*
X156405683Y-84240221D01*
X156420717Y-84227380D01*
X156437107Y-84215472D01*
X156442157Y-84209368D01*
X156442162Y-84209363D01*
X156465293Y-84181402D01*
X156473283Y-84172621D01*
X157200501Y-83445404D01*
X157262813Y-83411379D01*
X157289596Y-83408500D01*
X157345487Y-83408500D01*
X157351939Y-83407128D01*
X157351944Y-83407128D01*
X157438887Y-83388647D01*
X157532288Y-83368794D01*
X157693101Y-83297196D01*
X157700722Y-83293803D01*
X157700724Y-83293802D01*
X157706752Y-83291118D01*
X157861253Y-83178866D01*
X157962306Y-83066635D01*
X157984621Y-83041852D01*
X157984622Y-83041851D01*
X157989040Y-83036944D01*
X158084527Y-82871556D01*
X158143542Y-82689928D01*
X158155512Y-82576045D01*
X158162814Y-82506565D01*
X158163504Y-82500000D01*
X158156938Y-82437531D01*
X158144232Y-82316635D01*
X158144232Y-82316633D01*
X158143542Y-82310072D01*
X158084527Y-82128444D01*
X158077406Y-82116109D01*
X158034109Y-82041118D01*
X157989040Y-81963056D01*
X157961752Y-81932749D01*
X157865675Y-81826045D01*
X157865674Y-81826044D01*
X157861253Y-81821134D01*
X157706752Y-81708882D01*
X157700724Y-81706198D01*
X157700722Y-81706197D01*
X157538319Y-81633891D01*
X157538318Y-81633891D01*
X157532288Y-81631206D01*
X157438888Y-81611353D01*
X157351944Y-81592872D01*
X157351939Y-81592872D01*
X157345487Y-81591500D01*
X157154513Y-81591500D01*
X157148061Y-81592872D01*
X157148056Y-81592872D01*
X157061112Y-81611353D01*
X156967712Y-81631206D01*
X156961682Y-81633891D01*
X156961681Y-81633891D01*
X156799278Y-81706197D01*
X156799276Y-81706198D01*
X156793248Y-81708882D01*
X156787907Y-81712762D01*
X156787906Y-81712763D01*
X156699061Y-81777313D01*
X156632193Y-81801172D01*
X156563042Y-81785091D01*
X156550939Y-81777313D01*
X156462094Y-81712763D01*
X156462093Y-81712762D01*
X156456752Y-81708882D01*
X156450724Y-81706198D01*
X156450722Y-81706197D01*
X156288319Y-81633891D01*
X156288318Y-81633891D01*
X156282288Y-81631206D01*
X156188888Y-81611353D01*
X156101944Y-81592872D01*
X156101939Y-81592872D01*
X156095487Y-81591500D01*
X155904513Y-81591500D01*
X155898061Y-81592872D01*
X155898056Y-81592872D01*
X155811112Y-81611353D01*
X155717712Y-81631206D01*
X155711682Y-81633891D01*
X155711681Y-81633891D01*
X155549278Y-81706197D01*
X155549276Y-81706198D01*
X155543248Y-81708882D01*
X155537907Y-81712762D01*
X155537906Y-81712763D01*
X155449061Y-81777313D01*
X155382193Y-81801172D01*
X155313042Y-81785091D01*
X155300939Y-81777313D01*
X155212094Y-81712763D01*
X155212093Y-81712762D01*
X155206752Y-81708882D01*
X155200724Y-81706198D01*
X155200722Y-81706197D01*
X155038319Y-81633891D01*
X155038318Y-81633891D01*
X155032288Y-81631206D01*
X154938888Y-81611353D01*
X154851944Y-81592872D01*
X154851939Y-81592872D01*
X154845487Y-81591500D01*
X154745298Y-81591500D01*
X154677177Y-81571498D01*
X154630684Y-81517842D01*
X154625465Y-81504437D01*
X154606544Y-81446206D01*
X154584527Y-81378444D01*
X154562975Y-81341114D01*
X154530298Y-81284517D01*
X154489040Y-81213056D01*
X154361253Y-81071134D01*
X154206752Y-80958882D01*
X154200724Y-80956198D01*
X154200722Y-80956197D01*
X154038319Y-80883891D01*
X154038318Y-80883891D01*
X154032288Y-80881206D01*
X153938887Y-80861353D01*
X153851944Y-80842872D01*
X153851939Y-80842872D01*
X153845487Y-80841500D01*
X153789595Y-80841500D01*
X153721474Y-80821498D01*
X153700499Y-80804595D01*
X153370414Y-80474509D01*
X153336389Y-80412197D01*
X153333510Y-80385414D01*
X153333510Y-79012500D01*
X153353512Y-78944379D01*
X153407168Y-78897886D01*
X153459510Y-78886500D01*
X153638487Y-78886500D01*
X153644939Y-78885128D01*
X153644944Y-78885128D01*
X153731887Y-78866647D01*
X153825288Y-78846794D01*
X153855938Y-78833148D01*
X153993722Y-78771803D01*
X153993724Y-78771802D01*
X153999752Y-78769118D01*
X154100206Y-78696134D01*
X154148914Y-78660745D01*
X154154253Y-78656866D01*
X154158668Y-78651963D01*
X154163580Y-78647540D01*
X154164705Y-78648789D01*
X154218014Y-78615949D01*
X154251200Y-78611500D01*
X156627548Y-78611500D01*
X156638731Y-78612027D01*
X156646224Y-78613702D01*
X156654150Y-78613453D01*
X156654151Y-78613453D01*
X156714301Y-78611562D01*
X156718260Y-78611500D01*
X156746171Y-78611500D01*
X156750106Y-78611003D01*
X156750171Y-78610995D01*
X156762008Y-78610062D01*
X156794266Y-78609048D01*
X156798285Y-78608922D01*
X156806204Y-78608673D01*
X156825658Y-78603021D01*
X156845015Y-78599013D01*
X156857245Y-78597468D01*
X156857246Y-78597468D01*
X156865112Y-78596474D01*
X156872483Y-78593555D01*
X156872485Y-78593555D01*
X156906227Y-78580196D01*
X156917457Y-78576351D01*
X156952298Y-78566229D01*
X156952299Y-78566229D01*
X156959908Y-78564018D01*
X156966729Y-78559984D01*
X156974008Y-78556834D01*
X156975164Y-78559505D01*
X157030622Y-78545429D01*
X157077203Y-78556236D01*
X157099044Y-78565960D01*
X157201469Y-78611562D01*
X157217712Y-78618794D01*
X157311112Y-78638647D01*
X157398056Y-78657128D01*
X157398061Y-78657128D01*
X157404513Y-78658500D01*
X157595487Y-78658500D01*
X157601939Y-78657128D01*
X157601944Y-78657128D01*
X157688888Y-78638647D01*
X157782288Y-78618794D01*
X157793725Y-78613702D01*
X157950722Y-78543803D01*
X157950724Y-78543802D01*
X157956752Y-78541118D01*
X157962415Y-78537004D01*
X158018187Y-78496483D01*
X158111253Y-78428866D01*
X158165915Y-78368158D01*
X158234621Y-78291852D01*
X158234622Y-78291851D01*
X158239040Y-78286944D01*
X158311156Y-78162035D01*
X158331223Y-78127279D01*
X158331224Y-78127278D01*
X158334527Y-78121556D01*
X158393542Y-77939928D01*
X158396057Y-77916005D01*
X158412814Y-77756565D01*
X158413504Y-77750000D01*
X158395300Y-77576794D01*
X158394232Y-77566635D01*
X158394232Y-77566633D01*
X158393542Y-77560072D01*
X158334527Y-77378444D01*
X158239040Y-77213056D01*
X158212439Y-77183512D01*
X158115675Y-77076045D01*
X158115674Y-77076044D01*
X158111253Y-77071134D01*
X157956752Y-76958882D01*
X157950724Y-76956198D01*
X157950722Y-76956197D01*
X157788319Y-76883891D01*
X157788318Y-76883891D01*
X157782288Y-76881206D01*
X157688887Y-76861353D01*
X157601944Y-76842872D01*
X157601939Y-76842872D01*
X157595487Y-76841500D01*
X157404513Y-76841500D01*
X157398061Y-76842872D01*
X157398056Y-76842872D01*
X157311113Y-76861353D01*
X157217712Y-76881206D01*
X157211682Y-76883891D01*
X157211681Y-76883891D01*
X157049278Y-76956197D01*
X157049276Y-76956198D01*
X157043248Y-76958882D01*
X157037907Y-76962762D01*
X157037906Y-76962763D01*
X156956337Y-77022027D01*
X156888747Y-77071134D01*
X156884326Y-77076044D01*
X156884325Y-77076045D01*
X156882448Y-77078129D01*
X156881061Y-77078983D01*
X156879420Y-77080461D01*
X156879150Y-77080161D01*
X156822001Y-77115367D01*
X156751017Y-77114013D01*
X156692033Y-77074498D01*
X156663777Y-77009366D01*
X156663311Y-77001838D01*
X156663504Y-77000000D01*
X156657201Y-76940034D01*
X156644232Y-76816635D01*
X156644232Y-76816633D01*
X156643542Y-76810072D01*
X156584527Y-76628444D01*
X156489040Y-76463056D01*
X156460550Y-76431414D01*
X156365675Y-76326045D01*
X156365674Y-76326044D01*
X156361253Y-76321134D01*
X156206752Y-76208882D01*
X156200724Y-76206198D01*
X156200722Y-76206197D01*
X156038319Y-76133891D01*
X156038318Y-76133891D01*
X156032288Y-76131206D01*
X155938888Y-76111353D01*
X155851944Y-76092872D01*
X155851939Y-76092872D01*
X155845487Y-76091500D01*
X155654513Y-76091500D01*
X155648061Y-76092872D01*
X155648056Y-76092872D01*
X155558055Y-76112003D01*
X155487264Y-76106601D01*
X155476199Y-76101284D01*
X155475040Y-76100385D01*
X155467877Y-76097285D01*
X155467866Y-76097280D01*
X155434462Y-76082825D01*
X155423812Y-76077608D01*
X155385059Y-76056304D01*
X155365436Y-76051266D01*
X155346733Y-76044862D01*
X155335419Y-76039966D01*
X155335418Y-76039966D01*
X155328144Y-76036818D01*
X155320321Y-76035579D01*
X155320311Y-76035576D01*
X155284475Y-76029900D01*
X155272855Y-76027494D01*
X155237710Y-76018471D01*
X155237709Y-76018471D01*
X155230029Y-76016499D01*
X155209775Y-76016499D01*
X155190064Y-76014948D01*
X155177885Y-76013019D01*
X155170056Y-76011779D01*
X155162164Y-76012525D01*
X155126038Y-76015940D01*
X155114180Y-76016499D01*
X154720928Y-76016499D01*
X154652807Y-75996497D01*
X154606314Y-75942841D01*
X154601095Y-75929435D01*
X154598518Y-75921503D01*
X154584527Y-75878444D01*
X154580429Y-75871345D01*
X154532188Y-75787790D01*
X154489040Y-75713056D01*
X154483151Y-75706515D01*
X154365675Y-75576045D01*
X154365674Y-75576044D01*
X154361253Y-75571134D01*
X154206752Y-75458882D01*
X154200724Y-75456198D01*
X154200722Y-75456197D01*
X154038319Y-75383891D01*
X154038318Y-75383891D01*
X154032288Y-75381206D01*
X153915454Y-75356372D01*
X153851944Y-75342872D01*
X153851939Y-75342872D01*
X153845487Y-75341500D01*
X153654513Y-75341500D01*
X153648056Y-75342872D01*
X153648051Y-75342873D01*
X153625971Y-75347566D01*
X153555181Y-75342163D01*
X153498549Y-75299346D01*
X153474056Y-75232708D01*
X153489478Y-75163407D01*
X153510681Y-75135223D01*
X153700501Y-74945404D01*
X153762813Y-74911379D01*
X153789596Y-74908500D01*
X153845487Y-74908500D01*
X153851939Y-74907128D01*
X153851944Y-74907128D01*
X153938888Y-74888647D01*
X154032288Y-74868794D01*
X154067073Y-74853307D01*
X154200722Y-74793803D01*
X154200724Y-74793802D01*
X154206752Y-74791118D01*
X154234404Y-74771028D01*
X154316829Y-74711142D01*
X154361253Y-74678866D01*
X154432364Y-74599889D01*
X154484621Y-74541852D01*
X154484622Y-74541851D01*
X154489040Y-74536944D01*
X154584527Y-74371556D01*
X154643542Y-74189928D01*
X154647204Y-74155091D01*
X154662814Y-74006565D01*
X154663504Y-74000000D01*
X154657093Y-73939001D01*
X154644232Y-73816635D01*
X154644232Y-73816633D01*
X154643542Y-73810072D01*
X154641503Y-73803797D01*
X154641502Y-73803792D01*
X154639762Y-73798438D01*
X154637733Y-73727471D01*
X154674394Y-73666672D01*
X154738106Y-73635346D01*
X154759594Y-73633500D01*
X157791800Y-73633500D01*
X157859921Y-73653502D01*
X157879147Y-73669843D01*
X157879420Y-73669540D01*
X157884332Y-73673963D01*
X157888747Y-73678866D01*
X157902618Y-73688944D01*
X157994500Y-73755700D01*
X158043248Y-73791118D01*
X158049276Y-73793802D01*
X158049278Y-73793803D01*
X158211681Y-73866109D01*
X158217712Y-73868794D01*
X158311112Y-73888647D01*
X158398056Y-73907128D01*
X158398061Y-73907128D01*
X158404513Y-73908500D01*
X158595487Y-73908500D01*
X158601939Y-73907128D01*
X158601944Y-73907128D01*
X158688888Y-73888647D01*
X158782288Y-73868794D01*
X158828251Y-73848330D01*
X158898618Y-73838896D01*
X158962915Y-73869002D01*
X159000729Y-73929091D01*
X159005500Y-73963437D01*
X159005500Y-86807405D01*
X158985498Y-86875526D01*
X158968595Y-86896500D01*
X157275499Y-88589596D01*
X157213187Y-88623621D01*
X157186404Y-88626500D01*
X157130513Y-88626500D01*
X157124061Y-88627872D01*
X157124056Y-88627872D01*
X157041464Y-88645428D01*
X156943712Y-88666206D01*
X156937682Y-88668891D01*
X156937681Y-88668891D01*
X156775278Y-88741197D01*
X156775276Y-88741198D01*
X156769248Y-88743882D01*
X156614747Y-88856134D01*
X156610326Y-88861044D01*
X156610325Y-88861045D01*
X156497162Y-88986726D01*
X156486960Y-88998056D01*
X156391473Y-89163444D01*
X156332458Y-89345072D01*
X156331768Y-89351633D01*
X156331768Y-89351635D01*
X156329959Y-89368848D01*
X156312496Y-89535000D01*
X156313186Y-89541565D01*
X156330536Y-89706638D01*
X156332458Y-89724928D01*
X156391473Y-89906556D01*
X156486960Y-90071944D01*
X156491378Y-90076851D01*
X156491379Y-90076852D01*
X156573259Y-90167789D01*
X156614747Y-90213866D01*
X156676110Y-90258449D01*
X156737940Y-90303371D01*
X156769248Y-90326118D01*
X156775276Y-90328802D01*
X156775278Y-90328803D01*
X156918255Y-90392460D01*
X156943712Y-90403794D01*
X157037113Y-90423647D01*
X157124056Y-90442128D01*
X157124061Y-90442128D01*
X157130513Y-90443500D01*
X157321487Y-90443500D01*
X157327939Y-90442128D01*
X157327944Y-90442128D01*
X157414888Y-90423647D01*
X157508288Y-90403794D01*
X157533745Y-90392460D01*
X157676722Y-90328803D01*
X157676724Y-90328802D01*
X157682752Y-90326118D01*
X157714061Y-90303371D01*
X157775890Y-90258449D01*
X157837253Y-90213866D01*
X157878741Y-90167789D01*
X157960621Y-90076852D01*
X157960622Y-90076851D01*
X157965040Y-90071944D01*
X158060527Y-89906556D01*
X158119542Y-89724928D01*
X158121465Y-89706638D01*
X158136907Y-89559707D01*
X158163920Y-89494050D01*
X158173122Y-89483782D01*
X159543634Y-88113270D01*
X160031253Y-87625652D01*
X160039539Y-87618112D01*
X160046018Y-87614000D01*
X160092644Y-87564348D01*
X160095398Y-87561507D01*
X160115135Y-87541770D01*
X160117615Y-87538573D01*
X160125320Y-87529551D01*
X160150159Y-87503100D01*
X160155586Y-87497321D01*
X160159405Y-87490375D01*
X160159407Y-87490372D01*
X160165348Y-87479566D01*
X160176199Y-87463047D01*
X160183758Y-87453301D01*
X160188614Y-87447041D01*
X160191759Y-87439772D01*
X160191762Y-87439768D01*
X160206174Y-87406463D01*
X160211391Y-87395813D01*
X160232695Y-87357060D01*
X160237733Y-87337437D01*
X160244137Y-87318734D01*
X160249033Y-87307420D01*
X160249033Y-87307419D01*
X160252181Y-87300145D01*
X160253420Y-87292322D01*
X160253423Y-87292312D01*
X160259099Y-87256476D01*
X160261505Y-87244856D01*
X160270528Y-87209711D01*
X160270528Y-87209710D01*
X160272500Y-87202030D01*
X160272500Y-87181776D01*
X160274051Y-87162065D01*
X160275980Y-87149886D01*
X160277220Y-87142057D01*
X160273059Y-87098038D01*
X160272500Y-87086181D01*
X160272500Y-74155091D01*
X160292502Y-74086970D01*
X160346158Y-74040477D01*
X160416432Y-74030373D01*
X160424697Y-74031844D01*
X160553056Y-74059128D01*
X160553061Y-74059128D01*
X160559513Y-74060500D01*
X160750487Y-74060500D01*
X160756939Y-74059128D01*
X160756944Y-74059128D01*
X160844687Y-74040477D01*
X160937288Y-74020794D01*
X160969247Y-74006565D01*
X161105722Y-73945803D01*
X161105724Y-73945802D01*
X161111752Y-73943118D01*
X161131059Y-73929091D01*
X161212161Y-73870166D01*
X161266253Y-73830866D01*
X161346648Y-73741578D01*
X161389621Y-73693852D01*
X161389622Y-73693851D01*
X161394040Y-73688944D01*
X161474243Y-73550029D01*
X161486223Y-73529279D01*
X161486224Y-73529278D01*
X161489527Y-73523556D01*
X161548542Y-73341928D01*
X161551785Y-73311079D01*
X161567814Y-73158565D01*
X161568504Y-73152000D01*
X161567814Y-73145435D01*
X161549232Y-72968635D01*
X161549232Y-72968633D01*
X161548542Y-72962072D01*
X161489527Y-72780444D01*
X161484410Y-72771580D01*
X161452314Y-72715990D01*
X161394040Y-72615056D01*
X161320863Y-72533785D01*
X161290147Y-72469779D01*
X161288500Y-72449476D01*
X161288500Y-71706767D01*
X161289027Y-71695584D01*
X161290702Y-71688091D01*
X161288562Y-71620014D01*
X161288500Y-71616055D01*
X161288500Y-71588144D01*
X161287995Y-71584144D01*
X161287062Y-71572301D01*
X161287026Y-71571134D01*
X161285673Y-71528110D01*
X161285673Y-71528109D01*
X161288974Y-71528005D01*
X161296098Y-71472650D01*
X161341790Y-71418312D01*
X161385275Y-71400043D01*
X161532288Y-71368794D01*
X161601570Y-71337948D01*
X161700722Y-71293803D01*
X161700724Y-71293802D01*
X161706752Y-71291118D01*
X161861253Y-71178866D01*
X161868871Y-71170405D01*
X161984621Y-71041852D01*
X161984622Y-71041851D01*
X161989040Y-71036944D01*
X162084527Y-70871556D01*
X162143542Y-70689928D01*
X162151043Y-70618565D01*
X162162814Y-70506565D01*
X162163504Y-70500000D01*
X162153362Y-70403502D01*
X162144232Y-70316635D01*
X162144232Y-70316633D01*
X162143542Y-70310072D01*
X162084527Y-70128444D01*
X162073327Y-70109044D01*
X162041890Y-70054595D01*
X161989040Y-69963056D01*
X161977094Y-69949788D01*
X161903534Y-69868092D01*
X161876169Y-69818920D01*
X161875017Y-69814953D01*
X161871012Y-69795608D01*
X161870846Y-69794298D01*
X161868474Y-69775518D01*
X161865558Y-69768152D01*
X161865556Y-69768146D01*
X161852200Y-69734413D01*
X161848355Y-69723183D01*
X161838230Y-69688332D01*
X161838230Y-69688331D01*
X161836019Y-69680722D01*
X161828632Y-69668230D01*
X161825705Y-69663281D01*
X161817008Y-69645528D01*
X161812472Y-69634073D01*
X161809552Y-69626698D01*
X161783563Y-69590927D01*
X161777047Y-69581007D01*
X161758578Y-69549778D01*
X161754542Y-69542953D01*
X161740221Y-69528632D01*
X161727380Y-69513598D01*
X161720132Y-69503622D01*
X161715472Y-69497208D01*
X161681407Y-69469027D01*
X161672626Y-69461037D01*
X161255405Y-69043815D01*
X161221380Y-68981503D01*
X161218501Y-68954720D01*
X161218501Y-68267132D01*
X161238503Y-68199011D01*
X161292159Y-68152518D01*
X161362433Y-68142414D01*
X161397750Y-68152937D01*
X161545770Y-68221959D01*
X161545775Y-68221961D01*
X161550757Y-68224284D01*
X161556065Y-68225706D01*
X161556067Y-68225707D01*
X161766598Y-68282119D01*
X161766600Y-68282119D01*
X161771913Y-68283543D01*
X162000000Y-68303498D01*
X162228087Y-68283543D01*
X162233400Y-68282119D01*
X162233402Y-68282119D01*
X162443933Y-68225707D01*
X162443935Y-68225706D01*
X162449243Y-68224284D01*
X162454229Y-68221959D01*
X162651762Y-68129849D01*
X162651767Y-68129846D01*
X162656749Y-68127523D01*
X162774735Y-68044908D01*
X162839789Y-67999357D01*
X162839792Y-67999355D01*
X162844300Y-67996198D01*
X163006198Y-67834300D01*
X163137523Y-67646749D01*
X163139846Y-67641767D01*
X163139849Y-67641762D01*
X163231961Y-67444225D01*
X163231961Y-67444224D01*
X163234284Y-67439243D01*
X163258883Y-67347441D01*
X163292119Y-67223402D01*
X163292119Y-67223400D01*
X163293543Y-67218087D01*
X163313498Y-66990000D01*
X163293543Y-66761913D01*
X163234284Y-66540757D01*
X163155805Y-66372457D01*
X163139849Y-66338238D01*
X163139846Y-66338233D01*
X163137523Y-66333251D01*
X163016500Y-66160413D01*
X163009357Y-66150211D01*
X163009355Y-66150208D01*
X163006198Y-66145700D01*
X162844300Y-65983802D01*
X162839792Y-65980645D01*
X162839789Y-65980643D01*
X162687229Y-65873819D01*
X162642901Y-65818362D01*
X162633500Y-65770606D01*
X162633500Y-64314594D01*
X162653502Y-64246473D01*
X162670405Y-64225499D01*
X164976135Y-61919770D01*
X164976138Y-61919766D01*
X166392247Y-60503657D01*
X166400537Y-60496113D01*
X166407018Y-60492000D01*
X166453659Y-60442332D01*
X166456413Y-60439491D01*
X166476134Y-60419770D01*
X166478612Y-60416575D01*
X166486318Y-60407553D01*
X166495396Y-60397886D01*
X166516586Y-60375321D01*
X166526346Y-60357568D01*
X166537199Y-60341045D01*
X166542523Y-60334181D01*
X166549613Y-60325041D01*
X166567176Y-60284457D01*
X166572383Y-60273827D01*
X166593695Y-60235060D01*
X166595666Y-60227383D01*
X166595668Y-60227378D01*
X166598732Y-60215442D01*
X166605138Y-60196730D01*
X166610034Y-60185417D01*
X166613181Y-60178145D01*
X166614452Y-60170125D01*
X166620097Y-60134481D01*
X166622504Y-60122860D01*
X166631528Y-60087711D01*
X166631528Y-60087710D01*
X166633500Y-60080030D01*
X166633500Y-60059769D01*
X166635051Y-60040058D01*
X166636979Y-60027885D01*
X166638219Y-60020057D01*
X166634059Y-59976046D01*
X166633500Y-59964189D01*
X166633500Y-55321793D01*
X166635732Y-55298184D01*
X166635790Y-55297881D01*
X166635790Y-55297877D01*
X166637275Y-55290094D01*
X166633749Y-55234049D01*
X166633500Y-55226138D01*
X166633500Y-55210144D01*
X166631494Y-55194270D01*
X166630751Y-55186402D01*
X166627723Y-55138263D01*
X166627723Y-55138262D01*
X166627225Y-55130350D01*
X166624679Y-55122513D01*
X166619506Y-55099369D01*
X166619468Y-55099065D01*
X166619467Y-55099060D01*
X166618474Y-55091203D01*
X166615558Y-55083838D01*
X166615557Y-55083834D01*
X166597801Y-55038989D01*
X166595129Y-55031570D01*
X166577764Y-54978125D01*
X166573514Y-54971428D01*
X166573350Y-54971169D01*
X166562585Y-54950042D01*
X166562471Y-54949754D01*
X166562468Y-54949749D01*
X166559552Y-54942383D01*
X166554896Y-54935975D01*
X166554893Y-54935969D01*
X166526542Y-54896948D01*
X166522092Y-54890401D01*
X166492000Y-54842982D01*
X166485993Y-54837341D01*
X166470312Y-54819554D01*
X166470134Y-54819309D01*
X166470132Y-54819307D01*
X166465472Y-54812893D01*
X166459362Y-54807838D01*
X166422204Y-54777097D01*
X166416270Y-54771866D01*
X166381102Y-54738842D01*
X166381099Y-54738840D01*
X166375321Y-54733414D01*
X166368097Y-54729442D01*
X166348494Y-54716119D01*
X166348254Y-54715920D01*
X166348247Y-54715916D01*
X166342144Y-54710867D01*
X166291324Y-54686953D01*
X166284292Y-54683371D01*
X166235060Y-54656305D01*
X166227385Y-54654335D01*
X166227379Y-54654332D01*
X166227081Y-54654256D01*
X166204772Y-54646224D01*
X166204497Y-54646094D01*
X166204489Y-54646091D01*
X166197318Y-54642717D01*
X166142151Y-54632194D01*
X166134442Y-54630471D01*
X166100449Y-54621743D01*
X166087707Y-54618471D01*
X166087706Y-54618471D01*
X166080030Y-54616500D01*
X166071793Y-54616500D01*
X166048184Y-54614268D01*
X166047881Y-54614210D01*
X166047877Y-54614210D01*
X166040094Y-54612725D01*
X165984049Y-54616251D01*
X165976138Y-54616500D01*
X164514594Y-54616500D01*
X164446473Y-54596498D01*
X164425499Y-54579595D01*
X163035042Y-53189137D01*
X163001016Y-53126825D01*
X163006081Y-53056009D01*
X163048572Y-52999216D01*
X163156080Y-52918643D01*
X163156081Y-52918642D01*
X163163261Y-52913261D01*
X163250615Y-52796705D01*
X163301745Y-52660316D01*
X163308500Y-52598134D01*
X163308500Y-50901866D01*
X163301745Y-50839684D01*
X163250615Y-50703295D01*
X163163261Y-50586739D01*
X163046705Y-50499385D01*
X162910316Y-50448255D01*
X162848134Y-50441500D01*
X161151866Y-50441500D01*
X161089684Y-50448255D01*
X160953295Y-50499385D01*
X160836739Y-50586739D01*
X160749385Y-50703295D01*
X160698255Y-50839684D01*
X160697083Y-50850474D01*
X160696197Y-50852606D01*
X160695575Y-50855222D01*
X160695152Y-50855121D01*
X160669845Y-50916035D01*
X160611483Y-50956463D01*
X160540529Y-50958922D01*
X160479510Y-50922629D01*
X160472511Y-50913969D01*
X160469354Y-50910207D01*
X160466198Y-50905700D01*
X160304300Y-50743802D01*
X160299792Y-50740645D01*
X160299789Y-50740643D01*
X160221611Y-50685902D01*
X160116749Y-50612477D01*
X160111767Y-50610154D01*
X160111762Y-50610151D01*
X159914225Y-50518039D01*
X159914224Y-50518039D01*
X159909243Y-50515716D01*
X159903935Y-50514294D01*
X159903933Y-50514293D01*
X159693402Y-50457881D01*
X159693400Y-50457881D01*
X159688087Y-50456457D01*
X159460000Y-50436502D01*
X159231913Y-50456457D01*
X159226600Y-50457881D01*
X159226598Y-50457881D01*
X159016067Y-50514293D01*
X159016065Y-50514294D01*
X159010757Y-50515716D01*
X159005776Y-50518039D01*
X159005775Y-50518039D01*
X158808238Y-50610151D01*
X158808233Y-50610154D01*
X158803251Y-50612477D01*
X158698389Y-50685902D01*
X158620211Y-50740643D01*
X158620208Y-50740645D01*
X158615700Y-50743802D01*
X158453802Y-50905700D01*
X158322477Y-51093251D01*
X158320154Y-51098233D01*
X158320151Y-51098238D01*
X158304195Y-51132457D01*
X158257278Y-51185742D01*
X158189001Y-51205203D01*
X158121041Y-51184661D01*
X158075805Y-51132457D01*
X158059849Y-51098238D01*
X158059846Y-51098233D01*
X158057523Y-51093251D01*
X157926198Y-50905700D01*
X157764300Y-50743802D01*
X157759792Y-50740645D01*
X157759789Y-50740643D01*
X157681611Y-50685902D01*
X157576749Y-50612477D01*
X157571767Y-50610154D01*
X157571762Y-50610151D01*
X157374225Y-50518039D01*
X157374224Y-50518039D01*
X157369243Y-50515716D01*
X157363935Y-50514294D01*
X157363933Y-50514293D01*
X157153402Y-50457881D01*
X157153400Y-50457881D01*
X157148087Y-50456457D01*
X156920000Y-50436502D01*
X156691913Y-50456457D01*
X156686600Y-50457881D01*
X156686598Y-50457881D01*
X156476067Y-50514293D01*
X156476065Y-50514294D01*
X156470757Y-50515716D01*
X156465776Y-50518039D01*
X156465775Y-50518039D01*
X156268238Y-50610151D01*
X156268233Y-50610154D01*
X156263251Y-50612477D01*
X156158389Y-50685902D01*
X156080211Y-50740643D01*
X156080208Y-50740645D01*
X156075700Y-50743802D01*
X155913802Y-50905700D01*
X155782477Y-51093251D01*
X155780154Y-51098233D01*
X155780151Y-51098238D01*
X155764195Y-51132457D01*
X155717278Y-51185742D01*
X155649001Y-51205203D01*
X155581041Y-51184661D01*
X155535805Y-51132457D01*
X155519849Y-51098238D01*
X155519846Y-51098233D01*
X155517523Y-51093251D01*
X155386198Y-50905700D01*
X155224300Y-50743802D01*
X155219792Y-50740645D01*
X155219789Y-50740643D01*
X155141611Y-50685902D01*
X155036749Y-50612477D01*
X155031767Y-50610154D01*
X155031762Y-50610151D01*
X154834225Y-50518039D01*
X154834224Y-50518039D01*
X154829243Y-50515716D01*
X154823935Y-50514294D01*
X154823933Y-50514293D01*
X154613402Y-50457881D01*
X154613400Y-50457881D01*
X154608087Y-50456457D01*
X154380000Y-50436502D01*
X154151913Y-50456457D01*
X154146600Y-50457881D01*
X154146598Y-50457881D01*
X153936067Y-50514293D01*
X153936065Y-50514294D01*
X153930757Y-50515716D01*
X153925776Y-50518039D01*
X153925775Y-50518039D01*
X153728238Y-50610151D01*
X153728233Y-50610154D01*
X153723251Y-50612477D01*
X153618389Y-50685902D01*
X153540211Y-50740643D01*
X153540208Y-50740645D01*
X153535700Y-50743802D01*
X153373802Y-50905700D01*
X153242477Y-51093251D01*
X153240154Y-51098233D01*
X153240151Y-51098238D01*
X153224195Y-51132457D01*
X153177278Y-51185742D01*
X153109001Y-51205203D01*
X153041041Y-51184661D01*
X152995805Y-51132457D01*
X152979849Y-51098238D01*
X152979846Y-51098233D01*
X152977523Y-51093251D01*
X152846198Y-50905700D01*
X152684300Y-50743802D01*
X152679792Y-50740645D01*
X152679789Y-50740643D01*
X152601611Y-50685902D01*
X152496749Y-50612477D01*
X152491767Y-50610154D01*
X152491762Y-50610151D01*
X152294225Y-50518039D01*
X152294224Y-50518039D01*
X152289243Y-50515716D01*
X152283935Y-50514294D01*
X152283933Y-50514293D01*
X152073402Y-50457881D01*
X152073400Y-50457881D01*
X152068087Y-50456457D01*
X151840000Y-50436502D01*
X151611913Y-50456457D01*
X151606600Y-50457881D01*
X151606598Y-50457881D01*
X151396067Y-50514293D01*
X151396065Y-50514294D01*
X151390757Y-50515716D01*
X151385776Y-50518039D01*
X151385775Y-50518039D01*
X151188238Y-50610151D01*
X151188233Y-50610154D01*
X151183251Y-50612477D01*
X151078389Y-50685902D01*
X151000211Y-50740643D01*
X151000208Y-50740645D01*
X150995700Y-50743802D01*
X150833802Y-50905700D01*
X150702477Y-51093251D01*
X150700154Y-51098233D01*
X150700151Y-51098238D01*
X150684195Y-51132457D01*
X150637278Y-51185742D01*
X150569001Y-51205203D01*
X150501041Y-51184661D01*
X150455805Y-51132457D01*
X150439849Y-51098238D01*
X150439846Y-51098233D01*
X150437523Y-51093251D01*
X150306198Y-50905700D01*
X150144300Y-50743802D01*
X150139792Y-50740645D01*
X150139789Y-50740643D01*
X150061611Y-50685902D01*
X149956749Y-50612477D01*
X149951767Y-50610154D01*
X149951762Y-50610151D01*
X149754225Y-50518039D01*
X149754224Y-50518039D01*
X149749243Y-50515716D01*
X149743935Y-50514294D01*
X149743933Y-50514293D01*
X149533402Y-50457881D01*
X149533400Y-50457881D01*
X149528087Y-50456457D01*
X149300000Y-50436502D01*
X149071913Y-50456457D01*
X149066600Y-50457881D01*
X149066598Y-50457881D01*
X148856067Y-50514293D01*
X148856065Y-50514294D01*
X148850757Y-50515716D01*
X148845776Y-50518039D01*
X148845775Y-50518039D01*
X148648238Y-50610151D01*
X148648233Y-50610154D01*
X148643251Y-50612477D01*
X148538389Y-50685902D01*
X148460211Y-50740643D01*
X148460208Y-50740645D01*
X148455700Y-50743802D01*
X148293802Y-50905700D01*
X148162477Y-51093251D01*
X148160154Y-51098233D01*
X148160151Y-51098238D01*
X148144195Y-51132457D01*
X148097278Y-51185742D01*
X148029001Y-51205203D01*
X147961041Y-51184661D01*
X147915805Y-51132457D01*
X147899849Y-51098238D01*
X147899846Y-51098233D01*
X147897523Y-51093251D01*
X147766198Y-50905700D01*
X147604300Y-50743802D01*
X147599792Y-50740645D01*
X147599789Y-50740643D01*
X147521611Y-50685902D01*
X147416749Y-50612477D01*
X147411767Y-50610154D01*
X147411762Y-50610151D01*
X147214225Y-50518039D01*
X147214224Y-50518039D01*
X147209243Y-50515716D01*
X147203935Y-50514294D01*
X147203933Y-50514293D01*
X146993402Y-50457881D01*
X146993400Y-50457881D01*
X146988087Y-50456457D01*
X146760000Y-50436502D01*
X146531913Y-50456457D01*
X146526600Y-50457881D01*
X146526598Y-50457881D01*
X146316067Y-50514293D01*
X146316065Y-50514294D01*
X146310757Y-50515716D01*
X146305776Y-50518039D01*
X146305775Y-50518039D01*
X146108238Y-50610151D01*
X146108233Y-50610154D01*
X146103251Y-50612477D01*
X145998389Y-50685902D01*
X145920211Y-50740643D01*
X145920208Y-50740645D01*
X145915700Y-50743802D01*
X145753802Y-50905700D01*
X145622477Y-51093251D01*
X145620154Y-51098233D01*
X145620151Y-51098238D01*
X145604195Y-51132457D01*
X145557278Y-51185742D01*
X145489001Y-51205203D01*
X145421041Y-51184661D01*
X145375805Y-51132457D01*
X145359849Y-51098238D01*
X145359846Y-51098233D01*
X145357523Y-51093251D01*
X145226198Y-50905700D01*
X145064300Y-50743802D01*
X145059792Y-50740645D01*
X145059789Y-50740643D01*
X144981611Y-50685902D01*
X144876749Y-50612477D01*
X144871767Y-50610154D01*
X144871762Y-50610151D01*
X144674225Y-50518039D01*
X144674224Y-50518039D01*
X144669243Y-50515716D01*
X144663935Y-50514294D01*
X144663933Y-50514293D01*
X144453402Y-50457881D01*
X144453400Y-50457881D01*
X144448087Y-50456457D01*
X144220000Y-50436502D01*
X143991913Y-50456457D01*
X143986600Y-50457881D01*
X143986598Y-50457881D01*
X143776067Y-50514293D01*
X143776065Y-50514294D01*
X143770757Y-50515716D01*
X143765776Y-50518039D01*
X143765775Y-50518039D01*
X143568238Y-50610151D01*
X143568233Y-50610154D01*
X143563251Y-50612477D01*
X143458389Y-50685902D01*
X143380211Y-50740643D01*
X143380208Y-50740645D01*
X143375700Y-50743802D01*
X143213802Y-50905700D01*
X143082477Y-51093251D01*
X143080154Y-51098233D01*
X143080151Y-51098238D01*
X143064195Y-51132457D01*
X143017278Y-51185742D01*
X142949001Y-51205203D01*
X142881041Y-51184661D01*
X142835805Y-51132457D01*
X142819849Y-51098238D01*
X142819846Y-51098233D01*
X142817523Y-51093251D01*
X142686198Y-50905700D01*
X142524300Y-50743802D01*
X142519792Y-50740645D01*
X142519789Y-50740643D01*
X142441611Y-50685902D01*
X142336749Y-50612477D01*
X142331767Y-50610154D01*
X142331762Y-50610151D01*
X142134225Y-50518039D01*
X142134224Y-50518039D01*
X142129243Y-50515716D01*
X142123935Y-50514294D01*
X142123933Y-50514293D01*
X141913402Y-50457881D01*
X141913400Y-50457881D01*
X141908087Y-50456457D01*
X141680000Y-50436502D01*
X141451913Y-50456457D01*
X141446600Y-50457881D01*
X141446598Y-50457881D01*
X141236067Y-50514293D01*
X141236065Y-50514294D01*
X141230757Y-50515716D01*
X141225776Y-50518039D01*
X141225775Y-50518039D01*
X141028238Y-50610151D01*
X141028233Y-50610154D01*
X141023251Y-50612477D01*
X140918389Y-50685902D01*
X140840211Y-50740643D01*
X140840208Y-50740645D01*
X140835700Y-50743802D01*
X140673802Y-50905700D01*
X140542477Y-51093251D01*
X140540154Y-51098233D01*
X140540151Y-51098238D01*
X140524195Y-51132457D01*
X140477278Y-51185742D01*
X140409001Y-51205203D01*
X140341041Y-51184661D01*
X140295805Y-51132457D01*
X140279849Y-51098238D01*
X140279846Y-51098233D01*
X140277523Y-51093251D01*
X140146198Y-50905700D01*
X139984300Y-50743802D01*
X139979792Y-50740645D01*
X139979789Y-50740643D01*
X139901611Y-50685902D01*
X139796749Y-50612477D01*
X139791767Y-50610154D01*
X139791762Y-50610151D01*
X139594225Y-50518039D01*
X139594224Y-50518039D01*
X139589243Y-50515716D01*
X139583935Y-50514294D01*
X139583933Y-50514293D01*
X139373402Y-50457881D01*
X139373400Y-50457881D01*
X139368087Y-50456457D01*
X139140000Y-50436502D01*
X138911913Y-50456457D01*
X138906600Y-50457881D01*
X138906598Y-50457881D01*
X138696067Y-50514293D01*
X138696065Y-50514294D01*
X138690757Y-50515716D01*
X138685776Y-50518039D01*
X138685775Y-50518039D01*
X138488238Y-50610151D01*
X138488233Y-50610154D01*
X138483251Y-50612477D01*
X138378389Y-50685902D01*
X138300211Y-50740643D01*
X138300208Y-50740645D01*
X138295700Y-50743802D01*
X138133802Y-50905700D01*
X138002477Y-51093251D01*
X138000154Y-51098233D01*
X138000151Y-51098238D01*
X137984195Y-51132457D01*
X137937278Y-51185742D01*
X137869001Y-51205203D01*
X137801041Y-51184661D01*
X137755805Y-51132457D01*
X137739849Y-51098238D01*
X137739846Y-51098233D01*
X137737523Y-51093251D01*
X137606198Y-50905700D01*
X137444300Y-50743802D01*
X137439792Y-50740645D01*
X137439789Y-50740643D01*
X137361611Y-50685902D01*
X137256749Y-50612477D01*
X137251767Y-50610154D01*
X137251762Y-50610151D01*
X137054225Y-50518039D01*
X137054224Y-50518039D01*
X137049243Y-50515716D01*
X137043935Y-50514294D01*
X137043933Y-50514293D01*
X136833402Y-50457881D01*
X136833400Y-50457881D01*
X136828087Y-50456457D01*
X136600000Y-50436502D01*
X136371913Y-50456457D01*
X136366600Y-50457881D01*
X136366598Y-50457881D01*
X136156067Y-50514293D01*
X136156065Y-50514294D01*
X136150757Y-50515716D01*
X136145776Y-50518039D01*
X136145775Y-50518039D01*
X135948238Y-50610151D01*
X135948233Y-50610154D01*
X135943251Y-50612477D01*
X135838389Y-50685902D01*
X135760211Y-50740643D01*
X135760208Y-50740645D01*
X135755700Y-50743802D01*
X135593802Y-50905700D01*
X135462477Y-51093251D01*
X135460154Y-51098233D01*
X135460151Y-51098238D01*
X135444195Y-51132457D01*
X135397278Y-51185742D01*
X135329001Y-51205203D01*
X135261041Y-51184661D01*
X135215805Y-51132457D01*
X135199849Y-51098238D01*
X135199846Y-51098233D01*
X135197523Y-51093251D01*
X135066198Y-50905700D01*
X134904300Y-50743802D01*
X134899792Y-50740645D01*
X134899789Y-50740643D01*
X134821611Y-50685902D01*
X134716749Y-50612477D01*
X134711767Y-50610154D01*
X134711762Y-50610151D01*
X134514225Y-50518039D01*
X134514224Y-50518039D01*
X134509243Y-50515716D01*
X134503935Y-50514294D01*
X134503933Y-50514293D01*
X134293402Y-50457881D01*
X134293400Y-50457881D01*
X134288087Y-50456457D01*
X134060000Y-50436502D01*
X133831913Y-50456457D01*
X133826600Y-50457881D01*
X133826598Y-50457881D01*
X133616067Y-50514293D01*
X133616065Y-50514294D01*
X133610757Y-50515716D01*
X133605776Y-50518039D01*
X133605775Y-50518039D01*
X133408238Y-50610151D01*
X133408233Y-50610154D01*
X133403251Y-50612477D01*
X133298389Y-50685902D01*
X133220211Y-50740643D01*
X133220208Y-50740645D01*
X133215700Y-50743802D01*
X133053802Y-50905700D01*
X132922477Y-51093251D01*
X132920154Y-51098233D01*
X132920151Y-51098238D01*
X132904195Y-51132457D01*
X132857278Y-51185742D01*
X132789001Y-51205203D01*
X132721041Y-51184661D01*
X132675805Y-51132457D01*
X132659849Y-51098238D01*
X132659846Y-51098233D01*
X132657523Y-51093251D01*
X132526198Y-50905700D01*
X132364300Y-50743802D01*
X132359792Y-50740645D01*
X132359789Y-50740643D01*
X132281611Y-50685902D01*
X132176749Y-50612477D01*
X132171767Y-50610154D01*
X132171762Y-50610151D01*
X131974225Y-50518039D01*
X131974224Y-50518039D01*
X131969243Y-50515716D01*
X131963935Y-50514294D01*
X131963933Y-50514293D01*
X131753402Y-50457881D01*
X131753400Y-50457881D01*
X131748087Y-50456457D01*
X131520000Y-50436502D01*
X131291913Y-50456457D01*
X131286600Y-50457881D01*
X131286598Y-50457881D01*
X131076067Y-50514293D01*
X131076065Y-50514294D01*
X131070757Y-50515716D01*
X131065776Y-50518039D01*
X131065775Y-50518039D01*
X130868238Y-50610151D01*
X130868233Y-50610154D01*
X130863251Y-50612477D01*
X130758389Y-50685902D01*
X130680211Y-50740643D01*
X130680208Y-50740645D01*
X130675700Y-50743802D01*
X130513802Y-50905700D01*
X130382477Y-51093251D01*
X130380154Y-51098233D01*
X130380151Y-51098238D01*
X130364195Y-51132457D01*
X130317278Y-51185742D01*
X130249001Y-51205203D01*
X130181041Y-51184661D01*
X130135805Y-51132457D01*
X130119849Y-51098238D01*
X130119846Y-51098233D01*
X130117523Y-51093251D01*
X129986198Y-50905700D01*
X129824300Y-50743802D01*
X129819792Y-50740645D01*
X129819789Y-50740643D01*
X129741611Y-50685902D01*
X129636749Y-50612477D01*
X129631767Y-50610154D01*
X129631762Y-50610151D01*
X129434225Y-50518039D01*
X129434224Y-50518039D01*
X129429243Y-50515716D01*
X129423935Y-50514294D01*
X129423933Y-50514293D01*
X129213402Y-50457881D01*
X129213400Y-50457881D01*
X129208087Y-50456457D01*
X128980000Y-50436502D01*
X128751913Y-50456457D01*
X128746600Y-50457881D01*
X128746598Y-50457881D01*
X128536067Y-50514293D01*
X128536065Y-50514294D01*
X128530757Y-50515716D01*
X128525776Y-50518039D01*
X128525775Y-50518039D01*
X128328238Y-50610151D01*
X128328233Y-50610154D01*
X128323251Y-50612477D01*
X128218389Y-50685902D01*
X128140211Y-50740643D01*
X128140208Y-50740645D01*
X128135700Y-50743802D01*
X127973802Y-50905700D01*
X127842477Y-51093251D01*
X127840154Y-51098233D01*
X127840151Y-51098238D01*
X127824195Y-51132457D01*
X127777278Y-51185742D01*
X127709001Y-51205203D01*
X127641041Y-51184661D01*
X127595805Y-51132457D01*
X127579849Y-51098238D01*
X127579846Y-51098233D01*
X127577523Y-51093251D01*
X127446198Y-50905700D01*
X127284300Y-50743802D01*
X127279792Y-50740645D01*
X127279789Y-50740643D01*
X127201611Y-50685902D01*
X127096749Y-50612477D01*
X127091767Y-50610154D01*
X127091762Y-50610151D01*
X126894225Y-50518039D01*
X126894224Y-50518039D01*
X126889243Y-50515716D01*
X126883935Y-50514294D01*
X126883933Y-50514293D01*
X126673402Y-50457881D01*
X126673400Y-50457881D01*
X126668087Y-50456457D01*
X126440000Y-50436502D01*
X126211913Y-50456457D01*
X126206600Y-50457881D01*
X126206598Y-50457881D01*
X125996067Y-50514293D01*
X125996065Y-50514294D01*
X125990757Y-50515716D01*
X125985776Y-50518039D01*
X125985775Y-50518039D01*
X125788238Y-50610151D01*
X125788233Y-50610154D01*
X125783251Y-50612477D01*
X125678389Y-50685902D01*
X125600211Y-50740643D01*
X125600208Y-50740645D01*
X125595700Y-50743802D01*
X125433802Y-50905700D01*
X125302477Y-51093251D01*
X125300154Y-51098233D01*
X125300151Y-51098238D01*
X125283919Y-51133049D01*
X125237002Y-51186334D01*
X125168725Y-51205795D01*
X125100765Y-51185253D01*
X125055529Y-51133049D01*
X125039414Y-51098489D01*
X125033931Y-51088993D01*
X124908972Y-50910533D01*
X124901916Y-50902125D01*
X124747875Y-50748084D01*
X124739467Y-50741028D01*
X124561007Y-50616069D01*
X124551511Y-50610586D01*
X124354053Y-50518510D01*
X124343761Y-50514764D01*
X124171497Y-50468606D01*
X124157401Y-50468942D01*
X124154000Y-50476884D01*
X124154000Y-53017967D01*
X124157973Y-53031498D01*
X124166523Y-53032727D01*
X124183377Y-53028211D01*
X124254353Y-53029901D01*
X124313149Y-53069696D01*
X124341096Y-53134960D01*
X124329322Y-53204974D01*
X124305082Y-53239013D01*
X123607747Y-53936348D01*
X123599461Y-53943888D01*
X123592982Y-53948000D01*
X123550864Y-53992852D01*
X123546357Y-53997651D01*
X123543602Y-54000493D01*
X123523865Y-54020230D01*
X123521385Y-54023427D01*
X123513682Y-54032447D01*
X123483414Y-54064679D01*
X123479595Y-54071625D01*
X123479593Y-54071628D01*
X123473652Y-54082434D01*
X123462801Y-54098953D01*
X123450386Y-54114959D01*
X123447241Y-54122228D01*
X123447238Y-54122232D01*
X123432826Y-54155537D01*
X123427609Y-54166187D01*
X123406305Y-54204940D01*
X123404334Y-54212615D01*
X123404334Y-54212616D01*
X123401267Y-54224562D01*
X123394863Y-54243266D01*
X123386819Y-54261855D01*
X123385580Y-54269678D01*
X123385577Y-54269688D01*
X123379901Y-54305524D01*
X123377495Y-54317144D01*
X123366500Y-54359970D01*
X123366500Y-54380224D01*
X123364949Y-54399934D01*
X123361780Y-54419943D01*
X123362526Y-54427835D01*
X123365941Y-54463961D01*
X123366500Y-54475819D01*
X123366500Y-63435406D01*
X123346498Y-63503527D01*
X123329595Y-63524501D01*
X122591691Y-64262404D01*
X121857747Y-64996348D01*
X121849461Y-65003888D01*
X121842982Y-65008000D01*
X121837557Y-65013777D01*
X121796357Y-65057651D01*
X121793602Y-65060493D01*
X121773865Y-65080230D01*
X121771385Y-65083427D01*
X121763682Y-65092447D01*
X121733414Y-65124679D01*
X121729595Y-65131625D01*
X121729593Y-65131628D01*
X121723652Y-65142434D01*
X121712801Y-65158953D01*
X121700386Y-65174959D01*
X121697241Y-65182228D01*
X121697238Y-65182232D01*
X121682826Y-65215537D01*
X121677609Y-65226187D01*
X121656305Y-65264940D01*
X121654334Y-65272615D01*
X121654334Y-65272616D01*
X121651267Y-65284562D01*
X121644863Y-65303266D01*
X121636819Y-65321855D01*
X121635580Y-65329678D01*
X121635577Y-65329688D01*
X121629901Y-65365524D01*
X121627495Y-65377144D01*
X121618472Y-65412289D01*
X121616500Y-65419970D01*
X121616500Y-65440224D01*
X121614949Y-65459934D01*
X121611780Y-65479943D01*
X121612526Y-65487835D01*
X121615941Y-65523961D01*
X121616500Y-65535819D01*
X121616500Y-68171233D01*
X121615973Y-68182416D01*
X121614298Y-68189909D01*
X121614547Y-68197835D01*
X121614547Y-68197836D01*
X121616438Y-68257986D01*
X121616500Y-68261945D01*
X121616500Y-68289856D01*
X121616997Y-68293790D01*
X121616997Y-68293791D01*
X121617005Y-68293856D01*
X121617938Y-68305693D01*
X121619327Y-68349889D01*
X121623838Y-68365416D01*
X121624978Y-68369339D01*
X121628987Y-68388700D01*
X121631526Y-68408797D01*
X121634445Y-68416168D01*
X121634445Y-68416170D01*
X121647804Y-68449912D01*
X121651649Y-68461142D01*
X121661771Y-68495983D01*
X121663982Y-68503593D01*
X121668015Y-68510412D01*
X121668017Y-68510417D01*
X121674293Y-68521028D01*
X121682988Y-68538776D01*
X121690448Y-68557617D01*
X121695110Y-68564033D01*
X121695110Y-68564034D01*
X121716436Y-68593387D01*
X121722952Y-68603307D01*
X121735505Y-68624532D01*
X121745458Y-68641362D01*
X121759779Y-68655683D01*
X121772619Y-68670716D01*
X121784528Y-68687107D01*
X121790634Y-68692158D01*
X121818605Y-68715298D01*
X121827384Y-68723288D01*
X123246343Y-70142247D01*
X123253887Y-70150537D01*
X123258000Y-70157018D01*
X123263777Y-70162443D01*
X123307667Y-70203658D01*
X123310509Y-70206413D01*
X123330230Y-70226134D01*
X123333425Y-70228612D01*
X123342447Y-70236318D01*
X123374679Y-70266586D01*
X123381628Y-70270406D01*
X123392432Y-70276346D01*
X123408956Y-70287199D01*
X123424959Y-70299613D01*
X123465543Y-70317176D01*
X123476173Y-70322383D01*
X123514940Y-70343695D01*
X123522617Y-70345666D01*
X123522622Y-70345668D01*
X123534558Y-70348732D01*
X123553266Y-70355137D01*
X123571855Y-70363181D01*
X123579680Y-70364420D01*
X123579682Y-70364421D01*
X123615519Y-70370097D01*
X123627140Y-70372504D01*
X123662289Y-70381528D01*
X123669970Y-70383500D01*
X123690231Y-70383500D01*
X123709940Y-70385051D01*
X123729943Y-70388219D01*
X123737835Y-70387473D01*
X123743062Y-70386979D01*
X123773954Y-70384059D01*
X123785811Y-70383500D01*
X124935406Y-70383500D01*
X125003527Y-70403502D01*
X125024501Y-70420405D01*
X126302878Y-71698783D01*
X126336904Y-71761095D01*
X126339093Y-71774706D01*
X126356458Y-71939928D01*
X126415473Y-72121556D01*
X126418776Y-72127278D01*
X126418777Y-72127279D01*
X126438408Y-72161281D01*
X126510960Y-72286944D01*
X126515378Y-72291851D01*
X126515379Y-72291852D01*
X126633691Y-72423251D01*
X126638747Y-72428866D01*
X126689728Y-72465906D01*
X126750567Y-72510108D01*
X126793248Y-72541118D01*
X126799276Y-72543802D01*
X126799278Y-72543803D01*
X126948304Y-72610153D01*
X126967712Y-72618794D01*
X127041866Y-72634556D01*
X127148056Y-72657128D01*
X127148061Y-72657128D01*
X127154513Y-72658500D01*
X127345487Y-72658500D01*
X127351939Y-72657128D01*
X127351944Y-72657128D01*
X127458134Y-72634556D01*
X127532288Y-72618794D01*
X127551696Y-72610153D01*
X127700722Y-72543803D01*
X127700724Y-72543802D01*
X127706752Y-72541118D01*
X127836145Y-72447108D01*
X127903010Y-72423251D01*
X127972162Y-72439331D01*
X128021642Y-72490244D01*
X128030037Y-72510108D01*
X128070473Y-72634556D01*
X128165960Y-72799944D01*
X128170378Y-72804851D01*
X128170379Y-72804852D01*
X128252452Y-72896003D01*
X128293747Y-72941866D01*
X128392843Y-73013864D01*
X128434051Y-73043803D01*
X128448248Y-73054118D01*
X128454276Y-73056802D01*
X128454278Y-73056803D01*
X128593513Y-73118794D01*
X128622712Y-73131794D01*
X128686888Y-73145435D01*
X128803056Y-73170128D01*
X128803061Y-73170128D01*
X128809513Y-73171500D01*
X129000487Y-73171500D01*
X129006939Y-73170128D01*
X129006944Y-73170128D01*
X129123112Y-73145435D01*
X129187288Y-73131794D01*
X129216487Y-73118794D01*
X129355722Y-73056803D01*
X129355724Y-73056802D01*
X129361752Y-73054118D01*
X129375950Y-73043803D01*
X129497083Y-72955794D01*
X129516253Y-72941866D01*
X129520668Y-72936963D01*
X129525580Y-72932540D01*
X129526705Y-72933789D01*
X129580014Y-72900949D01*
X129613200Y-72896500D01*
X131747233Y-72896500D01*
X131758416Y-72897027D01*
X131765909Y-72898702D01*
X131773835Y-72898453D01*
X131773836Y-72898453D01*
X131833986Y-72896562D01*
X131837945Y-72896500D01*
X131865856Y-72896500D01*
X131869791Y-72896003D01*
X131869856Y-72895995D01*
X131881693Y-72895062D01*
X131913951Y-72894048D01*
X131917970Y-72893922D01*
X131925889Y-72893673D01*
X131945343Y-72888021D01*
X131964700Y-72884013D01*
X131976930Y-72882468D01*
X131976931Y-72882468D01*
X131984797Y-72881474D01*
X131992168Y-72878555D01*
X131992170Y-72878555D01*
X132025912Y-72865196D01*
X132037142Y-72861351D01*
X132071983Y-72851229D01*
X132071984Y-72851229D01*
X132079593Y-72849018D01*
X132086412Y-72844985D01*
X132086417Y-72844983D01*
X132097028Y-72838707D01*
X132114776Y-72830012D01*
X132133617Y-72822552D01*
X132169387Y-72796564D01*
X132179307Y-72790048D01*
X132210535Y-72771580D01*
X132210538Y-72771578D01*
X132217362Y-72767542D01*
X132231683Y-72753221D01*
X132246717Y-72740380D01*
X132256694Y-72733131D01*
X132263107Y-72728472D01*
X132268157Y-72722368D01*
X132268162Y-72722363D01*
X132291293Y-72694402D01*
X132299283Y-72685621D01*
X133234258Y-71750647D01*
X133242537Y-71743113D01*
X133249018Y-71739000D01*
X133295644Y-71689348D01*
X133298398Y-71686507D01*
X133318135Y-71666770D01*
X133320615Y-71663573D01*
X133328320Y-71654551D01*
X133358586Y-71622321D01*
X133362405Y-71615375D01*
X133362407Y-71615372D01*
X133368348Y-71604566D01*
X133379199Y-71588047D01*
X133382234Y-71584134D01*
X133391614Y-71572041D01*
X133394759Y-71564772D01*
X133394762Y-71564768D01*
X133409174Y-71531463D01*
X133414391Y-71520813D01*
X133435695Y-71482060D01*
X133440733Y-71462437D01*
X133447137Y-71443734D01*
X133452033Y-71432420D01*
X133452033Y-71432419D01*
X133455181Y-71425145D01*
X133456420Y-71417322D01*
X133456423Y-71417312D01*
X133462099Y-71381476D01*
X133464505Y-71369856D01*
X133473528Y-71334711D01*
X133473528Y-71334710D01*
X133475500Y-71327030D01*
X133475500Y-71314526D01*
X133495502Y-71246405D01*
X133507863Y-71230216D01*
X133576620Y-71153853D01*
X133581040Y-71148944D01*
X133590432Y-71132678D01*
X133673223Y-70989279D01*
X133673224Y-70989278D01*
X133676527Y-70983556D01*
X133735542Y-70801928D01*
X133736979Y-70788261D01*
X133754814Y-70618565D01*
X133755504Y-70612000D01*
X133752207Y-70580633D01*
X133736232Y-70428635D01*
X133736232Y-70428633D01*
X133735542Y-70422072D01*
X133676527Y-70240444D01*
X133669664Y-70228556D01*
X133612666Y-70129834D01*
X133581040Y-70075056D01*
X133552035Y-70042842D01*
X133457675Y-69938045D01*
X133457674Y-69938044D01*
X133453253Y-69933134D01*
X133412183Y-69903295D01*
X133395875Y-69891446D01*
X133352521Y-69835223D01*
X133346446Y-69764487D01*
X133379578Y-69701695D01*
X133441398Y-69666784D01*
X133469936Y-69663510D01*
X133942595Y-69663510D01*
X134010716Y-69683512D01*
X134031691Y-69700415D01*
X134579549Y-70248274D01*
X134613574Y-70310586D01*
X134616453Y-70337369D01*
X134616453Y-75229000D01*
X134596451Y-75297121D01*
X134542795Y-75343614D01*
X134490453Y-75355000D01*
X134334013Y-75355000D01*
X134327561Y-75356372D01*
X134327556Y-75356372D01*
X134242546Y-75374442D01*
X134147212Y-75394706D01*
X134141182Y-75397391D01*
X134141181Y-75397391D01*
X133978778Y-75469697D01*
X133978776Y-75469698D01*
X133972748Y-75472382D01*
X133818247Y-75584634D01*
X133813826Y-75589544D01*
X133813825Y-75589545D01*
X133705878Y-75709433D01*
X133690460Y-75726556D01*
X133649251Y-75797932D01*
X133599139Y-75884729D01*
X133594973Y-75891944D01*
X133535958Y-76073572D01*
X133535268Y-76080133D01*
X133535268Y-76080135D01*
X133521329Y-76212763D01*
X133515996Y-76263500D01*
X133516686Y-76270065D01*
X133534927Y-76443620D01*
X133522155Y-76513458D01*
X133498712Y-76545886D01*
X133146669Y-76897928D01*
X132800501Y-77244096D01*
X132738189Y-77278121D01*
X132711406Y-77281000D01*
X132014000Y-77281000D01*
X131945879Y-77260998D01*
X131899386Y-77207342D01*
X131888000Y-77155000D01*
X131888000Y-77110766D01*
X131888527Y-77099583D01*
X131890202Y-77092090D01*
X131888062Y-77023999D01*
X131888000Y-77020042D01*
X131888000Y-76992142D01*
X131887496Y-76988151D01*
X131886563Y-76976309D01*
X131886138Y-76962763D01*
X131885174Y-76932109D01*
X131879521Y-76912650D01*
X131875512Y-76893291D01*
X131873985Y-76881206D01*
X131872974Y-76873201D01*
X131870058Y-76865835D01*
X131870056Y-76865829D01*
X131856700Y-76832096D01*
X131852855Y-76820866D01*
X131842730Y-76786015D01*
X131842730Y-76786014D01*
X131840519Y-76778405D01*
X131830205Y-76760964D01*
X131821508Y-76743211D01*
X131816972Y-76731756D01*
X131814052Y-76724381D01*
X131788063Y-76688610D01*
X131781547Y-76678690D01*
X131763078Y-76647461D01*
X131759042Y-76640636D01*
X131744721Y-76626315D01*
X131731880Y-76611281D01*
X131724632Y-76601305D01*
X131719972Y-76594891D01*
X131685907Y-76566710D01*
X131677126Y-76558720D01*
X131280648Y-76162241D01*
X131273114Y-76153962D01*
X131269001Y-76147481D01*
X131219349Y-76100855D01*
X131216508Y-76098101D01*
X131196771Y-76078364D01*
X131193574Y-76075884D01*
X131184552Y-76068179D01*
X131175970Y-76060120D01*
X131152322Y-76037913D01*
X131145376Y-76034094D01*
X131145373Y-76034092D01*
X131134567Y-76028151D01*
X131118048Y-76017300D01*
X131115016Y-76014948D01*
X131102042Y-76004885D01*
X131094773Y-76001740D01*
X131094769Y-76001737D01*
X131061464Y-75987325D01*
X131050814Y-75982108D01*
X131012061Y-75960804D01*
X130992438Y-75955766D01*
X130973735Y-75949362D01*
X130962421Y-75944466D01*
X130962420Y-75944466D01*
X130955146Y-75941318D01*
X130947323Y-75940079D01*
X130947313Y-75940076D01*
X130911477Y-75934400D01*
X130899857Y-75931994D01*
X130864712Y-75922971D01*
X130864711Y-75922971D01*
X130857031Y-75920999D01*
X130836777Y-75920999D01*
X130817066Y-75919448D01*
X130804887Y-75917519D01*
X130797058Y-75916279D01*
X130767787Y-75919046D01*
X130753040Y-75920440D01*
X130741182Y-75920999D01*
X130159766Y-75920999D01*
X130148583Y-75920472D01*
X130141090Y-75918797D01*
X130133164Y-75919046D01*
X130133163Y-75919046D01*
X130073000Y-75920937D01*
X130069042Y-75920999D01*
X130041143Y-75920999D01*
X130037153Y-75921503D01*
X130025319Y-75922435D01*
X129981110Y-75923825D01*
X129973496Y-75926037D01*
X129973491Y-75926038D01*
X129961658Y-75929476D01*
X129942295Y-75933487D01*
X129922202Y-75936025D01*
X129914835Y-75938942D01*
X129914830Y-75938943D01*
X129881091Y-75952301D01*
X129869864Y-75956145D01*
X129827406Y-75968481D01*
X129820580Y-75972518D01*
X129809971Y-75978792D01*
X129792223Y-75987487D01*
X129773382Y-75994947D01*
X129766966Y-75999609D01*
X129766965Y-75999609D01*
X129737612Y-76020935D01*
X129727692Y-76027451D01*
X129696464Y-76045919D01*
X129696461Y-76045921D01*
X129689637Y-76049957D01*
X129675313Y-76064281D01*
X129660286Y-76077116D01*
X129643892Y-76089027D01*
X129638839Y-76095135D01*
X129638837Y-76095137D01*
X129615707Y-76123097D01*
X129607717Y-76131877D01*
X129591511Y-76148083D01*
X129529199Y-76182109D01*
X129502416Y-76184988D01*
X129342495Y-76184988D01*
X129274374Y-76164986D01*
X129253400Y-76148083D01*
X129038053Y-75932736D01*
X129030513Y-75924450D01*
X129026401Y-75917971D01*
X128976748Y-75871344D01*
X128973907Y-75868590D01*
X128954171Y-75848854D01*
X128950974Y-75846374D01*
X128941952Y-75838669D01*
X128928517Y-75826053D01*
X128909722Y-75808403D01*
X128902776Y-75804584D01*
X128902773Y-75804582D01*
X128891967Y-75798641D01*
X128875448Y-75787790D01*
X128874984Y-75787430D01*
X128859442Y-75775375D01*
X128852173Y-75772230D01*
X128852169Y-75772227D01*
X128818864Y-75757815D01*
X128808214Y-75752598D01*
X128769461Y-75731294D01*
X128749838Y-75726256D01*
X128731135Y-75719852D01*
X128719821Y-75714956D01*
X128719820Y-75714956D01*
X128712546Y-75711808D01*
X128704723Y-75710569D01*
X128704713Y-75710566D01*
X128668877Y-75704890D01*
X128657257Y-75702484D01*
X128622112Y-75693461D01*
X128622111Y-75693461D01*
X128614431Y-75691489D01*
X128594177Y-75691489D01*
X128574466Y-75689938D01*
X128571935Y-75689537D01*
X128554458Y-75686769D01*
X128546566Y-75687515D01*
X128510440Y-75690930D01*
X128498582Y-75691489D01*
X127544362Y-75691489D01*
X127533178Y-75690962D01*
X127525690Y-75689288D01*
X127517767Y-75689537D01*
X127457632Y-75691427D01*
X127453674Y-75691489D01*
X127425743Y-75691489D01*
X127421828Y-75691984D01*
X127421824Y-75691984D01*
X127421766Y-75691992D01*
X127421737Y-75691995D01*
X127409895Y-75692928D01*
X127365709Y-75694316D01*
X127348343Y-75699361D01*
X127346257Y-75699967D01*
X127326905Y-75703975D01*
X127319834Y-75704869D01*
X127306802Y-75706515D01*
X127299433Y-75709432D01*
X127299431Y-75709433D01*
X127265696Y-75722789D01*
X127254468Y-75726634D01*
X127212006Y-75738971D01*
X127205184Y-75743005D01*
X127205178Y-75743008D01*
X127194567Y-75749283D01*
X127176817Y-75757979D01*
X127165355Y-75762517D01*
X127165350Y-75762520D01*
X127157982Y-75765437D01*
X127140569Y-75778088D01*
X127122224Y-75791416D01*
X127112306Y-75797932D01*
X127101062Y-75804582D01*
X127074236Y-75820447D01*
X127059912Y-75834771D01*
X127044880Y-75847610D01*
X127028492Y-75859517D01*
X127007635Y-75884729D01*
X127000311Y-75893582D01*
X126992321Y-75902362D01*
X126857088Y-76037595D01*
X126794776Y-76071621D01*
X126767993Y-76074500D01*
X126755700Y-76074500D01*
X126687579Y-76054498D01*
X126668353Y-76038157D01*
X126668080Y-76038460D01*
X126663168Y-76034037D01*
X126658753Y-76029134D01*
X126621044Y-76001737D01*
X126509594Y-75920763D01*
X126509593Y-75920762D01*
X126504252Y-75916882D01*
X126498224Y-75914198D01*
X126498222Y-75914197D01*
X126335819Y-75841891D01*
X126335818Y-75841891D01*
X126329788Y-75839206D01*
X126222561Y-75816414D01*
X126149444Y-75800872D01*
X126149439Y-75800872D01*
X126142987Y-75799500D01*
X125952013Y-75799500D01*
X125945561Y-75800872D01*
X125945556Y-75800872D01*
X125872439Y-75816414D01*
X125765212Y-75839206D01*
X125759182Y-75841891D01*
X125759181Y-75841891D01*
X125596778Y-75914197D01*
X125596776Y-75914198D01*
X125590748Y-75916882D01*
X125585407Y-75920762D01*
X125585406Y-75920763D01*
X125565767Y-75935032D01*
X125436247Y-76029134D01*
X125431826Y-76034044D01*
X125431825Y-76034045D01*
X125322016Y-76156001D01*
X125308460Y-76171056D01*
X125212973Y-76336444D01*
X125153958Y-76518072D01*
X125153268Y-76524633D01*
X125153268Y-76524635D01*
X125141697Y-76634729D01*
X125133996Y-76708000D01*
X125134686Y-76714565D01*
X125152483Y-76883891D01*
X125153958Y-76897928D01*
X125212973Y-77079556D01*
X125216276Y-77085278D01*
X125216277Y-77085279D01*
X125235730Y-77118973D01*
X125308460Y-77244944D01*
X125312878Y-77249851D01*
X125312879Y-77249852D01*
X125423511Y-77372721D01*
X125436247Y-77386866D01*
X125590748Y-77499118D01*
X125596776Y-77501802D01*
X125596778Y-77501803D01*
X125742394Y-77566635D01*
X125765212Y-77576794D01*
X125858613Y-77596647D01*
X125945556Y-77615128D01*
X125945561Y-77615128D01*
X125952013Y-77616500D01*
X126142987Y-77616500D01*
X126149439Y-77615128D01*
X126149444Y-77615128D01*
X126236387Y-77596647D01*
X126329788Y-77576794D01*
X126367347Y-77560072D01*
X126464250Y-77516928D01*
X126534617Y-77507494D01*
X126598914Y-77537601D01*
X126636728Y-77597689D01*
X126641499Y-77632035D01*
X126641499Y-77769234D01*
X126640972Y-77780417D01*
X126639297Y-77787910D01*
X126639546Y-77795836D01*
X126639546Y-77795837D01*
X126641437Y-77855987D01*
X126641499Y-77859946D01*
X126641499Y-77887857D01*
X126641996Y-77891791D01*
X126641996Y-77891792D01*
X126642004Y-77891857D01*
X126642937Y-77903694D01*
X126644326Y-77947890D01*
X126649977Y-77967340D01*
X126653986Y-77986701D01*
X126656525Y-78006798D01*
X126659444Y-78014169D01*
X126659444Y-78014171D01*
X126672803Y-78047913D01*
X126676648Y-78059143D01*
X126688981Y-78101594D01*
X126693014Y-78108413D01*
X126693016Y-78108418D01*
X126699292Y-78119029D01*
X126707987Y-78136777D01*
X126715447Y-78155618D01*
X126720109Y-78162034D01*
X126720109Y-78162035D01*
X126741435Y-78191388D01*
X126747951Y-78201308D01*
X126770457Y-78239363D01*
X126784781Y-78253687D01*
X126797616Y-78268714D01*
X126809527Y-78285108D01*
X126815635Y-78290161D01*
X126815637Y-78290163D01*
X126843597Y-78313293D01*
X126852377Y-78321283D01*
X126879585Y-78348491D01*
X126913611Y-78410803D01*
X126916490Y-78437586D01*
X126916490Y-81216396D01*
X126896488Y-81284517D01*
X126842832Y-81331010D01*
X126772558Y-81341114D01*
X126707978Y-81311620D01*
X126701395Y-81305491D01*
X126697122Y-81301218D01*
X126663096Y-81238906D01*
X126660907Y-81225293D01*
X126644232Y-81066635D01*
X126644232Y-81066633D01*
X126643542Y-81060072D01*
X126584527Y-80878444D01*
X126563990Y-80842872D01*
X126492341Y-80718774D01*
X126489040Y-80713056D01*
X126361253Y-80571134D01*
X126206752Y-80458882D01*
X126200724Y-80456198D01*
X126200722Y-80456197D01*
X126038319Y-80383891D01*
X126038318Y-80383891D01*
X126032288Y-80381206D01*
X125938888Y-80361353D01*
X125851944Y-80342872D01*
X125851939Y-80342872D01*
X125845487Y-80341500D01*
X125654513Y-80341500D01*
X125648061Y-80342872D01*
X125648056Y-80342872D01*
X125561112Y-80361353D01*
X125467712Y-80381206D01*
X125461682Y-80383891D01*
X125461681Y-80383891D01*
X125299278Y-80456197D01*
X125299276Y-80456198D01*
X125293248Y-80458882D01*
X125138747Y-80571134D01*
X125010960Y-80713056D01*
X125007659Y-80718774D01*
X124936011Y-80842872D01*
X124915473Y-80878444D01*
X124856458Y-81060072D01*
X124836496Y-81250000D01*
X124856458Y-81439928D01*
X124915473Y-81621556D01*
X124918776Y-81627278D01*
X124918777Y-81627279D01*
X124952686Y-81686010D01*
X125010960Y-81786944D01*
X125015378Y-81791851D01*
X125015379Y-81791852D01*
X125134325Y-81923955D01*
X125138747Y-81928866D01*
X125293248Y-82041118D01*
X125299276Y-82043802D01*
X125299278Y-82043803D01*
X125461681Y-82116109D01*
X125467712Y-82118794D01*
X125542680Y-82134729D01*
X125648056Y-82157128D01*
X125648061Y-82157128D01*
X125654513Y-82158500D01*
X125710405Y-82158500D01*
X125778526Y-82178502D01*
X125799501Y-82195405D01*
X126429576Y-82825481D01*
X126463601Y-82887793D01*
X126466480Y-82914576D01*
X126466480Y-87666423D01*
X126446478Y-87734544D01*
X126429575Y-87755519D01*
X126207743Y-87977350D01*
X126199464Y-87984884D01*
X126192983Y-87988997D01*
X126146358Y-88038648D01*
X126143603Y-88041490D01*
X126123866Y-88061227D01*
X126121386Y-88064424D01*
X126113683Y-88073444D01*
X126083415Y-88105676D01*
X126079596Y-88112622D01*
X126079594Y-88112625D01*
X126073653Y-88123431D01*
X126062802Y-88139950D01*
X126050387Y-88155956D01*
X126047242Y-88163225D01*
X126047239Y-88163229D01*
X126032827Y-88196534D01*
X126027610Y-88207184D01*
X126006306Y-88245937D01*
X126004335Y-88253612D01*
X126004335Y-88253613D01*
X126001268Y-88265559D01*
X125994864Y-88284263D01*
X125986820Y-88302852D01*
X125985581Y-88310675D01*
X125985578Y-88310685D01*
X125979902Y-88346521D01*
X125977496Y-88358141D01*
X125966501Y-88400967D01*
X125966501Y-88421221D01*
X125964950Y-88440931D01*
X125961781Y-88460940D01*
X125962527Y-88468832D01*
X125965942Y-88504958D01*
X125966501Y-88516816D01*
X125966501Y-92021234D01*
X125965974Y-92032417D01*
X125964299Y-92039910D01*
X125964548Y-92047836D01*
X125964548Y-92047837D01*
X125966439Y-92107987D01*
X125966501Y-92111946D01*
X125966501Y-92139857D01*
X125966998Y-92143791D01*
X125966998Y-92143792D01*
X125967006Y-92143857D01*
X125967939Y-92155694D01*
X125969328Y-92199890D01*
X125973068Y-92212763D01*
X125974979Y-92219340D01*
X125978988Y-92238701D01*
X125981527Y-92258798D01*
X125984446Y-92266169D01*
X125984446Y-92266171D01*
X125997805Y-92299913D01*
X126001650Y-92311143D01*
X126003426Y-92317255D01*
X126013983Y-92353594D01*
X126018016Y-92360413D01*
X126018018Y-92360418D01*
X126024294Y-92371029D01*
X126032989Y-92388777D01*
X126040449Y-92407618D01*
X126045112Y-92414036D01*
X126063123Y-92438827D01*
X126083114Y-92500355D01*
X126086496Y-92500000D01*
X126103186Y-92658793D01*
X126106458Y-92689928D01*
X126165473Y-92871556D01*
X126168776Y-92877278D01*
X126168777Y-92877279D01*
X126186803Y-92908500D01*
X126260960Y-93036944D01*
X126388747Y-93178866D01*
X126543248Y-93291118D01*
X126549276Y-93293802D01*
X126549278Y-93293803D01*
X126651972Y-93339525D01*
X126717712Y-93368794D01*
X126811113Y-93388647D01*
X126898056Y-93407128D01*
X126898061Y-93407128D01*
X126904513Y-93408500D01*
X127095487Y-93408500D01*
X127101939Y-93407128D01*
X127101944Y-93407128D01*
X127188888Y-93388647D01*
X127282288Y-93368794D01*
X127348028Y-93339525D01*
X127450722Y-93293803D01*
X127450724Y-93293802D01*
X127456752Y-93291118D01*
X127611253Y-93178866D01*
X127739040Y-93036944D01*
X127813197Y-92908500D01*
X127831223Y-92877279D01*
X127831224Y-92877278D01*
X127834527Y-92871556D01*
X127893542Y-92689928D01*
X127896815Y-92658793D01*
X127912814Y-92506565D01*
X127913504Y-92500000D01*
X127897664Y-92349286D01*
X127894232Y-92316635D01*
X127894232Y-92316633D01*
X127893542Y-92310072D01*
X127834527Y-92128444D01*
X127813990Y-92092872D01*
X127783412Y-92039910D01*
X127739040Y-91963056D01*
X127611253Y-91821134D01*
X127456752Y-91708882D01*
X127450724Y-91706198D01*
X127450722Y-91706197D01*
X127308252Y-91642766D01*
X127254157Y-91596786D01*
X127233501Y-91527659D01*
X127233501Y-89436969D01*
X127253503Y-89368848D01*
X127307159Y-89322355D01*
X127377433Y-89312251D01*
X127403805Y-89319860D01*
X127403900Y-89319568D01*
X127410180Y-89321608D01*
X127416212Y-89324294D01*
X127484429Y-89338794D01*
X127596556Y-89362628D01*
X127596561Y-89362628D01*
X127603013Y-89364000D01*
X127793987Y-89364000D01*
X127800439Y-89362628D01*
X127800444Y-89362628D01*
X127912571Y-89338794D01*
X127980788Y-89324294D01*
X127991403Y-89319568D01*
X128149222Y-89249303D01*
X128149224Y-89249302D01*
X128155252Y-89246618D01*
X128163500Y-89240626D01*
X128261080Y-89169729D01*
X128309753Y-89134366D01*
X128314175Y-89129455D01*
X128433121Y-88997352D01*
X128433122Y-88997351D01*
X128437540Y-88992444D01*
X128533027Y-88827056D01*
X128592042Y-88645428D01*
X128594032Y-88626500D01*
X128611314Y-88462065D01*
X128612004Y-88455500D01*
X128601771Y-88358141D01*
X128592732Y-88272135D01*
X128592732Y-88272133D01*
X128592042Y-88265572D01*
X128533027Y-88083944D01*
X128529328Y-88077536D01*
X128440841Y-87924274D01*
X128437540Y-87918556D01*
X128364363Y-87837285D01*
X128333647Y-87773279D01*
X128332000Y-87752976D01*
X128332000Y-87307287D01*
X128332527Y-87296104D01*
X128334202Y-87288611D01*
X128332062Y-87220520D01*
X128332000Y-87216563D01*
X128332000Y-87188664D01*
X128331496Y-87184673D01*
X128330563Y-87172831D01*
X128330533Y-87171858D01*
X128329174Y-87128631D01*
X128326962Y-87121017D01*
X128326961Y-87121012D01*
X128323523Y-87109179D01*
X128319512Y-87089815D01*
X128317967Y-87077584D01*
X128316974Y-87069723D01*
X128314057Y-87062356D01*
X128314056Y-87062351D01*
X128300698Y-87028612D01*
X128296854Y-87017385D01*
X128286730Y-86982542D01*
X128284518Y-86974927D01*
X128274207Y-86957492D01*
X128265512Y-86939744D01*
X128258052Y-86920903D01*
X128232064Y-86885133D01*
X128225548Y-86875213D01*
X128203042Y-86837158D01*
X128205286Y-86835831D01*
X128183983Y-86781570D01*
X128183490Y-86770433D01*
X128183490Y-84298584D01*
X128203492Y-84230463D01*
X128257148Y-84183970D01*
X128327422Y-84173866D01*
X128392002Y-84203360D01*
X128398585Y-84209489D01*
X129544343Y-85355247D01*
X129551887Y-85363537D01*
X129556000Y-85370018D01*
X129561777Y-85375443D01*
X129605667Y-85416658D01*
X129608509Y-85419413D01*
X129628230Y-85439134D01*
X129631425Y-85441612D01*
X129640447Y-85449318D01*
X129672679Y-85479586D01*
X129679628Y-85483406D01*
X129690432Y-85489346D01*
X129706956Y-85500199D01*
X129722959Y-85512613D01*
X129763543Y-85530176D01*
X129774173Y-85535383D01*
X129812940Y-85556695D01*
X129820617Y-85558666D01*
X129820622Y-85558668D01*
X129832558Y-85561732D01*
X129851266Y-85568137D01*
X129869855Y-85576181D01*
X129877680Y-85577420D01*
X129877682Y-85577421D01*
X129913519Y-85583097D01*
X129925140Y-85585504D01*
X129960289Y-85594528D01*
X129967970Y-85596500D01*
X129988231Y-85596500D01*
X130007940Y-85598051D01*
X130027943Y-85601219D01*
X130035835Y-85600473D01*
X130041062Y-85599979D01*
X130071954Y-85597059D01*
X130083811Y-85596500D01*
X131605445Y-85596500D01*
X131673566Y-85616502D01*
X131686462Y-85626349D01*
X131688737Y-85628876D01*
X131694079Y-85632757D01*
X131694081Y-85632759D01*
X131775150Y-85691659D01*
X131843238Y-85741128D01*
X131849266Y-85743812D01*
X131849268Y-85743813D01*
X131891683Y-85762697D01*
X131945779Y-85808677D01*
X131966434Y-85877804D01*
X131966434Y-90769786D01*
X131946432Y-90837907D01*
X131929529Y-90858881D01*
X131857747Y-90930663D01*
X131849461Y-90938203D01*
X131842982Y-90942315D01*
X131837557Y-90948092D01*
X131796357Y-90991966D01*
X131793602Y-90994808D01*
X131773865Y-91014545D01*
X131771385Y-91017742D01*
X131763682Y-91026762D01*
X131733414Y-91058994D01*
X131729595Y-91065940D01*
X131729593Y-91065943D01*
X131723652Y-91076749D01*
X131712801Y-91093268D01*
X131700386Y-91109274D01*
X131697241Y-91116543D01*
X131697238Y-91116547D01*
X131682826Y-91149852D01*
X131677609Y-91160502D01*
X131656305Y-91199255D01*
X131654334Y-91206930D01*
X131654334Y-91206931D01*
X131651267Y-91218877D01*
X131644863Y-91237581D01*
X131636819Y-91256170D01*
X131635580Y-91263993D01*
X131635577Y-91264003D01*
X131629900Y-91299845D01*
X131627514Y-91311387D01*
X131627249Y-91312420D01*
X131598825Y-91365473D01*
X131553611Y-91415687D01*
X131523965Y-91448613D01*
X131510960Y-91463056D01*
X131415473Y-91628444D01*
X131356458Y-91810072D01*
X131336496Y-92000000D01*
X131337186Y-92006565D01*
X131352861Y-92155700D01*
X131356458Y-92189928D01*
X131415473Y-92371556D01*
X131510960Y-92536944D01*
X131515378Y-92541851D01*
X131515379Y-92541852D01*
X131634325Y-92673955D01*
X131638747Y-92678866D01*
X131793248Y-92791118D01*
X131799276Y-92793802D01*
X131799278Y-92793803D01*
X131959799Y-92865271D01*
X131967712Y-92868794D01*
X132061112Y-92888647D01*
X132148056Y-92907128D01*
X132148061Y-92907128D01*
X132154513Y-92908500D01*
X132345487Y-92908500D01*
X132351939Y-92907128D01*
X132351944Y-92907128D01*
X132438887Y-92888647D01*
X132532288Y-92868794D01*
X132540201Y-92865271D01*
X132700722Y-92793803D01*
X132700724Y-92793802D01*
X132706752Y-92791118D01*
X132861253Y-92678866D01*
X132865675Y-92673955D01*
X132984621Y-92541852D01*
X132984622Y-92541851D01*
X132989040Y-92536944D01*
X133084527Y-92371556D01*
X133143542Y-92189928D01*
X133147140Y-92155700D01*
X133162814Y-92006565D01*
X133163504Y-92000000D01*
X133143542Y-91810072D01*
X133084527Y-91628444D01*
X133081223Y-91622721D01*
X133078539Y-91616693D01*
X133080657Y-91615750D01*
X133066427Y-91557091D01*
X133089647Y-91489999D01*
X133100434Y-91476832D01*
X133111092Y-91465482D01*
X133116520Y-91459702D01*
X133124369Y-91445425D01*
X133126280Y-91441949D01*
X133137133Y-91425426D01*
X133144687Y-91415687D01*
X133149547Y-91409422D01*
X133167110Y-91368838D01*
X133172317Y-91358208D01*
X133193629Y-91319441D01*
X133195600Y-91311764D01*
X133195602Y-91311759D01*
X133198666Y-91299823D01*
X133205072Y-91281111D01*
X133209968Y-91269798D01*
X133213115Y-91262526D01*
X133218508Y-91228481D01*
X133220031Y-91218862D01*
X133222438Y-91207241D01*
X133231462Y-91172092D01*
X133231462Y-91172091D01*
X133233434Y-91164411D01*
X133233434Y-91144150D01*
X133234985Y-91124439D01*
X133236913Y-91112266D01*
X133238153Y-91104438D01*
X133233993Y-91060427D01*
X133233434Y-91048570D01*
X133233434Y-85428697D01*
X133233961Y-85417513D01*
X133235635Y-85410025D01*
X133233496Y-85341966D01*
X133233434Y-85338009D01*
X133233434Y-85310078D01*
X133232928Y-85306072D01*
X133231995Y-85294226D01*
X133230856Y-85257971D01*
X133230607Y-85250044D01*
X133224956Y-85230592D01*
X133220948Y-85211240D01*
X133219402Y-85199002D01*
X133219401Y-85199000D01*
X133218408Y-85191137D01*
X133205891Y-85159523D01*
X133197733Y-85099970D01*
X133212804Y-84956576D01*
X133212804Y-84956575D01*
X133213494Y-84950010D01*
X133205160Y-84870713D01*
X133194222Y-84766645D01*
X133194222Y-84766643D01*
X133193532Y-84760082D01*
X133134517Y-84578454D01*
X133039030Y-84413066D01*
X133014392Y-84385702D01*
X132915665Y-84276055D01*
X132915662Y-84276052D01*
X132911243Y-84271144D01*
X132781427Y-84176827D01*
X132762084Y-84162773D01*
X132762083Y-84162772D01*
X132756742Y-84158892D01*
X132750714Y-84156208D01*
X132750712Y-84156207D01*
X132588309Y-84083901D01*
X132588308Y-84083901D01*
X132582278Y-84081216D01*
X132488877Y-84061363D01*
X132401934Y-84042882D01*
X132401929Y-84042882D01*
X132395477Y-84041510D01*
X132204503Y-84041510D01*
X132198051Y-84042882D01*
X132198046Y-84042882D01*
X132111103Y-84061363D01*
X132017702Y-84081216D01*
X132011672Y-84083901D01*
X132011671Y-84083901D01*
X131849268Y-84156207D01*
X131849266Y-84156208D01*
X131843238Y-84158892D01*
X131837897Y-84162772D01*
X131837896Y-84162773D01*
X131706030Y-84258580D01*
X131688737Y-84271144D01*
X131684318Y-84276052D01*
X131673731Y-84287810D01*
X131613285Y-84325050D01*
X131580094Y-84329500D01*
X130362595Y-84329500D01*
X130294474Y-84309498D01*
X130273500Y-84292595D01*
X128670405Y-82689500D01*
X128636379Y-82627188D01*
X128633500Y-82600405D01*
X128633500Y-78202524D01*
X128653502Y-78134403D01*
X128665858Y-78118221D01*
X128739040Y-78036944D01*
X128780579Y-77964997D01*
X128831960Y-77916005D01*
X128889697Y-77901998D01*
X129710895Y-77901998D01*
X129779016Y-77922000D01*
X129804527Y-77943684D01*
X129817747Y-77958366D01*
X129856747Y-77986701D01*
X129948594Y-78053432D01*
X129972248Y-78070618D01*
X129978276Y-78073302D01*
X129978278Y-78073303D01*
X130099511Y-78127279D01*
X130146712Y-78148294D01*
X130240113Y-78168147D01*
X130327056Y-78186628D01*
X130327061Y-78186628D01*
X130333513Y-78188000D01*
X130524487Y-78188000D01*
X130530939Y-78186628D01*
X130530944Y-78186628D01*
X130617887Y-78168147D01*
X130711288Y-78148294D01*
X130767103Y-78123444D01*
X130813535Y-78102771D01*
X130883902Y-78093337D01*
X130948199Y-78123444D01*
X130953879Y-78128783D01*
X131131843Y-78306747D01*
X131139387Y-78315037D01*
X131143500Y-78321518D01*
X131149277Y-78326943D01*
X131193167Y-78368158D01*
X131196009Y-78370913D01*
X131215730Y-78390634D01*
X131218925Y-78393112D01*
X131227947Y-78400818D01*
X131260179Y-78431086D01*
X131267128Y-78434906D01*
X131277932Y-78440846D01*
X131294456Y-78451699D01*
X131310459Y-78464113D01*
X131351043Y-78481676D01*
X131361673Y-78486883D01*
X131400440Y-78508195D01*
X131408117Y-78510166D01*
X131408122Y-78510168D01*
X131420058Y-78513232D01*
X131438766Y-78519637D01*
X131457355Y-78527681D01*
X131465180Y-78528920D01*
X131465182Y-78528921D01*
X131501019Y-78534597D01*
X131512640Y-78537004D01*
X131544459Y-78545173D01*
X131555470Y-78548000D01*
X131575731Y-78548000D01*
X131595440Y-78549551D01*
X131615443Y-78552719D01*
X131623335Y-78551973D01*
X131628562Y-78551479D01*
X131659454Y-78548559D01*
X131671311Y-78548000D01*
X132947235Y-78548000D01*
X132958418Y-78548527D01*
X132965911Y-78550202D01*
X132973837Y-78549953D01*
X132973838Y-78549953D01*
X133033988Y-78548062D01*
X133037947Y-78548000D01*
X133065858Y-78548000D01*
X133069793Y-78547503D01*
X133069858Y-78547495D01*
X133081695Y-78546562D01*
X133113953Y-78545548D01*
X133117972Y-78545422D01*
X133125891Y-78545173D01*
X133145345Y-78539521D01*
X133164702Y-78535513D01*
X133176932Y-78533968D01*
X133176933Y-78533968D01*
X133184799Y-78532974D01*
X133192170Y-78530055D01*
X133192172Y-78530055D01*
X133225914Y-78516696D01*
X133237144Y-78512851D01*
X133271985Y-78502729D01*
X133271986Y-78502729D01*
X133279595Y-78500518D01*
X133286414Y-78496485D01*
X133286419Y-78496483D01*
X133297030Y-78490207D01*
X133314778Y-78481512D01*
X133333619Y-78474052D01*
X133353989Y-78459253D01*
X133369389Y-78448064D01*
X133379309Y-78441548D01*
X133410537Y-78423080D01*
X133410540Y-78423078D01*
X133417364Y-78419042D01*
X133431685Y-78404721D01*
X133446719Y-78391880D01*
X133448434Y-78390634D01*
X133463109Y-78379972D01*
X133491300Y-78345895D01*
X133499290Y-78337116D01*
X133685315Y-78151091D01*
X133747627Y-78117065D01*
X133818442Y-78122130D01*
X133868045Y-78155874D01*
X133888747Y-78178866D01*
X134043248Y-78291118D01*
X134049281Y-78293804D01*
X134049286Y-78293807D01*
X134091692Y-78312688D01*
X134145788Y-78358668D01*
X134166443Y-78427794D01*
X134166443Y-93815252D01*
X134146441Y-93883373D01*
X134092785Y-93929866D01*
X134040443Y-93941252D01*
X133159986Y-93941252D01*
X133148803Y-93940725D01*
X133141310Y-93939050D01*
X133133384Y-93939299D01*
X133133383Y-93939299D01*
X133073220Y-93941190D01*
X133069262Y-93941252D01*
X133041362Y-93941252D01*
X133037372Y-93941756D01*
X133025538Y-93942688D01*
X132981329Y-93944078D01*
X132973713Y-93946291D01*
X132973711Y-93946291D01*
X132961870Y-93949731D01*
X132942511Y-93953740D01*
X132941201Y-93953906D01*
X132922421Y-93956278D01*
X132915055Y-93959194D01*
X132915049Y-93959196D01*
X132881316Y-93972552D01*
X132870086Y-93976397D01*
X132835235Y-93986522D01*
X132827625Y-93988733D01*
X132820802Y-93992768D01*
X132810184Y-93999047D01*
X132792431Y-94007744D01*
X132784786Y-94010771D01*
X132773601Y-94015200D01*
X132767186Y-94019861D01*
X132737830Y-94041189D01*
X132727913Y-94047703D01*
X132689856Y-94070210D01*
X132675535Y-94084531D01*
X132660502Y-94097371D01*
X132644111Y-94109280D01*
X132639060Y-94115386D01*
X132615920Y-94143357D01*
X132607930Y-94152136D01*
X131082489Y-95677576D01*
X131020177Y-95711602D01*
X130993394Y-95714481D01*
X130932376Y-95714481D01*
X130921193Y-95713954D01*
X130913700Y-95712279D01*
X130905774Y-95712528D01*
X130905773Y-95712528D01*
X130845610Y-95714419D01*
X130841652Y-95714481D01*
X130813753Y-95714481D01*
X130809763Y-95714985D01*
X130797929Y-95715917D01*
X130753720Y-95717307D01*
X130746106Y-95719519D01*
X130746101Y-95719520D01*
X130734268Y-95722958D01*
X130714905Y-95726969D01*
X130694812Y-95729507D01*
X130687445Y-95732424D01*
X130687440Y-95732425D01*
X130653701Y-95745783D01*
X130642474Y-95749627D01*
X130600016Y-95761963D01*
X130593190Y-95766000D01*
X130582581Y-95772274D01*
X130564833Y-95780969D01*
X130545992Y-95788429D01*
X130539576Y-95793091D01*
X130539575Y-95793091D01*
X130510222Y-95814417D01*
X130500302Y-95820933D01*
X130469074Y-95839401D01*
X130469071Y-95839403D01*
X130462247Y-95843439D01*
X130447926Y-95857760D01*
X130432893Y-95870600D01*
X130416502Y-95882509D01*
X130388311Y-95916586D01*
X130380321Y-95925365D01*
X129357747Y-96947938D01*
X129349461Y-96955478D01*
X129342982Y-96959590D01*
X129337557Y-96965367D01*
X129296357Y-97009241D01*
X129293602Y-97012083D01*
X129273865Y-97031820D01*
X129271385Y-97035017D01*
X129263682Y-97044037D01*
X129233414Y-97076269D01*
X129229595Y-97083215D01*
X129229593Y-97083218D01*
X129223652Y-97094024D01*
X129212801Y-97110543D01*
X129200386Y-97126549D01*
X129197241Y-97133818D01*
X129197238Y-97133822D01*
X129182826Y-97167127D01*
X129177609Y-97177777D01*
X129156305Y-97216530D01*
X129154334Y-97224205D01*
X129154334Y-97224206D01*
X129151267Y-97236152D01*
X129144863Y-97254856D01*
X129136819Y-97273445D01*
X129135580Y-97281268D01*
X129135577Y-97281278D01*
X129129901Y-97317114D01*
X129127495Y-97328734D01*
X129126364Y-97333141D01*
X129116500Y-97371560D01*
X129116500Y-97391814D01*
X129114949Y-97411524D01*
X129111780Y-97431533D01*
X129112526Y-97439425D01*
X129115941Y-97475551D01*
X129116500Y-97487409D01*
X129116500Y-98435406D01*
X129096498Y-98503527D01*
X129079595Y-98524501D01*
X127774500Y-99829595D01*
X127712188Y-99863621D01*
X127685405Y-99866500D01*
X125447286Y-99866500D01*
X125379165Y-99846498D01*
X125332672Y-99792842D01*
X125322994Y-99733571D01*
X125322014Y-99733571D01*
X125322014Y-99727567D01*
X125321976Y-99727334D01*
X125322014Y-99726972D01*
X125322014Y-99726965D01*
X125322704Y-99720400D01*
X125307722Y-99577850D01*
X125303432Y-99537035D01*
X125303432Y-99537033D01*
X125302742Y-99530472D01*
X125243727Y-99348844D01*
X125148240Y-99183456D01*
X125075063Y-99102185D01*
X125044347Y-99038179D01*
X125042700Y-99017876D01*
X125042700Y-96087968D01*
X125043227Y-96076785D01*
X125044902Y-96069292D01*
X125042762Y-96001201D01*
X125042700Y-95997244D01*
X125042700Y-95969344D01*
X125042196Y-95965353D01*
X125041263Y-95953511D01*
X125040379Y-95925365D01*
X125039874Y-95909311D01*
X125034221Y-95889852D01*
X125030212Y-95870493D01*
X125029489Y-95864774D01*
X125027674Y-95850403D01*
X125024758Y-95843037D01*
X125024756Y-95843031D01*
X125011400Y-95809298D01*
X125007555Y-95798068D01*
X124997430Y-95763217D01*
X124997430Y-95763216D01*
X124995219Y-95755607D01*
X124984905Y-95738166D01*
X124976208Y-95720413D01*
X124971672Y-95708958D01*
X124968752Y-95701583D01*
X124942763Y-95665812D01*
X124936247Y-95655892D01*
X124917778Y-95624663D01*
X124913742Y-95617838D01*
X124899421Y-95603517D01*
X124886580Y-95588483D01*
X124879331Y-95578506D01*
X124874672Y-95572093D01*
X124840595Y-95543902D01*
X124831816Y-95535912D01*
X123447122Y-94151217D01*
X123413096Y-94088905D01*
X123410907Y-94075292D01*
X123394232Y-93916635D01*
X123394232Y-93916633D01*
X123393542Y-93910072D01*
X123334527Y-93728444D01*
X123239040Y-93563056D01*
X123229771Y-93552761D01*
X123115675Y-93426045D01*
X123115674Y-93426044D01*
X123111253Y-93421134D01*
X122956752Y-93308882D01*
X122950724Y-93306198D01*
X122950722Y-93306197D01*
X122788319Y-93233891D01*
X122788318Y-93233891D01*
X122782288Y-93231206D01*
X122688888Y-93211353D01*
X122601944Y-93192872D01*
X122601939Y-93192872D01*
X122595487Y-93191500D01*
X122404513Y-93191500D01*
X122398061Y-93192872D01*
X122398056Y-93192872D01*
X122311112Y-93211353D01*
X122217712Y-93231206D01*
X122211682Y-93233891D01*
X122211681Y-93233891D01*
X122049278Y-93306197D01*
X122049276Y-93306198D01*
X122043248Y-93308882D01*
X121888747Y-93421134D01*
X121884326Y-93426044D01*
X121884325Y-93426045D01*
X121770230Y-93552761D01*
X121760960Y-93563056D01*
X121665473Y-93728444D01*
X121606458Y-93910072D01*
X121605768Y-93916633D01*
X121605768Y-93916635D01*
X121591992Y-94047705D01*
X121586496Y-94100000D01*
X121606458Y-94289928D01*
X121665473Y-94471556D01*
X121760960Y-94636944D01*
X121888747Y-94778866D01*
X122043248Y-94891118D01*
X122049276Y-94893802D01*
X122049278Y-94893803D01*
X122211681Y-94966109D01*
X122217712Y-94968794D01*
X122311112Y-94988647D01*
X122398056Y-95007128D01*
X122398061Y-95007128D01*
X122404513Y-95008500D01*
X122460406Y-95008500D01*
X122528527Y-95028502D01*
X122549501Y-95045405D01*
X123738795Y-96234699D01*
X123772821Y-96297011D01*
X123775700Y-96323794D01*
X123775700Y-99017876D01*
X123755698Y-99085997D01*
X123743342Y-99102179D01*
X123670160Y-99183456D01*
X123574673Y-99348844D01*
X123515658Y-99530472D01*
X123514968Y-99537033D01*
X123514968Y-99537035D01*
X123510678Y-99577850D01*
X123495696Y-99720400D01*
X123496386Y-99726965D01*
X123496386Y-99726972D01*
X123496424Y-99727334D01*
X123496386Y-99727542D01*
X123496386Y-99733571D01*
X123495283Y-99733571D01*
X123483650Y-99797172D01*
X123435146Y-99849017D01*
X123371114Y-99866500D01*
X121460144Y-99866500D01*
X121403432Y-99873665D01*
X121349068Y-99880532D01*
X121349065Y-99880533D01*
X121341203Y-99881526D01*
X121192383Y-99940448D01*
X121062893Y-100034528D01*
X120960867Y-100157856D01*
X120957494Y-100165023D01*
X120957492Y-100165027D01*
X120953291Y-100173955D01*
X120892717Y-100302682D01*
X120862725Y-100459906D01*
X120872775Y-100619650D01*
X120875224Y-100627186D01*
X120875224Y-100627188D01*
X120888280Y-100667369D01*
X120922236Y-100771875D01*
X120923055Y-100773166D01*
X120933523Y-100840508D01*
X120904768Y-100905421D01*
X120845484Y-100944483D01*
X120808609Y-100950000D01*
X120626000Y-100950000D01*
X120557879Y-100929998D01*
X120511386Y-100876342D01*
X120500000Y-100824000D01*
X120500000Y-100500000D01*
X120119667Y-100500000D01*
X120093362Y-100496151D01*
X120093338Y-100496312D01*
X120084458Y-100494985D01*
X120075859Y-100492413D01*
X120066885Y-100492358D01*
X120066884Y-100492358D01*
X120059949Y-100492316D01*
X120041444Y-100492203D01*
X120040672Y-100492170D01*
X120039577Y-100492000D01*
X120008702Y-100492000D01*
X120007932Y-100491998D01*
X119934284Y-100491548D01*
X119934283Y-100491548D01*
X119930348Y-100491524D01*
X119929004Y-100491908D01*
X119927659Y-100492000D01*
X119884000Y-100492000D01*
X119815879Y-100471998D01*
X119769386Y-100418342D01*
X119758000Y-100366000D01*
X119758000Y-52016522D01*
X122617273Y-52016522D01*
X122664764Y-52193761D01*
X122668510Y-52204053D01*
X122760586Y-52401511D01*
X122766069Y-52411007D01*
X122891028Y-52589467D01*
X122898084Y-52597875D01*
X123052125Y-52751916D01*
X123060533Y-52758972D01*
X123238993Y-52883931D01*
X123248489Y-52889414D01*
X123445947Y-52981490D01*
X123456239Y-52985236D01*
X123628503Y-53031394D01*
X123642599Y-53031058D01*
X123646000Y-53023116D01*
X123646000Y-52022115D01*
X123641525Y-52006876D01*
X123640135Y-52005671D01*
X123632452Y-52004000D01*
X122632033Y-52004000D01*
X122618502Y-52007973D01*
X122617273Y-52016522D01*
X119758000Y-52016522D01*
X119758000Y-51478503D01*
X122618606Y-51478503D01*
X122618942Y-51492599D01*
X122626884Y-51496000D01*
X123627885Y-51496000D01*
X123643124Y-51491525D01*
X123644329Y-51490135D01*
X123646000Y-51482452D01*
X123646000Y-50482033D01*
X123642027Y-50468502D01*
X123633478Y-50467273D01*
X123456239Y-50514764D01*
X123445947Y-50518510D01*
X123248489Y-50610586D01*
X123238993Y-50616069D01*
X123060533Y-50741028D01*
X123052125Y-50748084D01*
X122898084Y-50902125D01*
X122891028Y-50910533D01*
X122766069Y-51088993D01*
X122760586Y-51098489D01*
X122668510Y-51295947D01*
X122664764Y-51306239D01*
X122618606Y-51478503D01*
X119758000Y-51478503D01*
X119758000Y-49634000D01*
X119778002Y-49565879D01*
X119831658Y-49519386D01*
X119884000Y-49508000D01*
X164616000Y-49508000D01*
X164684121Y-49528002D01*
G37*
G04 #@! TD.AperFunction*
M02*
