M48
; DRILL file {KiCad (6.0.2)} date Sat Feb 19 19:54:09 2022
; FORMAT={-:-/ absolute / inch / decimal}
; #@! TF.CreationDate,2022-02-19T19:54:09+00:00
; #@! TF.GenerationSoftware,Kicad,Pcbnew,(6.0.2)
; #@! TF.FileFunction,Plated,1,2,PTH
FMAT,2
INCH
; #@! TA.AperFunction,Plated,PTH,ViaDrill
T1C0.0157
; #@! TA.AperFunction,Plated,PTH,ComponentDrill
T2C0.0315
%
G90
G05
T1
X4.8228Y-3.7047
X4.898Y-3.926
X4.9508Y-3.1988
X4.9625Y-3.02
X4.9783Y-3.8189
X4.9783Y-3.8681
X5.0Y-3.6417
X5.0098Y-2.8248
X5.0275Y-3.4825
X5.0335Y-3.8189
X5.034Y-3.868
X5.0394Y-3.0512
X5.075Y-2.845
X5.0984Y-2.8051
X5.1083Y-2.3819
X5.124Y-3.2776
X5.135Y-3.0425
X5.1476Y-2.3425
X5.1476Y-2.7953
X5.1476Y-3.8583
X5.1535Y-3.3051
X5.187Y-2.3031
X5.187Y-3.8583
X5.2067Y-3.622
X5.2087Y-3.3445
X5.2264Y-2.2441
X5.2264Y-3.8583
X5.23Y-2.78
X5.2343Y-3.2087
X5.2559Y-2.185
X5.2618Y-3.2402
X5.2657Y-3.8583
X5.2776Y-2.815
X5.2776Y-2.8563
X5.2925Y-3.0025
X5.2953Y-3.0512
X5.3051Y-3.8583
X5.3445Y-3.8583
X5.3839Y-3.8583
X5.3937Y-2.4114
X5.4232Y-3.8583
X5.4331Y-2.3524
X5.4626Y-3.8583
X5.4724Y-2.3031
X5.4921Y-2.2441
X5.502Y-2.185
X5.502Y-3.8583
X5.5413Y-3.8583
X5.5807Y-3.8583
X5.5906Y-2.9626
X5.6201Y-3.4055
X5.655Y-3.075
X5.6594Y-3.4252
X5.6693Y-2.9232
X5.69Y-3.2776
X5.7087Y-2.8248
X5.725Y-2.925
X5.7283Y-3.2874
X5.745Y-2.845
X5.75Y-3.392
X5.775Y-2.925
X5.7776Y-2.815
X5.7874Y-3.4154
X5.788Y-3.922
X5.795Y-3.125
X5.896Y-3.35
X5.9449Y-2.8445
X5.9646Y-2.7835
X5.9646Y-3.9528
X5.9902Y-2.748
X5.9941Y-2.9232
X5.9961Y-3.3701
X6.0276Y-3.4035
X6.045Y-3.07
X6.0531Y-2.9134
X6.0531Y-3.002
X6.0531Y-3.2185
X6.074Y-3.576
X6.0925Y-3.248
X6.1319Y-3.0315
X6.1417Y-3.248
X6.1516Y-2.5689
X6.1811Y-2.8445
X6.19Y-3.525
X6.1909Y-3.248
X6.2008Y-3.061
X6.2303Y-3.6614
X6.2402Y-2.874
X6.325Y-2.88
X6.3406Y-3.2736
X6.3406Y-3.315
X6.3484Y-2.7756
X6.4154Y-2.7539
X6.4567Y-2.7323
X6.4567Y-2.7756
X6.4961Y-3.9173
T2
X4.878Y-2.0374
X4.878Y-2.6374
X4.978Y-2.0374
X4.978Y-2.6374
X5.078Y-2.0374
X5.078Y-2.6374
X5.178Y-2.0374
X5.178Y-2.6374
X5.278Y-2.0374
X5.278Y-2.6374
X5.378Y-2.0374
X5.378Y-2.6374
X5.478Y-2.0374
X5.478Y-2.6374
X5.578Y-2.0374
X5.578Y-2.6374
X5.678Y-2.0374
X5.678Y-2.6374
X5.778Y-2.0374
X5.778Y-2.6374
X5.878Y-2.0374
X5.878Y-2.6374
X5.978Y-2.0374
X5.978Y-2.6374
X6.078Y-2.0374
X6.078Y-2.6374
X6.178Y-2.0374
X6.178Y-2.6374
X6.278Y-2.0374
X6.278Y-2.6374
X6.378Y-2.0374
X6.378Y-2.6374
T0
M30
