G04 #@! TF.GenerationSoftware,KiCad,Pcbnew,(6.0.2)*
G04 #@! TF.CreationDate,2022-02-19T19:54:12+00:00*
G04 #@! TF.ProjectId,Gameboy 64KB Cart Discrete Logic Fixed Rev2,47616d65-626f-4792-9036-344b42204361,rev?*
G04 #@! TF.SameCoordinates,Original*
G04 #@! TF.FileFunction,Legend,Bot*
G04 #@! TF.FilePolarity,Positive*
%FSLAX46Y46*%
G04 Gerber Fmt 4.6, Leading zero omitted, Abs format (unit mm)*
G04 Created by KiCad (PCBNEW (6.0.2)) date 2022-02-19 19:54:12*
%MOMM*%
%LPD*%
G01*
G04 APERTURE LIST*
G04 APERTURE END LIST*
G36*
X155374434Y-94471025D02*
G01*
X155054421Y-94960216D01*
X154986214Y-95027200D01*
X154739486Y-95220665D01*
X154481529Y-95288376D01*
X154095434Y-95267832D01*
X153925669Y-95247121D01*
X153542062Y-95182149D01*
X153287876Y-95113954D01*
X153166422Y-95084579D01*
X153087849Y-95177152D01*
X153068911Y-95466028D01*
X153075975Y-95737248D01*
X153147121Y-96136781D01*
X153331688Y-96413198D01*
X153674540Y-96618671D01*
X154220536Y-96805377D01*
X154276926Y-96822192D01*
X154739909Y-96978356D01*
X155113421Y-97134159D01*
X155321127Y-97258195D01*
X155325433Y-97262446D01*
X155421277Y-97400963D01*
X155367945Y-97543858D01*
X155139455Y-97763383D01*
X154943934Y-97918021D01*
X154725260Y-98017359D01*
X154438098Y-98042048D01*
X153992862Y-98011473D01*
X153492167Y-97932755D01*
X152836741Y-97740466D01*
X152272598Y-97477586D01*
X151879158Y-97175527D01*
X151739978Y-96919814D01*
X151600643Y-96459217D01*
X151481911Y-95866151D01*
X151393684Y-95201680D01*
X151351048Y-94599970D01*
X151749139Y-94599970D01*
X151779230Y-95254754D01*
X151855636Y-95850199D01*
X151978580Y-96316819D01*
X152012282Y-96402408D01*
X152220235Y-96826796D01*
X152476106Y-97111136D01*
X152846939Y-97310251D01*
X153399779Y-97478966D01*
X153609684Y-97531029D01*
X154251620Y-97652344D01*
X154675118Y-97659235D01*
X154883341Y-97551858D01*
X154883461Y-97551663D01*
X154844785Y-97424249D01*
X154621742Y-97303011D01*
X154279436Y-97212364D01*
X153882975Y-97176723D01*
X153784234Y-97172440D01*
X153410491Y-97057363D01*
X153015258Y-96755299D01*
X153006578Y-96747098D01*
X152727269Y-96443923D01*
X152599389Y-96162417D01*
X152569116Y-95785594D01*
X152582368Y-95510845D01*
X152637296Y-95090652D01*
X152719801Y-94699690D01*
X152813466Y-94411317D01*
X152901870Y-94298890D01*
X152941357Y-94315268D01*
X153130251Y-94449283D01*
X153400835Y-94674260D01*
X153510045Y-94764646D01*
X153958550Y-95005558D01*
X154371227Y-95000804D01*
X154755468Y-94750801D01*
X154871655Y-94613915D01*
X155085771Y-94189847D01*
X155189847Y-93704465D01*
X155181762Y-93228200D01*
X155059397Y-92831478D01*
X154820635Y-92584730D01*
X154507827Y-92428902D01*
X154437339Y-93212933D01*
X154420008Y-93394455D01*
X154354590Y-93859583D01*
X154260587Y-94134504D01*
X154114848Y-94265509D01*
X153894219Y-94298890D01*
X153770532Y-94284399D01*
X153478118Y-94125592D01*
X153169107Y-93772443D01*
X152820137Y-93201073D01*
X152814037Y-93189946D01*
X152564621Y-92786927D01*
X152365201Y-92607179D01*
X152184095Y-92637937D01*
X151989624Y-92866437D01*
X151934535Y-92974473D01*
X151827014Y-93390341D01*
X151765141Y-93955336D01*
X151749139Y-94599970D01*
X151351048Y-94599970D01*
X151345868Y-94526871D01*
X151348366Y-93902790D01*
X151356047Y-93776121D01*
X151443142Y-93098218D01*
X151603322Y-92639385D01*
X151847278Y-92379119D01*
X152185700Y-92296920D01*
X152318887Y-92299522D01*
X152701330Y-92369107D01*
X152971972Y-92574231D01*
X153213942Y-92969249D01*
X153353866Y-93236431D01*
X153628560Y-93677397D01*
X153839046Y-93887321D01*
X153979910Y-93865202D01*
X154045741Y-93610034D01*
X154031125Y-93120813D01*
X154017667Y-92966909D01*
X154005599Y-92528883D01*
X154075728Y-92261954D01*
X154257076Y-92106964D01*
X154578667Y-92004754D01*
X154714069Y-91983147D01*
X155088491Y-92064475D01*
X155361409Y-92362632D01*
X155515642Y-92861902D01*
X155539614Y-93050419D01*
X155539290Y-93704465D01*
X155539233Y-93820469D01*
X155374434Y-94471025D01*
G37*
G36*
X166281948Y-95478399D02*
G01*
X165957789Y-95527371D01*
X165491453Y-95547204D01*
X164942052Y-95539063D01*
X164368698Y-95504114D01*
X163830503Y-95443523D01*
X163386578Y-95358458D01*
X162945779Y-95222919D01*
X162240977Y-94866919D01*
X161659948Y-94345273D01*
X161148687Y-93615931D01*
X161097971Y-93527696D01*
X160738144Y-92760913D01*
X160585877Y-92071610D01*
X160616632Y-91671304D01*
X161077958Y-91671304D01*
X161082080Y-91969484D01*
X161143429Y-92648287D01*
X161300578Y-93185514D01*
X161582011Y-93655944D01*
X162016216Y-94134358D01*
X162299576Y-94394566D01*
X162812564Y-94759272D01*
X163349240Y-94984475D01*
X163667604Y-95066186D01*
X164171726Y-95159966D01*
X164709868Y-95230724D01*
X165225984Y-95274111D01*
X165664028Y-95285778D01*
X165967955Y-95261375D01*
X166081719Y-95196550D01*
X166081285Y-95189430D01*
X165969487Y-95037030D01*
X165719915Y-94868960D01*
X165655396Y-94832949D01*
X165425260Y-94636293D01*
X165255279Y-94339704D01*
X165134062Y-93905711D01*
X165050218Y-93296841D01*
X164992355Y-92475623D01*
X164985964Y-92343904D01*
X164974964Y-91601902D01*
X165026417Y-91065262D01*
X165151233Y-90699344D01*
X165360321Y-90469507D01*
X165664590Y-90341109D01*
X165852912Y-90255525D01*
X165921189Y-90123613D01*
X165901842Y-90083626D01*
X165678418Y-89920351D01*
X165271533Y-89787177D01*
X164734774Y-89687989D01*
X164121727Y-89626672D01*
X163485979Y-89607110D01*
X162881118Y-89633187D01*
X162360730Y-89708788D01*
X161978402Y-89837798D01*
X161756157Y-89975228D01*
X161369100Y-90381848D01*
X161148095Y-90936901D01*
X161077958Y-91671304D01*
X160616632Y-91671304D01*
X160636677Y-91410405D01*
X160886056Y-90727917D01*
X161239359Y-90155668D01*
X161736593Y-89694234D01*
X161978804Y-89545545D01*
X162219838Y-89443710D01*
X162510327Y-89386768D01*
X162917172Y-89361960D01*
X163507274Y-89356526D01*
X164179100Y-89378073D01*
X164909040Y-89454789D01*
X165520863Y-89578252D01*
X165970767Y-89739210D01*
X166214948Y-89928412D01*
X166328092Y-90220475D01*
X166279646Y-90453245D01*
X166073493Y-90545196D01*
X165767875Y-90589985D01*
X165462422Y-90804991D01*
X165290122Y-91207159D01*
X165247216Y-91806958D01*
X165329942Y-92614854D01*
X165332873Y-92633420D01*
X165455466Y-93346472D01*
X165570716Y-93852963D01*
X165693534Y-94194626D01*
X165838830Y-94413193D01*
X166021516Y-94550399D01*
X166062393Y-94574163D01*
X166314151Y-94826426D01*
X166440578Y-95140423D01*
X166432152Y-95196550D01*
X166398922Y-95417887D01*
X166281948Y-95478399D01*
G37*
G36*
X159830329Y-92169245D02*
G01*
X159660990Y-92221847D01*
X159334571Y-92208035D01*
X158840114Y-92093566D01*
X158715096Y-92059758D01*
X158218818Y-91959372D01*
X157906844Y-91979130D01*
X157744839Y-92128791D01*
X157698467Y-92418116D01*
X157700282Y-92534107D01*
X157743120Y-92713801D01*
X157896509Y-92785772D01*
X158230241Y-92800161D01*
X158347104Y-92805604D01*
X158835250Y-92890915D01*
X159298060Y-93046202D01*
X159620026Y-93234042D01*
X159972028Y-93619255D01*
X160113004Y-94063828D01*
X160043430Y-94522012D01*
X159763786Y-94948059D01*
X159274548Y-95296220D01*
X158961157Y-95428158D01*
X158364715Y-95549150D01*
X157843206Y-95483627D01*
X157444386Y-95233232D01*
X157146684Y-94916342D01*
X156980648Y-95233232D01*
X156897070Y-95360132D01*
X156648516Y-95529677D01*
X156394691Y-95500294D01*
X156209485Y-95268595D01*
X156204598Y-95253662D01*
X156172450Y-95000070D01*
X156157880Y-94561058D01*
X156161639Y-93994145D01*
X156162140Y-93980176D01*
X156463700Y-93980176D01*
X156485396Y-94536600D01*
X156545139Y-94924506D01*
X156671105Y-95362437D01*
X156890958Y-94830664D01*
X156963430Y-94671766D01*
X157126780Y-94404518D01*
X157258575Y-94298890D01*
X157337798Y-94331934D01*
X157551703Y-94513061D01*
X157808546Y-94799383D01*
X157847441Y-94846836D01*
X158199374Y-95183602D01*
X158500790Y-95299876D01*
X158526862Y-95299450D01*
X158939718Y-95175162D01*
X159270990Y-94876750D01*
X159483757Y-94472669D01*
X159541097Y-94031376D01*
X159406090Y-93621327D01*
X159383153Y-93588303D01*
X159026907Y-93293853D01*
X158508599Y-93116423D01*
X157892913Y-93079188D01*
X157832323Y-93082786D01*
X157536136Y-93074412D01*
X157383679Y-92969096D01*
X157284023Y-92712005D01*
X157219180Y-92276915D01*
X157329964Y-91810317D01*
X157645226Y-91466007D01*
X157710519Y-91424255D01*
X157881770Y-91343912D01*
X158068042Y-91339450D01*
X158340880Y-91418713D01*
X158771825Y-91589547D01*
X158791927Y-91597794D01*
X159199755Y-91761212D01*
X159507053Y-91877354D01*
X159648665Y-91921551D01*
X159684823Y-91826301D01*
X159677468Y-91577462D01*
X159537183Y-91263967D01*
X159221995Y-90943947D01*
X158806200Y-90672343D01*
X158363336Y-90496957D01*
X157966944Y-90465590D01*
X157568222Y-90571838D01*
X157068332Y-90892118D01*
X156733884Y-91399509D01*
X156676651Y-91577114D01*
X156586527Y-92053703D01*
X156518302Y-92663336D01*
X156476014Y-93330624D01*
X156463700Y-93980176D01*
X156162140Y-93980176D01*
X156184479Y-93356852D01*
X156201822Y-93024444D01*
X156241564Y-92426547D01*
X156290696Y-91997163D01*
X156359943Y-91679650D01*
X156460032Y-91417365D01*
X156601690Y-91153667D01*
X156845649Y-90798263D01*
X157334514Y-90341121D01*
X157878906Y-90096644D01*
X158446908Y-90076274D01*
X159006603Y-90291453D01*
X159212580Y-90431578D01*
X159626196Y-90810935D01*
X159913944Y-91218071D01*
X160056660Y-91609295D01*
X160042602Y-91826301D01*
X160035177Y-91940917D01*
X159830329Y-92169245D01*
G37*
G36*
X155554206Y-82454037D02*
G01*
X155165884Y-82537314D01*
X154791036Y-82537314D01*
X154878115Y-83582682D01*
X154896186Y-83831612D01*
X154902466Y-84616116D01*
X154807370Y-85205842D01*
X154603261Y-85630769D01*
X154282502Y-85920878D01*
X154109797Y-86012229D01*
X153538674Y-86157250D01*
X152962291Y-86105876D01*
X152447793Y-85871782D01*
X152062325Y-85468647D01*
X152051365Y-85450712D01*
X151876042Y-85025879D01*
X152214583Y-85025879D01*
X152304384Y-85264261D01*
X152346344Y-85324011D01*
X152595757Y-85531127D01*
X152942669Y-85712908D01*
X153291916Y-85840639D01*
X153622875Y-85900112D01*
X153875388Y-85827672D01*
X154129853Y-85616811D01*
X154358388Y-85306827D01*
X154496325Y-84876415D01*
X154529646Y-84301770D01*
X154465552Y-83538299D01*
X154430515Y-83218763D01*
X154422200Y-82752418D01*
X154509231Y-82467789D01*
X154709627Y-82325723D01*
X155041409Y-82287068D01*
X155062953Y-82286704D01*
X155273344Y-82213420D01*
X155306629Y-82062026D01*
X155181456Y-81903755D01*
X154916473Y-81809841D01*
X154835422Y-81795615D01*
X154629467Y-81690453D01*
X154426771Y-81451060D01*
X154180652Y-81027821D01*
X153966077Y-80655557D01*
X153780316Y-80387421D01*
X153665592Y-80285097D01*
X153627516Y-80319124D01*
X153580387Y-80533394D01*
X153574048Y-80879432D01*
X153586926Y-81185971D01*
X153582229Y-81529018D01*
X153522163Y-81707787D01*
X153380615Y-81775798D01*
X153131472Y-81786575D01*
X153074044Y-81787616D01*
X152803549Y-81827499D01*
X152693541Y-81907296D01*
X152698148Y-81937154D01*
X152842319Y-82097039D01*
X153115824Y-82230933D01*
X153419683Y-82287068D01*
X153487167Y-82297266D01*
X153638247Y-82438639D01*
X153740538Y-82763218D01*
X153798919Y-83292571D01*
X153818273Y-84048262D01*
X153814577Y-84351412D01*
X153779998Y-84714467D01*
X153692021Y-84952291D01*
X153530058Y-85143090D01*
X153203846Y-85359465D01*
X152837921Y-85383792D01*
X152505162Y-85164133D01*
X152467937Y-85124180D01*
X152278000Y-84974748D01*
X152214583Y-85025879D01*
X151876042Y-85025879D01*
X151864431Y-84997743D01*
X151886235Y-84625321D01*
X152115293Y-84364378D01*
X152308023Y-84290993D01*
X152410047Y-84391280D01*
X152414412Y-84402412D01*
X152543345Y-84615604D01*
X152754998Y-84887707D01*
X152922649Y-85065115D01*
X153081280Y-85138101D01*
X153242264Y-85051671D01*
X153346754Y-84893763D01*
X153431941Y-84483281D01*
X153438521Y-83881925D01*
X153364711Y-83117832D01*
X153340262Y-82951256D01*
X153271624Y-82677450D01*
X153154861Y-82561389D01*
X152942101Y-82537314D01*
X152634857Y-82478162D01*
X152389558Y-82250812D01*
X152339848Y-81887305D01*
X152358241Y-81799695D01*
X152490793Y-81630409D01*
X152796421Y-81559008D01*
X153212110Y-81519125D01*
X153125934Y-80714427D01*
X153039758Y-79909728D01*
X153437929Y-79909728D01*
X153877520Y-79963301D01*
X154200819Y-80164924D01*
X154363686Y-80534099D01*
X154436574Y-80760735D01*
X154683397Y-81143990D01*
X155016465Y-81426337D01*
X155364437Y-81536329D01*
X155614130Y-81605150D01*
X155750882Y-81861105D01*
X155752376Y-82062026D01*
X155753529Y-82217177D01*
X155554206Y-82454037D01*
G37*
G36*
X166276388Y-84481005D02*
G01*
X166179763Y-84989900D01*
X166015090Y-85385435D01*
X165775022Y-85709536D01*
X165542433Y-85916977D01*
X165212340Y-86034987D01*
X164920142Y-85906699D01*
X164667260Y-85532969D01*
X164455118Y-84914654D01*
X164409348Y-84747739D01*
X164199613Y-84204225D01*
X163949597Y-83889808D01*
X163647870Y-83788546D01*
X163645075Y-83788550D01*
X163268731Y-83894180D01*
X163034359Y-84198315D01*
X162953640Y-84685857D01*
X162933256Y-84966871D01*
X162810106Y-85283154D01*
X162528221Y-85615344D01*
X162288048Y-85828116D01*
X161918029Y-86013197D01*
X161593029Y-85962195D01*
X161298278Y-85670390D01*
X161019003Y-85133059D01*
X160941836Y-84832726D01*
X160878443Y-84316306D01*
X160839067Y-83668246D01*
X160823863Y-82950475D01*
X160832983Y-82224925D01*
X160835562Y-82173386D01*
X161101999Y-82173386D01*
X161104469Y-83173170D01*
X161106770Y-83284212D01*
X161123325Y-83939117D01*
X161146794Y-84401335D01*
X161186177Y-84721277D01*
X161250474Y-84949353D01*
X161348685Y-85135972D01*
X161489810Y-85331544D01*
X161501471Y-85346724D01*
X161819976Y-85680163D01*
X162079399Y-85786188D01*
X162268707Y-85660143D01*
X162275592Y-85646327D01*
X162327724Y-85432687D01*
X162386355Y-85053027D01*
X162440059Y-84579417D01*
X162480933Y-84209133D01*
X162554090Y-83817920D01*
X162659723Y-83568578D01*
X162818661Y-83395996D01*
X163109382Y-83250229D01*
X163558096Y-83172051D01*
X164013111Y-83199204D01*
X164359948Y-83336136D01*
X164418665Y-83387245D01*
X164664407Y-83748826D01*
X164869559Y-84287294D01*
X165009997Y-84943018D01*
X165080419Y-85305774D01*
X165204512Y-85570472D01*
X165379255Y-85608205D01*
X165620400Y-85431583D01*
X165762960Y-85205222D01*
X165895955Y-84734088D01*
X165968844Y-84117155D01*
X165984839Y-83408875D01*
X165947152Y-82663699D01*
X165858993Y-81936078D01*
X165723576Y-81280462D01*
X165544110Y-80751302D01*
X165323809Y-80403049D01*
X165253768Y-80336113D01*
X165015864Y-80183595D01*
X164822118Y-80225619D01*
X164645323Y-80479813D01*
X164458269Y-80963805D01*
X164343665Y-81291060D01*
X164155437Y-81704455D01*
X163950624Y-81934351D01*
X163685941Y-82020131D01*
X163318100Y-82001178D01*
X162953884Y-81925217D01*
X162600329Y-81727670D01*
X162396446Y-81382246D01*
X162301474Y-80842490D01*
X162272335Y-80567844D01*
X162216362Y-80238179D01*
X162158896Y-80074262D01*
X162004147Y-80048240D01*
X161731248Y-80108055D01*
X161580424Y-80187111D01*
X161378200Y-80427580D01*
X161234178Y-80823505D01*
X161143673Y-81397802D01*
X161101999Y-82173386D01*
X160835562Y-82173386D01*
X160866582Y-81553527D01*
X160924811Y-80998209D01*
X161007826Y-80620903D01*
X161238984Y-80125426D01*
X161564462Y-79775175D01*
X161956726Y-79659482D01*
X162002213Y-79660359D01*
X162328877Y-79751759D01*
X162539876Y-80017761D01*
X162664538Y-80492898D01*
X162806157Y-81064719D01*
X163057030Y-81502038D01*
X163399171Y-81714741D01*
X163607154Y-81744424D01*
X163866508Y-81660481D01*
X164053423Y-81386642D01*
X164196995Y-80892935D01*
X164206788Y-80847666D01*
X164344088Y-80318611D01*
X164493441Y-79993512D01*
X164683555Y-79829724D01*
X164943139Y-79784605D01*
X165025623Y-79788570D01*
X165470276Y-79943820D01*
X165842575Y-80285631D01*
X166079600Y-80760000D01*
X166135431Y-81054681D01*
X166194066Y-81538860D01*
X166246979Y-82139146D01*
X166287211Y-82787560D01*
X166294892Y-82955439D01*
X166304063Y-83408875D01*
X166312314Y-83816826D01*
X166276388Y-84481005D01*
G37*
G36*
X159955452Y-82659886D02*
G01*
X159786113Y-82712487D01*
X159459694Y-82698676D01*
X158965237Y-82584207D01*
X158840219Y-82550398D01*
X158343941Y-82450013D01*
X158031967Y-82469770D01*
X157869962Y-82619431D01*
X157823591Y-82908757D01*
X157825406Y-83024747D01*
X157868244Y-83204442D01*
X158021632Y-83276413D01*
X158355364Y-83290801D01*
X158472227Y-83296245D01*
X158960373Y-83381556D01*
X159423183Y-83536842D01*
X159745149Y-83724683D01*
X160097152Y-84109895D01*
X160238127Y-84554468D01*
X160168553Y-85012653D01*
X159888909Y-85438700D01*
X159399671Y-85786861D01*
X159086280Y-85918798D01*
X158489838Y-86039790D01*
X157968329Y-85974267D01*
X157569509Y-85723873D01*
X157271807Y-85406983D01*
X157105772Y-85723873D01*
X157022193Y-85850772D01*
X156773639Y-86020317D01*
X156519814Y-85990935D01*
X156334608Y-85759235D01*
X156329721Y-85744303D01*
X156297574Y-85490711D01*
X156283003Y-85051698D01*
X156286762Y-84484786D01*
X156287263Y-84470816D01*
X156588823Y-84470816D01*
X156610519Y-85027240D01*
X156670262Y-85415147D01*
X156796228Y-85853078D01*
X157016081Y-85321304D01*
X157088553Y-85162406D01*
X157251903Y-84895158D01*
X157383698Y-84789531D01*
X157462922Y-84822575D01*
X157676826Y-85003702D01*
X157933669Y-85290023D01*
X157972564Y-85337476D01*
X158324497Y-85674242D01*
X158625913Y-85790516D01*
X158651985Y-85790091D01*
X159064841Y-85665803D01*
X159396113Y-85367390D01*
X159608880Y-84963310D01*
X159666220Y-84522017D01*
X159531214Y-84111968D01*
X159508276Y-84078944D01*
X159152031Y-83784493D01*
X158633722Y-83607063D01*
X158018036Y-83569828D01*
X157957446Y-83573427D01*
X157661259Y-83565053D01*
X157508802Y-83459737D01*
X157409146Y-83202645D01*
X157344304Y-82767556D01*
X157455088Y-82300957D01*
X157770349Y-81956647D01*
X157835642Y-81914896D01*
X158006893Y-81834553D01*
X158193165Y-81830090D01*
X158466003Y-81909353D01*
X158896948Y-82080188D01*
X158917050Y-82088434D01*
X159324878Y-82251852D01*
X159632176Y-82367994D01*
X159773788Y-82412191D01*
X159809946Y-82316941D01*
X159802591Y-82068102D01*
X159662306Y-81754607D01*
X159347118Y-81434588D01*
X158931323Y-81162984D01*
X158488459Y-80987597D01*
X158092067Y-80956231D01*
X157693345Y-81062479D01*
X157193455Y-81382759D01*
X156859008Y-81890150D01*
X156801774Y-82067754D01*
X156711650Y-82544343D01*
X156643425Y-83153977D01*
X156601137Y-83821265D01*
X156588823Y-84470816D01*
X156287263Y-84470816D01*
X156309602Y-83847493D01*
X156326945Y-83515084D01*
X156366687Y-82917188D01*
X156415819Y-82487804D01*
X156485066Y-82170290D01*
X156585156Y-81908006D01*
X156726813Y-81644307D01*
X156970772Y-81288903D01*
X157459638Y-80831762D01*
X158004030Y-80587285D01*
X158572032Y-80566914D01*
X159131727Y-80782094D01*
X159337703Y-80922218D01*
X159751319Y-81301575D01*
X160039068Y-81708711D01*
X160181783Y-82099936D01*
X160167725Y-82316941D01*
X160160300Y-82431558D01*
X159955452Y-82659886D01*
G37*
G36*
X152371479Y-75452305D02*
G01*
X152051466Y-75941496D01*
X151983258Y-76008481D01*
X151736531Y-76201946D01*
X151478573Y-76269656D01*
X151092478Y-76249113D01*
X150922713Y-76228402D01*
X150539107Y-76163430D01*
X150284921Y-76095235D01*
X150163467Y-76065860D01*
X150084893Y-76158433D01*
X150065955Y-76447309D01*
X150073019Y-76718529D01*
X150144165Y-77118062D01*
X150328733Y-77394478D01*
X150671584Y-77599952D01*
X151217580Y-77786657D01*
X151273971Y-77803473D01*
X151736953Y-77959637D01*
X152110465Y-78115440D01*
X152318172Y-78239476D01*
X152322477Y-78243727D01*
X152418321Y-78382243D01*
X152364989Y-78525139D01*
X152136499Y-78744664D01*
X151940978Y-78899302D01*
X151722305Y-78998640D01*
X151435143Y-79023329D01*
X150989906Y-78992754D01*
X150489212Y-78914036D01*
X149833785Y-78721747D01*
X149269642Y-78458867D01*
X148876203Y-78156808D01*
X148737023Y-77901095D01*
X148597688Y-77440498D01*
X148478955Y-76847432D01*
X148390728Y-76182961D01*
X148348092Y-75581251D01*
X148746183Y-75581251D01*
X148776274Y-76236035D01*
X148852680Y-76831480D01*
X148975624Y-77298099D01*
X149009326Y-77383689D01*
X149217279Y-77808077D01*
X149473150Y-78092416D01*
X149843984Y-78291532D01*
X150396824Y-78460247D01*
X150606728Y-78512310D01*
X151248664Y-78633625D01*
X151672162Y-78640516D01*
X151880386Y-78533139D01*
X151880506Y-78532944D01*
X151841830Y-78405530D01*
X151618786Y-78284292D01*
X151276480Y-78193645D01*
X150880019Y-78158004D01*
X150781279Y-78153721D01*
X150407536Y-78038644D01*
X150012302Y-77736579D01*
X150003623Y-77728379D01*
X149724313Y-77425204D01*
X149596433Y-77143698D01*
X149566160Y-76766875D01*
X149579413Y-76492126D01*
X149634340Y-76071933D01*
X149716845Y-75680971D01*
X149810510Y-75392598D01*
X149898914Y-75280171D01*
X149938401Y-75296549D01*
X150127296Y-75430564D01*
X150397879Y-75655541D01*
X150507089Y-75745927D01*
X150955594Y-75986839D01*
X151368271Y-75982085D01*
X151752513Y-75732082D01*
X151868699Y-75595196D01*
X152082816Y-75171128D01*
X152186891Y-74685746D01*
X152178806Y-74209480D01*
X152056442Y-73812759D01*
X151817679Y-73566011D01*
X151504871Y-73410183D01*
X151434383Y-74194214D01*
X151417053Y-74375736D01*
X151351635Y-74840864D01*
X151257632Y-75115785D01*
X151111892Y-75246790D01*
X150891264Y-75280171D01*
X150767576Y-75265680D01*
X150475162Y-75106873D01*
X150166152Y-74753724D01*
X149817181Y-74182353D01*
X149811081Y-74171227D01*
X149561666Y-73768208D01*
X149362245Y-73588459D01*
X149181139Y-73619218D01*
X148986668Y-73847717D01*
X148931579Y-73955753D01*
X148824058Y-74371622D01*
X148762186Y-74936617D01*
X148746183Y-75581251D01*
X148348092Y-75581251D01*
X148342912Y-75508152D01*
X148345410Y-74884070D01*
X148353091Y-74757401D01*
X148440186Y-74079499D01*
X148600367Y-73620665D01*
X148844323Y-73360400D01*
X149182744Y-73278201D01*
X149315931Y-73280802D01*
X149698374Y-73350388D01*
X149969016Y-73555512D01*
X150210986Y-73950529D01*
X150350910Y-74217712D01*
X150625605Y-74658677D01*
X150836090Y-74868602D01*
X150976955Y-74846482D01*
X151042785Y-74591314D01*
X151028169Y-74102094D01*
X151014711Y-73948190D01*
X151002644Y-73510164D01*
X151072772Y-73243235D01*
X151254121Y-73088245D01*
X151575712Y-72986035D01*
X151711114Y-72964428D01*
X152085535Y-73045756D01*
X152358453Y-73343913D01*
X152512686Y-73843182D01*
X152536659Y-74031700D01*
X152536335Y-74685746D01*
X152536277Y-74801750D01*
X152371479Y-75452305D01*
G37*
G36*
X157323098Y-70272685D02*
G01*
X157347607Y-70291145D01*
X157427057Y-70424762D01*
X157477327Y-70683125D01*
X157503777Y-71107953D01*
X157511768Y-71740966D01*
X157515293Y-72109759D01*
X157537430Y-72920603D01*
X157575326Y-73776058D01*
X157623659Y-74542846D01*
X157657238Y-75072935D01*
X157677030Y-75631682D01*
X157675480Y-76070929D01*
X157651571Y-76325851D01*
X157621716Y-76415365D01*
X157415275Y-76623609D01*
X157051460Y-76645871D01*
X156524332Y-76482978D01*
X156108973Y-76309430D01*
X156028826Y-74699973D01*
X155996846Y-74085456D01*
X155952740Y-73297132D01*
X155908200Y-72553688D01*
X155869194Y-71957675D01*
X155789709Y-70824835D01*
X156190634Y-70487478D01*
X156483645Y-70284585D01*
X156924144Y-70157953D01*
X157323098Y-70272685D01*
G37*
G36*
X154695512Y-70272685D02*
G01*
X154720021Y-70291145D01*
X154799471Y-70424762D01*
X154849741Y-70683125D01*
X154876191Y-71107953D01*
X154884182Y-71740966D01*
X154887707Y-72109759D01*
X154909844Y-72920603D01*
X154947740Y-73776058D01*
X154996073Y-74542846D01*
X155029652Y-75072935D01*
X155049444Y-75631682D01*
X155047893Y-76070929D01*
X155023985Y-76325851D01*
X154994130Y-76415365D01*
X154787689Y-76623609D01*
X154423874Y-76645871D01*
X153896746Y-76482978D01*
X153481387Y-76309430D01*
X153401240Y-74699973D01*
X153369260Y-74085456D01*
X153325154Y-73297132D01*
X153280614Y-72553688D01*
X153241608Y-71957675D01*
X153162123Y-70824835D01*
X153563048Y-70487478D01*
X153856058Y-70284585D01*
X154296557Y-70157953D01*
X154695512Y-70272685D01*
G37*
G36*
X166280607Y-72246954D02*
G01*
X166101516Y-72740523D01*
X165709753Y-73166506D01*
X165093867Y-73534084D01*
X164242409Y-73852437D01*
X163802839Y-73995721D01*
X163415388Y-74163104D01*
X163235537Y-74324168D01*
X163241374Y-74501743D01*
X163410987Y-74718659D01*
X163664015Y-74921788D01*
X164165406Y-75093515D01*
X164725521Y-75022826D01*
X164776608Y-75007037D01*
X165165463Y-74936278D01*
X165487211Y-74948288D01*
X165738366Y-75042488D01*
X166087266Y-75263519D01*
X166352035Y-75527496D01*
X166457088Y-75770353D01*
X166402939Y-75959862D01*
X166173125Y-76237913D01*
X165831472Y-76450627D01*
X165745331Y-76468627D01*
X165432681Y-76490088D01*
X164971955Y-76496502D01*
X164428418Y-76486214D01*
X163828337Y-76455248D01*
X163351843Y-76396695D01*
X162977577Y-76297807D01*
X162628896Y-76144012D01*
X162374314Y-75991330D01*
X161912745Y-75546380D01*
X161648636Y-75020399D01*
X161582695Y-74459409D01*
X161715628Y-73909429D01*
X162048145Y-73416481D01*
X162580952Y-73026586D01*
X162882531Y-72888782D01*
X163385044Y-72691295D01*
X163899654Y-72516019D01*
X164259926Y-72390191D01*
X164588067Y-72227537D01*
X164705364Y-72089326D01*
X164634545Y-71956503D01*
X164356657Y-71818779D01*
X163910194Y-71727093D01*
X163340104Y-71689794D01*
X162691332Y-71715229D01*
X162516992Y-71730234D01*
X162086893Y-71757106D01*
X161829016Y-71743461D01*
X161684940Y-71681118D01*
X161596241Y-71561895D01*
X161556663Y-71464161D01*
X161567116Y-71279207D01*
X161975832Y-71279207D01*
X162044374Y-71337600D01*
X162255850Y-71363366D01*
X162645568Y-71358614D01*
X163248836Y-71325451D01*
X163633091Y-71302531D01*
X164132667Y-71285859D01*
X164471163Y-71301878D01*
X164704210Y-71354775D01*
X164887439Y-71448734D01*
X165047011Y-71578887D01*
X165184757Y-71861320D01*
X165096810Y-72162314D01*
X164796904Y-72465018D01*
X164298779Y-72752582D01*
X163616168Y-73008157D01*
X163062206Y-73207160D01*
X162521435Y-73517334D01*
X162204863Y-73892261D01*
X162098788Y-74350203D01*
X162189503Y-74909424D01*
X162216391Y-74992240D01*
X162489878Y-75469654D01*
X162938768Y-75805526D01*
X163590491Y-76021631D01*
X164026404Y-76093568D01*
X164587413Y-76141060D01*
X165124809Y-76146964D01*
X165564270Y-76110916D01*
X165831472Y-76032556D01*
X165849617Y-76020374D01*
X165960385Y-75845941D01*
X165882978Y-75658782D01*
X165670938Y-75490163D01*
X165377806Y-75371354D01*
X165057122Y-75333623D01*
X164762429Y-75408236D01*
X164441120Y-75509037D01*
X163942627Y-75485476D01*
X163445880Y-75304614D01*
X163028592Y-74998054D01*
X162768476Y-74597397D01*
X162729066Y-74350827D01*
X162824672Y-74128752D01*
X163085792Y-73920848D01*
X163539079Y-73706172D01*
X164211184Y-73463783D01*
X164284809Y-73438936D01*
X165065793Y-73119086D01*
X165603771Y-72773346D01*
X165904854Y-72394285D01*
X165975150Y-71974474D01*
X165820771Y-71506482D01*
X165659457Y-71314498D01*
X165257225Y-71067448D01*
X164715988Y-70872384D01*
X164100726Y-70741780D01*
X163476421Y-70688109D01*
X162908051Y-70723846D01*
X162460598Y-70861464D01*
X162388254Y-70901500D01*
X162115568Y-71090755D01*
X161979385Y-71249674D01*
X161975832Y-71279207D01*
X161567116Y-71279207D01*
X161576044Y-71121228D01*
X161801270Y-70778753D01*
X162204641Y-70485731D01*
X162369621Y-70409462D01*
X162679266Y-70325248D01*
X163080818Y-70296557D01*
X163652066Y-70314169D01*
X163944613Y-70336181D01*
X164821670Y-70490776D01*
X165503960Y-70762948D01*
X165981748Y-71145670D01*
X166245299Y-71631914D01*
X166268566Y-71974474D01*
X166284880Y-72214654D01*
X166280607Y-72246954D01*
G37*
G36*
X161075439Y-76365620D02*
G01*
X160942000Y-76470911D01*
X160631988Y-76519394D01*
X160204707Y-76516706D01*
X159719463Y-76468480D01*
X159235559Y-76380349D01*
X158812301Y-76257950D01*
X158508993Y-76106915D01*
X158373810Y-75986646D01*
X158370091Y-75851697D01*
X158381594Y-75832103D01*
X158893888Y-75832103D01*
X158934167Y-75940437D01*
X159138075Y-76032191D01*
X159548063Y-76130276D01*
X159606802Y-76142398D01*
X160096798Y-76237520D01*
X160376509Y-76261800D01*
X160477419Y-76198117D01*
X160431010Y-76029354D01*
X160268766Y-75738390D01*
X160132720Y-75486127D01*
X160036234Y-75225574D01*
X159981220Y-74913024D01*
X159956446Y-74482433D01*
X159950684Y-73867760D01*
X159951561Y-73609120D01*
X159964355Y-73073384D01*
X159997056Y-72727528D01*
X160055604Y-72527846D01*
X160145935Y-72430629D01*
X160217352Y-72361383D01*
X160128820Y-72274699D01*
X159820946Y-72165493D01*
X159681747Y-72127490D01*
X159378204Y-72073892D01*
X159219044Y-72090760D01*
X159210143Y-72108586D01*
X159174398Y-72317117D01*
X159136531Y-72714393D01*
X159100540Y-73252229D01*
X159070422Y-73882437D01*
X159063771Y-74042856D01*
X159030428Y-74670677D01*
X158990840Y-75205408D01*
X158949403Y-75594696D01*
X158910515Y-75786187D01*
X158893888Y-75832103D01*
X158381594Y-75832103D01*
X158510829Y-75611972D01*
X158589429Y-75462568D01*
X158661467Y-75213379D01*
X158710057Y-74851489D01*
X158740882Y-74331077D01*
X158759626Y-73606321D01*
X158762180Y-73475422D01*
X158782183Y-72857316D01*
X158811697Y-72334236D01*
X158847168Y-71957921D01*
X158885044Y-71780110D01*
X159051491Y-71685773D01*
X159425155Y-71696013D01*
X159477453Y-71704439D01*
X159724966Y-71735802D01*
X159759417Y-71702269D01*
X159609855Y-71586636D01*
X159419483Y-71408430D01*
X159228511Y-71071720D01*
X159181010Y-70777764D01*
X159720238Y-70777764D01*
X159823051Y-70960399D01*
X159966461Y-71096382D01*
X160133788Y-71135135D01*
X160200930Y-70976809D01*
X160199638Y-70958101D01*
X160090995Y-70791853D01*
X159893092Y-70685203D01*
X159727261Y-70707207D01*
X159720238Y-70777764D01*
X159181010Y-70777764D01*
X159173009Y-70728251D01*
X159278581Y-70464731D01*
X159338008Y-70414736D01*
X159678176Y-70291453D01*
X160067429Y-70310769D01*
X160379678Y-70471867D01*
X160498340Y-70633767D01*
X160581091Y-70976809D01*
X160582895Y-70984288D01*
X160501204Y-71321052D01*
X160263492Y-71549243D01*
X160056472Y-71657891D01*
X159977049Y-71772072D01*
X160114659Y-71886738D01*
X160482457Y-72030827D01*
X160791059Y-72157108D01*
X160968647Y-72310639D01*
X161014231Y-72527462D01*
X160960602Y-72766360D01*
X160763985Y-72842453D01*
X160743114Y-72842859D01*
X160637001Y-72865913D01*
X160572671Y-72957044D01*
X160542496Y-73161730D01*
X160538847Y-73525451D01*
X160554095Y-74093684D01*
X160574966Y-74561493D01*
X160626004Y-75092249D01*
X160709580Y-75471049D01*
X160835623Y-75756535D01*
X160869637Y-75816700D01*
X161016973Y-76129547D01*
X161035506Y-76198117D01*
X161076792Y-76350870D01*
X161075439Y-76365620D01*
G37*
G36*
X164387363Y-94307293D02*
G01*
X164327307Y-94366070D01*
X164061394Y-94418150D01*
X163674060Y-94358105D01*
X163224579Y-94208277D01*
X162772225Y-93991012D01*
X162376274Y-93728652D01*
X162095999Y-93443543D01*
X161870110Y-93063218D01*
X161656740Y-92365652D01*
X161691449Y-91656380D01*
X161696789Y-91639180D01*
X161975677Y-91639180D01*
X161987876Y-92102278D01*
X162152790Y-92714584D01*
X162255090Y-92974972D01*
X162492879Y-93326045D01*
X162872248Y-93604176D01*
X163015188Y-93683497D01*
X163416851Y-93875530D01*
X163744114Y-93993209D01*
X164096658Y-94080017D01*
X164009136Y-92531572D01*
X164006304Y-92481713D01*
X163970758Y-91894817D01*
X163937542Y-91410913D01*
X163910263Y-91078971D01*
X163892526Y-90947961D01*
X163838662Y-90930071D01*
X163596404Y-90886848D01*
X163231352Y-90837933D01*
X163061942Y-90819562D01*
X162728702Y-90813894D01*
X162500820Y-90893962D01*
X162275960Y-91086377D01*
X162120129Y-91273280D01*
X161975677Y-91639180D01*
X161696789Y-91639180D01*
X161804369Y-91292673D01*
X162080225Y-90876522D01*
X162497293Y-90633084D01*
X163077344Y-90551893D01*
X163842150Y-90622482D01*
X164292730Y-90697015D01*
X164376115Y-92443794D01*
X164385441Y-92650482D01*
X164406540Y-93268653D01*
X164414090Y-93783375D01*
X164408939Y-94080017D01*
X164407796Y-94145852D01*
X164387363Y-94307293D01*
G37*
G36*
X159074822Y-94424014D02*
G01*
X158753169Y-94638247D01*
X158419181Y-94620392D01*
X158068554Y-94355829D01*
X157905725Y-94129873D01*
X157885201Y-93924849D01*
X158212418Y-93924849D01*
X158246637Y-94114968D01*
X158440980Y-94294488D01*
X158657121Y-94396497D01*
X158811657Y-94391530D01*
X158909297Y-94223701D01*
X158911096Y-94050214D01*
X158737346Y-93872914D01*
X158417925Y-93800314D01*
X158342250Y-93808321D01*
X158212418Y-93924849D01*
X157885201Y-93924849D01*
X157878857Y-93861477D01*
X158080941Y-93669220D01*
X158501891Y-93571359D01*
X158663755Y-93564916D01*
X159063246Y-93638200D01*
X159279733Y-93827854D01*
X159288909Y-94050214D01*
X159290997Y-94100813D01*
X159074822Y-94424014D01*
G37*
G36*
X159199945Y-84914654D02*
G01*
X158878292Y-85128887D01*
X158544305Y-85111032D01*
X158193677Y-84846469D01*
X158030848Y-84620513D01*
X158010324Y-84415489D01*
X158337541Y-84415489D01*
X158371760Y-84605609D01*
X158566104Y-84785129D01*
X158782244Y-84887138D01*
X158936780Y-84882170D01*
X159034420Y-84714341D01*
X159036219Y-84540854D01*
X158862469Y-84363554D01*
X158543049Y-84290954D01*
X158467373Y-84298961D01*
X158337541Y-84415489D01*
X158010324Y-84415489D01*
X158003980Y-84352118D01*
X158206064Y-84159861D01*
X158627014Y-84061999D01*
X158788878Y-84055557D01*
X159188369Y-84128841D01*
X159404856Y-84318494D01*
X159414032Y-84540854D01*
X159416120Y-84591453D01*
X159199945Y-84914654D01*
G37*
M02*
